<svg xmlns="http://www.w3.org/2000/svg" width="259.125" height="395.283" viewBox="0 0 259.125 395.283" fill="none">
  <path d="M 258.941 263.277 L 258.941 235.829 C 258.859 235.154 257.754 235.699 258.941 234.526 L 259.125 159.375 L 258.921 8.432 C 254.126 9.55 250.13 4.92 250.157 0.085 C 245.909 -0.059 237.626 0.282 233.391 0.276 C 228.911 0.276 224.349 0.221 219.793 0.248 C 218.607 0.262 213.042 -0.243 212.449 0.153 C 212.319 0.242 212.51 0.664 212.271 0.63 L 211.773 0.064 L 175.296 0.064 L 175.296 0.078 L 138.818 0.064 L 138.32 0.63 C 138.082 0.671 138.266 0.242 138.143 0.153 C 137.557 -0.243 36.519 0.255 35.325 0.248 C 30.77 0.221 26.207 0.269 21.727 0.276 C 17.492 0.276 13.209 -0.059 8.968 0.085 C 8.995 4.913 5.006 9.55 0.211 8.432 L 0 159.375 L 0.184 234.526 C 1.371 235.699 0.266 235.154 0.184 235.829 L 0.184 263.277 C 0.266 263.953 1.371 263.407 0.184 264.58 L 0 317.909 L 0.205 386.852 C 4.999 385.734 8.995 390.364 8.968 395.199 C 13.216 395.342 17.499 395.001 21.727 395.008 C 26.207 395.008 30.77 395.063 35.325 395.036 C 36.512 395.022 137.55 395.527 138.143 395.131 C 138.273 395.042 138.082 394.62 138.32 394.654 L 138.818 395.22 L 187.544 395.22 C 187.441 394.204 187.591 393.16 188.001 392.233 L 181.454 392.233 C 182.013 393.488 181.188 393.372 181.058 392.212 L 169.54 392.212 C 169.411 393.378 168.585 393.494 169.145 392.233 L 155.465 392.233 C 156.024 393.488 155.199 393.372 155.069 392.212 L 37.453 392.212 L 37.187 393.044 L 36.921 392.212 L 11.982 392.246 C 11.709 392.178 11.027 389.423 10.782 388.918 C 10.577 388.509 9.022 386.436 8.599 386.034 C 8.115 385.577 6.451 384.438 5.892 384.268 C 5.224 384.056 4.044 384.356 3.28 383.729 L 3.076 357.351 L 2.53 356.833 L 3.055 356.526 L 3.055 38.758 L 2.53 38.451 L 3.076 37.933 L 3.28 11.555 C 4.037 10.928 5.217 11.228 5.892 11.016 C 6.451 10.846 8.115 9.707 8.599 9.25 C 9.022 8.855 10.584 6.775 10.782 6.365 C 11.027 5.861 11.709 3.113 11.982 3.038 L 36.921 3.072 L 37.187 2.24 L 37.453 3.072 L 155.062 3.072 C 155.192 1.905 156.017 1.79 155.458 3.051 L 169.138 3.051 C 168.579 1.796 169.404 1.905 169.533 3.072 L 181.051 3.072 C 181.181 1.905 182.006 1.79 181.447 3.051 L 195.127 3.051 C 194.568 1.796 195.393 1.905 195.522 3.072 L 217.659 3.072 L 217.925 2.24 L 218.191 3.072 L 247.13 3.038 C 247.402 3.106 248.084 5.861 248.33 6.365 C 248.534 6.775 250.089 8.848 250.519 9.25 C 251.003 9.707 252.667 10.846 253.226 11.016 C 253.895 11.228 255.074 10.928 255.838 11.555 L 256.043 37.933 L 256.588 38.451 L 256.063 38.758 L 256.063 356.519 L 256.588 356.826 L 256.043 357.344 L 255.838 383.722 C 255.081 384.349 253.901 384.049 253.226 384.261 C 252.667 384.431 251.003 385.57 250.519 386.027 C 250.096 386.429 248.534 388.502 248.33 388.912 C 248.084 389.409 247.402 392.171 247.13 392.24 L 233.33 392.226 C 233.746 393.106 233.848 394.067 233.705 395.001 C 237.831 395.015 245.997 395.329 250.137 395.192 C 250.116 390.357 254.106 385.727 258.9 386.845 L 259.105 317.902 L 258.921 264.573 C 257.734 263.4 258.839 263.946 258.921 263.271 L 258.941 263.277 Z" fill="currentColor" fill-rule="nonzero"></path>
</svg>