<svg xmlns="http://www.w3.org/2000/svg" width="47.930" height="47.930" viewBox="0 0 47.930 47.930" fill="#D69F56">
  <path d="M 36.476 3.337 C 34.768 6.616 33.108 9.803 31.409 13.063 C 32.007 13.515 32.615 13.979 33.313 14.507 C 36.081 12.209 38.847 9.911 41.75 7.498 C 42.628 8.534 43.464 9.519 44.387 10.611 C 41.327 12.882 38.382 15.068 35.532 17.185 C 35.532 17.42 35.52 17.465 35.532 17.497 C 36.113 18.772 37.099 19.245 38.492 18.918 C 41.322 18.252 44.151 17.583 47.113 16.882 C 47.368 17.83 47.589 18.715 47.846 19.591 C 48.085 20.403 47.818 20.778 46.963 20.934 C 44.137 21.451 41.322 22.029 38.506 22.59 C 38.132 22.664 37.765 22.771 37.335 22.879 C 37.335 23.447 37.398 23.992 37.319 24.516 C 37.226 25.133 37.452 25.303 38.034 25.41 C 41.049 25.976 44.048 26.63 47.069 27.17 C 47.863 27.312 47.996 27.629 47.9 28.33 C 47.503 31.21 47.372 31.317 44.63 30.665 C 42.364 30.125 40.08 29.657 37.847 29.003 C 36.672 28.658 36.006 28.819 35.728 30.051 C 35.679 30.267 35.541 30.463 35.411 30.74 C 38.34 32.954 41.236 35.146 44.247 37.421 C 43.371 38.49 42.57 39.47 41.71 40.518 C 38.889 38.194 36.144 35.933 33.364 33.644 C 32.715 34.107 32.119 34.529 31.447 35.008 C 33.112 38.224 34.759 41.4 36.478 44.714 C 35.397 45.249 34.42 45.799 33.383 46.195 C 33.185 46.272 32.617 45.822 32.458 45.501 C 31.279 43.105 30.162 40.676 29.018 38.261 C 28.77 37.74 28.492 37.23 28.228 36.715 C 28.081 36.706 27.966 36.678 27.857 36.696 C 25.937 37.025 25.941 37.027 25.944 38.997 C 25.948 41.936 25.944 44.875 25.944 47.93 L 22.108 47.93 L 22.108 37.188 C 20.609 36.708 19.541 37.145 18.906 38.499 C 17.801 40.846 16.664 43.179 15.598 45.545 C 15.26 46.297 14.905 46.446 14.188 46.048 C 13.351 45.585 12.466 45.21 11.487 44.742 C 13.279 41.475 15.005 38.324 16.778 35.092 C 16.147 34.615 15.545 34.158 14.874 33.653 C 12.071 35.919 9.299 38.159 6.395 40.506 C 5.505 39.491 4.63 38.49 3.709 37.439 C 6.755 35.199 9.658 33.062 12.557 30.929 C 12.562 30.849 12.595 30.766 12.569 30.712 C 11.548 28.64 11.55 28.651 9.303 29.222 C 6.858 29.841 4.398 30.412 1.96 31.054 C 1.329 31.22 0.986 31.087 0.825 30.484 C 0.556 29.482 0.299 28.479 0 27.338 C 2.107 26.902 4.104 26.483 6.106 26.078 C 7.248 25.848 8.385 25.519 9.539 25.449 C 10.675 25.379 10.896 24.839 10.782 23.891 C 10.745 23.591 10.777 23.281 10.777 22.906 C 7.554 22.243 4.377 21.551 1.184 20.953 C 0.22 20.771 -0.089 20.438 0.236 19.486 C 0.509 18.687 0.656 17.846 0.899 16.864 C 4.473 17.739 7.995 18.601 11.588 19.481 C 11.973 18.769 12.333 18.103 12.725 17.378 C 9.766 15.152 6.86 12.966 3.847 10.698 C 4.688 9.612 5.461 8.618 6.302 7.533 C 9.212 9.894 12.039 12.188 14.928 14.53 C 15.57 14.065 16.217 13.597 16.834 13.147 C 15.08 9.857 13.349 6.611 11.525 3.188 C 12.721 2.61 13.877 2.052 15.159 1.434 C 16.773 4.897 18.338 8.25 19.917 11.636 C 20.723 11.45 21.436 11.287 22.176 11.114 L 22.176 0 L 25.979 0 L 25.979 11.08 C 28.338 11.792 28.326 11.787 29.274 9.594 C 30.424 6.932 31.596 4.282 32.79 1.551 C 34.054 2.163 35.221 2.729 36.473 3.337 L 36.476 3.337 Z" fill="currentColor" fill-rule="nonzero"></path>
</svg>