<svg xmlns="http://www.w3.org/2000/svg" width="200" height="153" viewBox="0 0 200 153" fill="none">
  <path d="M 5.481 148.664 C 9.03 147.04 12.893 146.859 16.577 146.002 C 18.104 145.641 18.284 145.46 17.52 144.062 C 16.757 142.663 17.116 141.174 17.071 139.731 C 17.026 137.385 16.622 135.084 16.622 132.783 C 16.622 130.121 16.442 127.414 17.341 124.707 C 18.149 122.316 17.88 119.745 17.43 117.263 C 16.891 114.331 16.442 111.398 16.352 108.421 C 16.218 104.857 16.173 101.338 16.487 97.773 C 16.622 95.969 16.667 94.074 16.577 92.179 C 16.487 89.517 16.667 86.81 16.981 84.103 C 17.52 79.953 17.251 75.802 16.217 71.742 C 15.903 70.434 15.858 69.17 15.903 67.907 C 15.993 65.561 16.083 63.215 16.083 60.914 C 16.083 59.2 15.319 58.433 13.612 58.433 C 11.231 58.433 8.85 58.974 6.514 58.433 C 6.334 58.433 6.11 58.433 5.975 58.478 C 3.594 59.831 1.887 58.388 0 56.989 C 1.752 55.951 2.785 54.418 3.684 52.748 C 5.256 49.861 7.188 47.244 8.805 44.402 C 10.288 41.83 11.77 39.259 13.432 36.823 C 15.364 33.935 17.386 31.048 19.317 28.16 C 23.63 21.709 28.572 15.799 33.423 9.753 C 34.771 8.084 36.658 6.821 38.32 5.377 C 39.443 4.43 39.533 4.069 38.679 2.806 C 38.5 2.535 38.32 2.264 38.095 2.039 C 37.781 1.678 37.422 1.272 37.826 0.866 C 38.14 0.505 38.679 0.595 39.084 0.866 C 39.668 1.226 40.297 1.181 40.971 1.226 C 46.99 1.542 52.965 1.091 58.94 0.64 C 61.635 0.459 64.286 0.369 66.981 0.64 C 69.542 0.866 72.103 0.55 74.708 0.414 C 78.931 0.189 83.154 -0.127 87.422 0.053 C 90.252 0.189 93.082 -0.037 95.912 0.008 C 101.034 0.053 106.11 0.279 111.186 0.595 C 112.085 0.64 112.983 0.595 113.882 0.595 C 117.97 0.505 122.013 1.001 126.056 1.226 C 130.234 1.452 134.412 1.497 138.59 1.362 C 140.746 1.272 142.948 1.317 145.149 1.723 C 147.575 2.174 150.046 1.993 152.471 2.039 C 155.571 2.084 158.626 2.806 161.726 2.806 C 163.253 2.806 164.825 3.076 165.949 1.362 C 166.622 3.031 167.386 4.294 168.914 4.926 C 169.183 5.061 169.228 5.512 169.093 5.828 C 168.734 6.685 168.914 7.543 169.273 8.264 C 170.261 10.43 171.16 12.641 172.597 14.581 C 172.822 14.896 173.181 15.122 173.316 15.483 C 173.99 17.242 175.068 18.731 176.056 20.31 C 178.078 23.604 180.504 26.626 182.436 29.965 C 185.041 34.522 188.86 38.176 191.735 42.552 C 193.083 44.582 194.79 46.342 196.227 48.327 C 197.35 49.906 198.428 51.485 199.686 52.974 C 200.27 53.651 200.001 54.914 199.192 55.771 C 198.608 56.358 197.934 56.899 197.305 57.395 C 196.272 58.207 195.958 58.117 195.014 57.079 C 194.475 56.493 193.981 55.997 192.948 56.222 C 191.915 56.448 190.791 56.357 189.803 55.636 C 188.95 55.049 188.231 55.41 188.006 56.493 C 187.871 57.26 187.916 58.027 187.871 58.839 C 187.647 63.576 186.973 68.268 187.063 73.005 C 187.063 74.99 186.748 76.975 186.614 79.005 C 186.299 84.329 186.793 89.608 186.479 94.931 C 186.299 97.773 186.838 100.616 186.658 103.458 C 186.479 105.714 186.658 107.97 186.569 110.225 C 186.479 111.624 186.838 113.022 187.063 114.421 C 187.467 116.948 187.242 119.474 187.287 122 C 187.287 124.437 187.377 126.918 187.422 129.354 C 187.422 130.843 187.557 132.377 187.108 133.821 C 186.793 134.768 187.153 135.625 187.198 136.528 C 187.287 138.783 186.973 141.039 187.377 143.295 C 187.467 143.746 187.512 144.197 187.557 144.648 C 187.647 145.46 187.871 145.866 188.86 145.912 C 191.286 146.092 193.532 147.22 195.958 147.761 C 197.305 148.077 197.8 149.431 198.114 150.739 C 198.204 151.145 198.024 151.506 197.485 151.506 C 197.305 151.506 197.081 151.506 196.901 151.506 C 194.385 150.784 191.78 151.506 189.264 150.919 C 188.95 150.874 188.59 150.874 188.321 150.965 C 186.029 151.822 183.469 151.731 181.178 152.453 C 177.584 153.581 174.08 152.679 170.531 152.273 C 170.037 152.228 169.542 152.047 169.003 152.092 C 165.769 152.453 162.579 151.551 159.345 151.596 C 159.21 151.596 159.075 151.596 158.985 151.506 C 156.919 150.107 154.628 150.513 152.426 150.965 C 149.506 151.551 146.631 151.235 143.756 151.145 C 142.723 151.145 141.69 151.01 140.656 151.235 C 140.387 151.28 140.117 151.371 139.893 151.325 C 138.231 150.784 136.613 151.01 134.951 151.19 C 133.424 151.325 131.896 151.055 130.369 150.784 C 128.482 150.423 126.505 150.558 124.619 151.01 C 123.406 151.28 122.193 151.371 121.025 151.01 C 119.318 150.468 117.611 150.649 115.903 151.01 C 115.275 151.145 114.556 151.325 114.017 151.055 C 111.905 150.017 109.704 150.784 107.593 150.604 C 104.358 150.333 101.079 151.28 97.799 150.468 C 96.586 150.198 95.238 150.559 93.981 150.468 C 90.387 150.243 86.793 150.784 83.199 150.558 C 80.773 150.378 78.302 150.604 75.921 150.017 C 75.202 149.837 74.394 150.017 73.63 150.107 C 71.294 150.378 68.913 150.694 66.577 150.243 C 66.442 150.243 66.308 150.198 66.173 150.243 C 64.331 151.055 62.489 150.243 60.647 150.378 C 57.907 150.513 55.122 150.423 52.381 150.649 C 50.405 150.829 48.563 151.01 46.676 150.243 C 46.316 150.107 45.867 149.972 45.553 150.062 C 42.767 150.829 39.937 149.972 37.152 150.423 C 35.759 150.649 34.322 150.423 32.884 150.423 C 28.661 150.333 24.394 150.513 20.306 151.686 C 18.958 152.047 17.7 152.228 16.352 152.228 C 14.78 152.228 13.477 151.731 12.174 151.01 C 11.231 150.468 10.288 149.927 9.299 149.476 C 8.176 148.979 6.963 148.799 5.705 148.844 L 5.481 148.664 Z M 170.89 145.957 C 170.98 146.047 171.025 146.182 171.115 146.273 C 174.259 146.182 177.404 146.182 180.549 146.002 C 181.897 145.957 181.852 145.776 181.897 144.468 C 181.897 143.16 181.313 141.941 181.313 140.633 C 181.313 138.513 181.043 136.392 180.773 134.227 C 180.594 132.738 180.459 131.159 180.953 129.805 C 181.492 128.362 181.537 126.918 181.627 125.429 C 181.717 124.211 181.537 122.948 181.762 121.73 C 182.481 117.76 181.537 114.015 180.549 110.27 C 179.875 107.699 179.471 105.082 179.516 102.42 C 179.56 98.992 179.965 95.608 180.145 92.179 C 180.189 91.322 180.594 90.555 180.594 89.698 C 180.639 87.397 180.998 85.096 180.908 82.75 C 180.818 79.457 181.178 76.163 181.582 72.915 C 181.807 71.11 182.391 69.396 182.391 67.546 C 182.391 66.373 182.076 65.2 182.256 64.072 C 182.66 61.636 182.481 59.2 182.795 56.764 C 182.795 56.448 182.795 56.132 182.705 55.816 C 182.57 55.094 182.211 54.778 181.492 55.184 C 180.549 55.726 179.605 55.951 178.662 55.139 C 178.303 54.824 177.764 54.824 177.359 54.914 C 176.236 55.23 175.113 54.959 173.945 55.32 C 172.328 55.816 171.968 55.997 172.328 57.576 C 172.463 58.252 172.687 58.884 172.328 59.47 C 171.564 60.689 171.744 61.907 172.193 63.17 C 172.283 63.396 172.328 63.666 172.373 63.937 C 172.507 67.275 172.957 70.614 172.013 73.862 C 171.923 74.133 171.968 74.359 172.013 74.629 C 172.373 76.479 172.687 78.329 173.047 80.133 C 173.361 81.667 172.238 84.013 170.845 84.645 C 169.992 85.051 169.542 84.825 169.408 83.788 C 169.273 82.885 169.183 81.983 169.228 81.081 C 169.453 77.787 169.498 74.494 169.318 71.2 C 169.138 67.591 169.363 63.982 169.453 60.328 C 169.453 59.335 169.587 58.388 169.632 57.395 C 169.677 56.538 169.453 56.087 168.419 56.087 C 166.757 56.087 165.095 56.042 163.433 55.681 C 161.636 55.275 159.749 55.275 157.907 55.23 C 154.583 55.184 151.258 55.771 147.934 55.816 C 146.631 55.816 146.047 56.403 145.688 57.485 C 145.508 57.982 145.373 58.523 145.418 59.019 C 145.463 60.508 144.879 61.952 144.924 63.441 C 144.924 64.478 144.205 65.02 143.262 65.381 C 142.319 65.696 141.869 64.478 141.016 64.614 C 141.016 64.433 140.926 64.253 140.971 64.072 C 141.42 62.177 140.971 60.192 141.645 58.297 C 142.094 56.989 141.6 56.358 140.207 56.448 C 138.365 56.583 136.523 56.538 134.727 56.087 C 134.232 55.951 133.648 55.816 133.244 56.222 C 132.48 56.944 131.672 56.628 130.863 56.493 C 129.336 56.267 127.808 55.997 126.326 56.764 C 125.966 56.944 125.427 56.944 124.978 56.854 C 122.687 56.312 120.261 56.944 117.97 56.312 C 117.655 56.222 117.251 56.177 117.027 56.312 C 115.859 56.944 114.691 56.403 113.522 56.403 C 112.489 56.403 111.501 56.312 110.468 56.583 C 110.108 56.673 109.704 56.673 109.345 56.583 C 106.514 55.997 103.639 56.087 100.809 55.726 C 100.135 55.636 99.461 55.861 99.776 56.854 C 100 57.576 100.045 58.343 99.641 58.929 C 98.967 59.877 99.237 60.689 99.641 61.636 C 100.135 62.854 100.405 64.072 100.315 65.426 C 100.135 68.133 100.225 70.84 101.123 73.456 C 101.528 74.719 102.426 75.892 101.618 77.472 C 105.751 78.013 109.659 77.923 113.567 77.742 C 114.511 77.697 114.915 76.705 114.556 75.532 C 114.421 75.08 114.331 74.81 114.511 74.313 C 115.185 72.238 115.589 70.073 115.274 67.862 C 115.005 65.741 114.78 63.666 115.14 61.501 C 115.319 60.553 115.769 60.102 116.487 59.831 C 117.071 59.651 117.566 59.831 117.521 60.553 C 117.431 62.629 117.79 64.614 118.419 66.599 C 118.509 66.96 118.554 67.411 118.419 67.727 C 117.79 69.17 118.105 70.614 118.284 72.103 C 118.509 73.637 119.273 75.035 119.048 76.659 C 119.003 77.111 119.363 77.336 119.812 77.291 C 122.193 77.156 124.529 76.659 126.91 76.975 C 127.404 77.065 127.763 76.434 127.134 76.118 C 126.281 75.667 126.505 74.99 126.505 74.268 C 126.371 71.426 126.955 68.629 126.595 65.742 C 126.371 63.892 126.461 61.997 126.461 60.147 C 126.461 59.155 126.91 58.658 127.943 58.478 C 128.752 58.343 129.066 58.658 129.291 59.425 C 129.92 61.591 130.773 63.711 129.695 65.967 C 129.56 66.238 129.695 66.599 129.695 66.914 C 129.875 68.629 130.01 70.388 130.459 72.103 C 130.908 73.727 131.447 75.351 129.83 76.84 C 130.549 76.975 131.043 76.975 131.537 76.84 C 133.154 76.524 134.996 77.336 135.805 78.69 C 136.074 79.141 136.119 79.547 135.984 79.998 C 135.131 83.021 135.67 86.043 135.984 89.066 C 136.299 92.495 136.389 95.879 136.344 99.307 C 136.344 100.345 135.85 101.338 135.939 102.375 C 136.389 106.706 135.939 110.992 135.939 115.323 C 135.939 116.632 136.299 117.895 136.254 119.158 C 136.254 123.173 136.164 127.189 136.254 131.249 C 136.254 133.685 136.254 136.167 136.164 138.648 C 136.074 140.408 136.479 142.257 136.613 144.062 C 136.658 144.513 136.748 145.1 137.287 145.1 C 139.129 144.964 140.926 145.235 142.768 145.235 C 142.768 144.603 142.319 144.739 142.094 144.603 C 141.51 144.242 141.24 143.656 141.735 143.16 C 142.633 142.347 142.588 141.355 142.588 140.317 C 142.633 138.829 142.768 137.34 142.678 135.851 C 142.453 132.151 142.858 128.542 143.487 124.888 C 143.621 123.985 143.981 123.805 144.745 124.211 C 145.868 124.798 146.631 125.745 146.362 127.053 C 145.688 130.302 146.901 133.64 145.913 136.843 C 145.823 137.159 146.092 137.61 146.092 137.971 C 146.047 140.317 146.586 142.754 145.418 144.964 C 148.069 145.596 150.809 145.46 153.46 145.731 C 154.268 145.821 154.628 145.551 154.718 144.693 C 154.897 143.205 154.718 141.716 154.718 140.272 C 154.897 134.182 154.852 128.091 155.347 122.046 C 155.706 117.534 155.975 113.022 155.661 108.511 C 155.481 106.255 155.751 103.954 155.571 101.698 C 155.391 99.172 155.931 96.691 155.841 94.164 C 155.841 93.578 156.559 93.127 157.054 93.442 C 157.683 93.848 158.267 94.39 158.851 94.931 C 159.345 95.382 158.985 95.924 158.985 96.42 C 158.985 96.871 159.03 97.232 159.39 97.638 C 160.603 99.037 160.692 99.398 159.659 101.022 C 158.671 102.511 158.581 103.909 159.345 105.398 C 159.794 106.3 159.749 107.203 159.569 108.195 C 159.3 109.594 159.165 111.083 159.435 112.436 C 159.659 113.564 159.569 114.421 159.075 115.368 C 158.761 116 158.401 116.587 158.581 117.354 C 158.985 119.384 158.626 121.459 158.896 123.534 C 158.985 124.166 158.761 124.798 158.536 125.429 C 157.548 127.911 158.356 130.572 157.772 133.099 C 157.772 133.144 157.772 133.234 157.817 133.279 C 158.626 135.264 157.907 137.565 159.12 139.46 C 159.3 139.731 159.3 140.272 159.21 140.588 C 158.716 142.122 158.94 143.791 158.132 145.19 C 158.536 145.46 158.851 145.415 159.165 145.415 C 161.411 145.19 163.657 145.1 165.904 145.325 C 167.79 145.506 168.015 145.325 168.105 143.385 C 168.195 141.445 168.374 139.505 168.285 137.565 C 168.195 135.039 169.273 132.738 169.363 130.302 C 169.453 128.497 169.453 126.692 169.587 124.888 C 169.632 124.121 169.677 123.354 169.677 122.587 C 169.587 119.925 169.453 117.263 170.171 114.692 C 172.867 115.684 174.125 119.203 172.238 121.098 C 170.98 122.361 170.935 123.534 171.654 124.888 C 172.283 126.061 172.013 126.918 171.115 127.82 C 170.126 128.813 170.082 129.896 170.935 131.023 C 171.25 131.43 171.519 131.881 171.564 132.422 C 171.699 133.595 171.878 134.723 171.923 135.896 C 172.013 137.791 171.923 139.731 172.013 141.626 C 172.058 143.114 172.328 144.603 171.16 145.866 L 170.89 145.957 Z M 29.919 144.784 C 30.548 145.19 31.132 145.1 31.671 145.054 C 33.468 144.784 35.265 144.829 37.062 145.235 C 37.601 145.37 38.23 145.37 38.814 145.415 C 39.443 145.46 39.713 145.19 39.758 144.513 C 39.892 143.34 39.533 142.212 39.578 141.039 C 39.668 138.964 39.847 136.889 39.443 134.813 C 39.308 134.136 39.443 133.415 39.578 132.693 C 39.847 130.843 40.207 128.948 40.117 127.098 C 40.027 125.429 40.162 123.895 40.656 122.316 C 41.015 121.098 41.24 119.88 41.06 118.527 C 40.881 116.857 41.06 115.143 41.15 113.474 C 41.33 110.586 41.42 107.699 41.15 104.811 C 41.015 103.458 41.105 102.105 41.15 100.751 C 41.195 99.984 41.644 99.849 42.363 100.255 C 42.723 100.48 42.902 100.751 43.082 101.112 C 43.576 102.195 43.756 103.278 43.396 104.496 C 43.127 105.353 42.902 106.21 43.396 107.248 C 43.846 108.285 44.295 109.639 43.666 110.812 C 43.082 111.895 42.992 113.022 42.992 114.195 C 42.992 114.782 43.082 115.414 42.543 115.82 C 41.465 116.587 41.599 117.534 42.094 118.572 C 42.273 118.933 42.543 119.294 42.453 119.654 C 42.228 120.467 42.453 120.918 43.082 121.459 C 44.07 122.361 44.475 123.489 43.576 124.707 C 43.262 125.158 43.172 125.655 43.307 126.196 C 44.205 129.219 43.531 132.377 43.98 135.445 C 44.16 136.528 44.16 137.656 44.205 138.738 C 44.25 140.949 44.744 143.25 43.846 145.415 C 44.25 145.776 44.609 145.641 45.014 145.641 C 46.227 145.641 47.44 145.325 48.652 145.37 C 51.662 145.46 52.201 144.874 51.932 141.806 C 51.932 141.626 51.842 141.445 51.842 141.22 C 51.842 138.242 51.393 135.309 51.573 132.287 C 51.707 129.49 51.752 126.738 51.078 123.985 C 50.584 122 50.584 120.015 51.078 118.03 C 51.258 117.263 51.303 116.496 51.303 115.729 C 51.393 112.977 50.989 110.18 51.842 107.428 C 52.022 106.887 51.842 106.255 51.842 105.669 C 51.842 104.18 51.842 102.691 51.887 101.202 C 51.887 100.796 51.707 100.3 52.246 100.029 C 52.606 100.661 52.83 101.247 53.774 101.247 C 54.852 101.247 55.077 102.105 55.077 103.052 C 55.077 103.729 54.807 104.315 54.403 104.857 C 53.953 105.443 53.953 106.075 54.403 106.661 C 55.256 107.744 55.211 108.917 54.897 110.135 C 54.672 111.128 54.538 112.165 54.717 113.203 C 55.077 115.549 55.571 117.94 54.942 120.331 C 54.852 120.602 54.942 120.963 55.032 121.279 C 55.391 122.948 55.436 124.617 55.526 126.286 C 55.795 130.031 56.2 133.776 55.885 137.52 C 55.795 138.377 55.885 139.234 56.29 140.001 C 57.098 141.626 57.188 143.16 55.84 144.829 C 58.67 144.468 61.186 144.558 63.702 144.468 C 65.229 144.423 65.544 144.062 65.05 142.618 C 64.421 140.859 64.196 139.144 64.421 137.295 C 64.645 135.49 64.016 133.73 64.196 131.926 C 64.331 130.572 64.196 129.219 64.331 127.865 C 64.466 126.196 64.061 124.482 64.241 122.813 C 64.556 120.015 64.196 117.128 64.735 114.331 C 64.915 113.564 64.825 112.797 64.645 112.03 C 64.466 111.218 64.511 110.361 64.556 109.503 C 64.78 105.127 64.825 100.706 64.376 96.33 C 64.106 93.758 63.972 91.187 63.927 88.57 C 63.927 87.171 64.331 85.773 63.792 84.374 C 63.567 83.833 63.927 83.382 64.6 83.382 C 64.915 83.382 65.229 83.517 65.544 83.201 C 65.724 82.75 64.96 82.524 65.319 81.848 C 67.745 81.532 70.306 81.351 72.732 80.539 C 73.585 80.269 74.753 80.539 75.292 79.998 C 76.011 79.366 75.517 78.148 75.562 77.201 C 75.786 73.276 76.011 69.351 76.595 65.426 C 76.91 63.486 76.82 61.41 76.954 59.425 C 77.044 58.072 76.505 57.531 75.247 58.027 C 74.034 58.478 72.911 58.523 71.698 58.117 C 71.519 58.072 71.339 58.117 71.114 58.117 C 70.306 58.072 69.497 58.027 69.722 59.29 C 69.812 59.786 69.452 60.147 69.138 60.418 C 68.644 60.824 65.813 60.057 65.724 59.425 C 65.544 58.523 65.005 58.433 64.331 58.478 C 62.309 58.568 60.288 57.891 58.311 58.749 C 54.493 58.478 50.584 58.884 46.811 58.027 C 46.272 57.891 45.643 57.937 45.059 57.937 C 44.654 57.937 44.295 58.162 44.25 58.613 C 44.115 59.561 43.801 60.553 43.935 61.501 C 44.07 62.629 44.25 63.621 43.486 64.614 C 43.172 65.02 43.307 65.471 43.711 65.832 C 45.014 66.914 44.924 68.268 44.475 69.712 C 44.16 70.614 43.846 71.561 43.576 72.464 C 43.396 73.14 43.217 73.862 43.621 74.539 C 44.16 75.396 44.295 76.344 44.16 77.336 C 44.115 77.923 44.16 78.509 44.519 79.005 C 45.059 79.863 45.014 80.81 44.609 81.622 C 43.441 84.284 43.576 87.126 43.396 89.923 C 43.351 90.781 43.037 91.457 42.453 91.954 C 42.094 92.269 41.599 92.224 41.465 91.593 C 41.465 91.322 41.42 91.096 41.465 90.826 C 41.644 85.457 41.959 80.133 41.824 74.765 C 41.824 73.321 41.959 71.922 41.869 70.479 C 41.689 66.734 41.15 62.989 41.779 59.245 C 41.914 58.523 41.644 57.801 40.881 57.801 C 39.623 57.801 38.365 57.305 37.062 57.621 C 35.984 57.891 34.951 57.937 33.828 57.711 C 32.66 57.44 31.896 58.343 32.345 59.425 C 33.019 61.05 33.244 62.583 31.896 64.027 C 31.671 64.298 31.537 64.614 31.626 64.929 C 32.3 67.14 32.076 69.441 32.345 71.652 C 32.66 74.088 33.019 76.569 32.255 78.915 C 31.716 80.584 31.492 82.254 31.492 84.013 C 31.492 85.457 30.728 86.63 29.784 87.713 C 29.38 87.216 29.47 86.765 29.425 86.314 C 29.2 81.938 29.335 77.517 29.2 73.14 C 29.066 69.351 29.2 65.516 29.784 61.726 C 29.919 60.914 29.874 60.057 29.874 59.2 C 29.874 58.613 29.65 58.162 28.976 58.162 C 27.269 58.162 25.562 58.072 23.81 58.072 C 23.136 58.072 22.866 58.433 22.687 59.11 C 22.103 61.41 22.103 63.756 21.878 66.057 C 21.429 70.659 21.743 75.351 22.462 79.908 C 22.911 82.57 22.821 85.141 22.417 87.758 C 22.013 90.239 21.653 92.721 21.698 95.247 C 21.698 98.811 21.698 102.375 21.339 105.939 C 21.024 109.007 21.339 111.985 21.474 115.008 C 21.518 116.857 21.968 118.752 21.608 120.602 C 21.294 122.316 20.934 123.986 21.249 125.745 C 21.384 126.602 21.294 127.55 21.204 128.452 C 20.845 131.294 21.069 134.136 20.979 136.934 C 20.979 137.701 20.979 138.513 21.249 139.235 C 21.698 140.498 21.653 141.806 21.519 143.069 C 21.519 143.521 21.429 143.972 21.519 144.423 C 21.608 145.009 21.923 145.235 22.462 145.145 C 24.259 144.829 26.056 145.145 27.853 145.054 C 29.335 144.964 29.47 144.874 29.425 143.52 C 29.335 141.716 29.156 139.911 29.021 138.107 C 28.751 134.543 28.482 130.978 28.796 127.459 C 28.976 125.474 29.245 123.489 29.29 121.459 C 29.29 120.873 29.245 120.286 29.245 119.7 C 29.245 119.474 29.245 119.158 29.515 119.068 C 29.874 118.933 30.144 119.158 30.324 119.429 C 30.773 120.106 30.908 120.873 30.818 121.685 C 30.728 122.632 30.908 123.489 31.581 124.211 C 32.435 125.159 32.525 126.241 32.48 127.459 C 32.435 129.58 32.121 131.745 32.39 133.866 C 32.57 135.445 32.615 136.934 32.39 138.513 C 32.255 139.415 32.345 140.317 32.39 141.22 C 32.39 142.483 31.896 143.43 30.818 144.017 C 30.503 144.197 30.054 144.242 29.919 144.829 L 29.919 144.784 Z M 129.066 91.999 C 129.201 88.886 128.257 85.728 128.437 82.479 C 128.527 80.404 128.437 80.359 126.281 80.449 C 125.787 80.449 125.248 80.449 124.753 80.584 C 121.878 81.487 118.958 81.397 116.038 81.126 C 114.286 80.945 112.534 80.449 110.737 80.314 C 109.614 80.224 108.491 79.863 107.368 80.224 C 107.143 80.269 106.874 80.224 106.604 80.178 C 104.852 79.863 104.852 79.908 104.403 81.577 C 103.909 83.517 103.954 85.547 103.37 87.442 C 102.92 88.931 102.831 90.42 103.1 91.863 C 103.729 95.382 103.864 98.901 103.46 102.42 C 103.19 104.721 103.325 107.067 103.1 109.368 C 102.876 111.353 103.1 113.474 103.1 115.549 C 103.1 117.624 103.055 119.7 103.055 121.775 C 103.055 123.534 102.336 125.204 102.516 126.963 C 102.696 128.948 102.696 130.933 102.247 132.918 C 102.067 133.776 102.022 134.723 101.887 135.625 C 101.528 137.971 101.393 140.362 101.797 142.753 C 102.067 144.242 102.336 144.378 103.819 144.513 C 105.93 144.648 108.087 144.423 110.198 144.513 C 116.892 144.784 123.585 145.506 130.279 145.19 C 131.986 145.1 131.941 145.009 131.762 143.385 C 131.762 143.205 131.672 143.024 131.627 142.799 C 130.863 137.024 130.459 131.249 130.459 125.429 C 130.459 120.782 129.83 116.181 128.797 111.624 C 128.527 110.316 128.392 109.052 128.662 107.789 C 128.842 106.887 128.841 106.03 128.841 105.082 C 128.841 102.375 128.752 99.668 128.976 96.961 C 129.111 95.337 129.201 93.758 129.066 91.999 Z M 78.796 144.603 C 84.008 144.694 89.264 144.693 94.475 144.513 C 96.047 144.513 96.002 144.423 96.137 142.844 C 96.362 140.137 96.272 137.385 96.766 134.723 C 97.26 131.836 97.889 128.993 98.203 126.106 C 98.563 122.587 98.832 119.023 99.012 115.459 C 99.237 110.676 99.012 105.849 99.686 101.112 C 99.821 100.345 99.686 99.578 99.641 98.766 C 99.506 96.194 99.102 93.578 99.551 91.051 C 99.955 88.841 100.09 86.54 100.495 84.329 C 100.899 82.118 100.809 82.118 98.518 82.299 C 98.069 82.299 97.619 82.299 97.17 82.299 C 95.643 82.389 94.115 82.434 92.588 82.524 C 89.848 82.66 87.152 83.427 84.412 83.382 C 82.48 83.382 80.548 83.743 78.662 83.607 C 76.191 83.382 73.675 83.337 71.249 82.795 C 68.778 82.254 68.239 83.337 68.149 85.728 C 68.149 86.404 68.419 87.126 68.329 87.848 C 67.88 92.495 68.149 97.187 67.925 101.834 C 67.88 103.007 67.61 104.225 67.925 105.308 C 68.733 107.924 68.284 110.586 68.464 113.203 C 68.509 114.15 69.093 114.872 69.003 115.82 C 68.868 117.444 68.778 119.068 68.733 120.692 C 68.689 122.587 68.554 124.527 68.733 126.422 C 68.958 128.452 69.452 130.482 69.273 132.557 C 69.138 134.091 68.958 135.625 69.003 137.159 C 69.093 138.964 69.407 140.723 69.003 142.528 C 68.644 144.242 68.823 144.333 70.665 144.378 C 73.361 144.468 76.101 144.513 78.796 144.603 Z M 109.075 16.972 C 109.614 16.385 110.243 16.566 110.782 16.34 C 111.995 15.889 111.995 15.754 111.95 14.355 C 111.95 11.964 111.411 9.573 111.681 7.182 C 111.77 6.415 111.815 5.512 112.714 5.287 C 113.702 5.016 114.151 5.873 114.69 6.505 C 114.78 6.595 114.78 6.731 114.825 6.866 C 115.948 9.077 116.487 11.423 116.532 13.904 C 116.532 15.393 116.622 15.483 118.239 15.528 C 119.902 15.528 121.609 15.618 123.271 15.618 C 124.619 15.618 125.966 15.663 127.314 15.618 C 129.201 15.483 129.695 14.671 129.201 12.821 C 129.111 12.596 128.976 12.37 128.886 12.099 C 128.527 10.25 127.718 8.535 127.539 6.685 C 127.494 6.234 127.359 5.693 127.763 5.422 C 128.257 5.106 128.752 5.422 129.201 5.738 C 129.65 6.054 129.92 6.46 130.054 7.001 C 130.279 7.768 130.504 8.49 131.088 9.077 C 131.402 9.347 131.582 9.844 131.447 10.159 C 130.908 11.874 132.166 13.092 132.57 14.536 C 132.75 15.257 133.154 15.257 133.738 15.167 C 137.781 14.761 141.824 15.167 145.868 15.167 C 147.844 15.167 148.114 14.806 147.35 12.956 C 147.305 12.821 147.17 12.731 147.125 12.641 C 146.586 10.61 145.418 8.761 145.553 6.55 C 145.553 5.964 145.329 5.512 144.745 5.422 C 143.442 5.242 142.049 4.836 140.791 5.016 C 139.354 5.242 137.961 5.242 136.568 5.197 C 134.861 5.197 132.93 5.377 131.492 4.43 C 130.144 3.527 129.111 3.933 127.943 4.43 C 127.584 4.565 127.314 4.971 126.91 4.791 C 125.921 4.339 124.753 4.475 123.855 3.708 C 122.867 2.851 121.294 2.76 120.396 3.121 C 118.958 3.753 117.7 3.708 116.353 3.347 C 114.511 2.851 112.714 3.392 110.872 3.437 C 108.671 3.437 106.559 4.565 104.268 4.204 C 103.145 4.971 101.797 4.881 100.539 4.971 C 99.866 5.016 99.237 5.332 98.967 5.918 C 98.159 7.723 97.619 9.528 98.743 11.423 C 99.461 12.641 100 13.949 100.584 15.257 C 101.213 16.746 101.168 16.746 102.786 16.701 C 103.774 16.701 104.717 16.701 105.706 16.701 C 106.604 16.701 106.649 17.197 106.469 17.829 C 106.2 18.686 105.661 18.821 104.178 18.461 C 102.426 18.054 101.393 18.731 100.989 20.401 C 100.719 21.438 100.674 22.431 100.719 23.468 C 100.719 24.19 100.539 24.957 100.989 25.544 C 101.483 26.175 102.202 25.544 102.786 25.634 C 105.661 25.859 108.536 25.995 111.411 26.085 C 113.073 26.13 113.163 26.085 113.028 24.326 C 112.894 22.34 112.624 20.355 112.399 18.37 C 112.265 17.062 112.175 17.017 110.782 17.378 C 110.153 17.558 109.524 17.784 109.03 16.927 L 109.075 16.972 Z M 170.845 37.364 C 172.238 37.409 174.035 37.815 175.742 38.582 C 176.101 38.763 176.416 39.078 176.281 39.529 C 176.191 39.845 175.877 40.116 175.562 40.116 C 174.529 40.026 173.72 40.522 172.822 40.838 C 172.418 40.973 172.013 41.154 171.519 40.973 C 170.441 40.657 169.318 40.838 168.24 40.702 C 166.892 40.522 165.454 40.883 164.152 39.981 C 163.298 39.394 162.759 40.026 162.894 41.199 C 163.208 43.545 164.511 45.53 164.915 47.831 C 165.095 48.778 165.454 49.635 165.185 50.628 C 164.96 51.666 165.185 51.981 166.263 51.846 C 167.701 51.665 169.138 51.53 170.531 51.801 C 172.867 52.252 175.113 52.072 177.404 51.53 C 180.549 50.808 183.693 51.395 186.838 51.53 C 187.916 51.575 189.039 51.53 190.118 51.44 C 190.791 51.395 190.971 51.034 190.657 50.357 C 190.207 49.274 189.668 48.237 188.815 47.425 C 187.153 45.846 186.03 43.815 184.457 42.191 C 184.277 42.011 184.098 41.785 184.008 41.56 C 183.334 39.529 181.672 38.131 180.684 36.236 C 179.785 34.477 178.213 33.033 177.494 31.093 C 177.404 30.822 177.135 30.506 176.865 30.371 C 175.652 29.739 175.023 28.657 174.484 27.439 C 174.125 26.672 173.541 26.04 172.867 25.544 C 172.373 25.183 172.058 24.777 172.013 24.1 C 171.834 21.619 169.722 20.31 168.464 18.461 C 168.33 18.28 168.015 18.145 167.79 18.19 C 165.949 18.37 164.062 17.062 162.22 18.235 C 161.86 18.461 161.636 18.19 161.366 17.964 C 160.603 17.378 159.659 17.017 158.851 17.378 C 157.907 17.739 156.964 18.055 156.02 18.37 C 155.032 18.686 154.763 19.182 155.122 20.085 C 155.796 21.664 156.559 23.243 156.964 24.957 C 157.144 25.679 157.638 26.04 158.401 25.95 C 162.579 25.544 166.712 26.175 170.89 26.491 C 171.339 26.491 171.789 26.626 172.193 26.807 C 173.226 27.213 173.361 28.07 172.463 28.657 C 171.789 29.108 170.98 29.333 170.171 28.972 C 169.453 28.657 168.689 28.296 167.97 28.431 C 165.634 28.927 163.253 28.837 160.917 29.153 C 160.108 29.243 159.255 30.281 159.524 31.138 C 160.019 32.943 160.423 34.792 161.097 36.507 C 161.366 37.138 161.726 37.274 162.4 37.364 C 165.05 37.725 167.656 37.544 170.8 37.454 L 170.845 37.364 Z M 89.219 26.717 C 89.353 26.491 89.623 26.401 89.848 26.356 C 91.51 25.95 93.172 26.13 94.834 26.04 C 96.182 25.95 96.407 25.859 96.586 24.506 C 96.766 23.243 96.856 21.934 97.035 20.671 C 97.17 19.543 96.317 18.325 95.238 18.596 C 93.891 18.957 92.633 18.821 91.33 18.821 C 89.533 18.821 87.871 19.453 86.074 19.363 C 83.334 19.182 81.806 20.671 81.671 23.92 C 81.671 24.551 81.537 25.228 81.492 25.859 C 81.357 27.213 80.593 28.476 80.459 29.739 C 80.099 32.446 79.246 35.018 79.111 37.725 C 79.066 38.763 79.111 38.943 80.189 38.988 C 82.256 39.033 84.322 39.123 86.388 38.853 C 87.871 38.672 89.353 38.808 90.836 38.853 C 91.465 38.853 91.689 39.394 91.914 39.845 C 92.094 40.251 91.779 40.522 91.465 40.793 C 90.447 41.785 89.338 41.951 88.141 41.289 C 88.096 41.289 88.006 41.289 87.916 41.199 C 87.422 41.966 86.658 42.281 85.804 42.281 C 84.008 42.327 82.211 43.229 80.369 42.372 C 79.875 42.146 78.976 42.191 78.976 42.958 C 78.976 44.582 77.943 45.846 77.808 47.425 C 77.718 48.462 77.538 49.455 77.538 50.492 C 77.538 51.53 76.775 52.387 76.73 53.425 C 77.449 53.786 78.167 53.696 78.886 53.696 C 80.054 53.696 81.222 53.515 82.345 53.605 C 86.838 53.876 91.33 54.282 95.867 53.741 C 97.215 53.56 97.26 53.651 97.26 52.297 C 97.26 50.086 97.26 47.876 97.35 45.665 C 97.44 43.77 97.125 41.921 96.676 40.116 C 96.496 39.484 96.496 38.943 96.676 38.266 C 97.08 36.913 97.08 35.424 96.901 34.025 C 96.766 32.988 96.676 31.995 96.721 30.912 C 96.766 29.333 96.631 29.063 95.059 28.972 C 92.902 28.792 90.836 28.566 89.309 26.672 L 89.219 26.717 Z M 152.471 37.499 C 153.774 37.499 154.583 37.589 155.436 37.589 C 156.649 37.589 156.649 37.454 156.649 36.236 C 156.649 33.394 155.302 31.093 153.954 28.747 C 153.684 28.296 153.28 28.205 152.786 28.341 C 150.989 28.837 149.147 28.972 147.35 29.424 C 145.553 29.875 144.116 29.514 142.813 28.657 C 141.465 27.754 140.072 27.709 138.59 27.799 C 136.523 27.935 136.074 28.566 136.703 30.551 C 137.242 32.266 138.051 33.89 138.275 35.695 C 138.455 37.003 139.129 37.274 140.746 37.048 C 142.813 36.777 144.879 37.003 146.901 37.138 C 147.844 37.229 148.922 37.138 149.866 37.589 C 148.922 39.89 148.338 40.206 146.452 39.259 C 146.227 39.123 146.002 38.898 145.778 39.033 C 144.43 39.665 143.037 39.304 141.69 39.078 C 140.656 38.943 140.072 39.439 140.207 40.477 C 140.297 41.56 140.387 42.642 140.926 43.635 C 141.285 44.267 141.6 44.988 141.645 45.846 C 141.645 47.289 142.408 48.553 142.948 49.861 C 143.262 50.718 143.801 50.989 144.7 50.899 C 147.081 50.718 149.417 51.034 151.798 51.35 C 154.718 51.711 157.683 51.981 160.648 52.207 C 161.95 52.297 162.04 52.207 161.636 50.899 C 160.468 47.109 159.21 43.364 157.997 39.575 C 157.862 39.169 157.593 38.853 157.233 38.808 C 156.425 38.672 155.526 38.311 154.807 38.762 C 153.55 39.484 153.325 38.582 152.561 37.544 L 152.471 37.499 Z M 38.949 31.589 C 37.287 30.506 35.49 29.92 33.648 30.281 C 31.716 30.687 29.829 30.551 27.943 30.416 C 26.954 30.371 26.37 30.461 25.876 31.318 C 24.843 32.988 23.855 34.702 22.642 36.236 C 20.935 38.447 19.452 40.793 17.925 43.139 C 17.296 44.131 16.757 45.394 15.499 45.755 C 13.612 46.342 12.848 47.831 12.264 49.5 C 12.174 49.771 12.174 50.132 11.95 50.357 C 10.737 51.395 10.512 53.199 9.12 54.102 C 8.401 54.553 8.536 55.41 8.76 56.042 C 9.03 56.764 9.748 56.403 10.288 56.312 C 13.567 55.906 16.891 55.591 20.171 55.049 C 21.968 54.733 23.72 54.643 25.517 54.463 C 26.325 54.372 27.134 54.237 27.583 53.335 C 28.931 50.493 30.368 47.695 31.806 44.898 C 31.941 44.673 31.986 44.402 31.716 44.267 C 31.581 44.221 31.312 44.267 31.177 44.357 C 29.695 45.665 27.943 44.988 26.325 45.034 C 26.056 45.034 25.786 44.943 25.651 44.718 C 25.247 43.996 24.483 43.906 23.855 43.77 C 23.181 43.635 22.821 43.094 22.237 42.823 C 21.519 42.462 21.698 42.011 22.327 41.785 C 23.046 41.515 23.765 41.379 24.573 41.334 C 27.269 41.199 29.964 41.063 32.66 41.109 C 33.333 41.109 33.917 40.973 34.277 40.296 C 35.849 37.409 37.422 34.567 38.994 31.634 L 38.949 31.589 Z M 76.64 80.314 C 77.044 80.404 77.269 80.494 77.538 80.494 C 79.695 80.765 81.761 80.178 83.783 79.637 C 84.771 79.366 85.939 79.457 86.344 78.329 C 86.703 77.291 87.332 76.253 87.017 75.171 C 86.748 74.178 86.838 73.231 86.838 72.283 C 86.748 68.494 87.691 64.839 87.646 61.049 C 87.646 60.328 88.096 59.967 88.68 59.831 C 89.039 59.741 89.623 59.831 89.443 60.373 C 89.174 61.185 89.488 61.546 90.117 61.907 C 90.701 62.223 90.701 62.854 90.701 63.441 C 90.611 65.696 90.477 67.952 90.432 70.208 C 90.432 71.832 90.117 73.321 88.5 74.178 C 87.961 74.449 87.961 74.855 88.365 75.261 C 88.904 75.802 89.398 76.344 89.443 77.246 C 89.533 78.69 89.578 78.69 91.016 78.599 C 92.858 78.464 94.699 78.013 96.586 78.284 C 97.485 78.419 97.799 77.832 97.53 76.659 C 96.586 72.193 96.631 67.681 96.901 63.125 C 96.901 62.629 97.08 61.952 96.856 61.591 C 95.957 60.418 96.227 59.155 96.182 57.846 C 96.182 56.583 95.822 56.177 94.565 56.222 C 92.453 56.312 90.387 56.673 88.59 57.846 C 88.006 58.207 87.601 58.343 87.197 57.621 C 86.793 56.854 86.209 56.899 85.4 57.079 C 83.603 57.531 81.896 58.478 79.919 58.252 C 79.156 58.162 78.662 58.613 78.617 59.561 C 78.572 60.824 78.796 62.177 78.212 63.441 C 79.335 63.756 80.234 64.298 80.009 65.561 C 79.38 69.125 79.47 72.779 79.156 76.389 C 79.066 77.291 78.796 78.013 77.988 78.464 C 77.314 78.825 76.82 79.276 76.685 80.224 L 76.64 80.314 Z M 74.843 20.085 C 73.136 20.13 71.609 19.814 70.665 18.235 C 70.485 17.919 70.081 17.784 69.767 17.513 C 69.452 17.242 68.778 17.152 69.093 16.566 C 69.273 16.25 69.677 16.115 70.081 16.16 C 72.507 16.34 74.978 15.979 77.404 16.069 C 78.302 16.069 78.662 15.934 78.886 15.032 C 79.38 13.047 79.919 11.062 80.503 9.077 C 81.357 6.099 81.402 6.099 78.347 6.37 C 75.517 6.595 72.732 6.731 69.901 6.144 C 69.183 6.009 68.733 6.279 68.599 6.956 C 68.464 7.678 68.104 8.219 67.655 8.806 C 67.026 9.618 66.263 10.43 67.116 11.648 C 67.431 12.099 67.296 12.821 67.026 13.363 C 66.712 13.994 66.577 14.761 66.263 15.302 C 65.409 16.746 65.499 18.776 63.837 19.769 C 63.522 19.949 63.343 20.446 63.432 20.807 C 63.882 22.386 63.253 23.829 62.983 25.363 C 62.669 26.897 62.848 27.078 64.421 26.897 C 67.925 26.491 71.474 26.897 75.023 26.536 C 76.999 26.356 77.044 26.536 77.404 24.461 C 77.404 24.28 77.494 24.1 77.538 23.874 C 78.078 19.814 78.033 20.265 74.843 20.175 L 74.843 20.085 Z M 130.054 51.666 C 132.66 51.666 135.445 51.485 138.186 51.214 C 139.983 51.034 140.072 50.944 139.578 49.274 C 139.444 48.823 139.264 48.462 138.994 48.056 C 137.826 46.252 137.242 44.176 136.703 42.146 C 136.074 39.845 134.367 38.988 132.121 39.8 C 131.178 40.161 130.144 40.522 129.111 40.116 C 127.673 39.529 126.011 40.206 124.619 39.349 C 124.439 39.214 123.99 39.394 123.72 39.529 C 123.181 39.8 122.687 39.845 122.058 39.8 C 120.441 39.71 119.542 40.748 119.767 42.327 C 119.857 42.913 119.857 43.5 119.812 44.086 C 119.677 46.026 119.992 48.011 120.306 49.861 C 120.8 52.523 120.755 52.252 123.136 52.072 C 125.382 51.891 127.629 51.395 130.054 51.666 Z M 74.124 44.763 C 74.214 42.778 74.124 42.778 72.237 42.823 C 70.665 42.823 69.048 42.913 67.52 42.688 C 66.622 42.552 66.128 43.274 65.319 43.094 C 62.669 42.552 60.063 42.597 57.413 43.274 C 57.188 43.319 56.918 43.274 56.649 43.319 C 55.256 43.455 54.942 43.77 55.256 45.124 C 55.481 46.161 55.391 47.019 54.762 47.876 C 54.493 48.282 54.223 48.823 54.223 49.274 C 54.223 50.447 53.729 51.35 53.145 52.297 C 52.651 53.064 52.83 53.38 53.684 53.425 C 55.346 53.515 57.008 53.515 58.626 54.012 C 59.389 54.237 60.108 54.147 60.917 54.102 C 63.163 53.966 65.409 53.605 67.655 53.831 C 68.823 53.966 69.946 53.696 71.114 53.56 C 72.237 53.47 72.732 52.974 72.777 51.846 C 72.777 50.402 73.226 49.049 73.54 47.65 C 73.765 46.658 74.169 45.665 74.124 44.718 L 74.124 44.763 Z M 107.233 53.335 C 109.389 53.696 111.726 53.425 114.106 53.245 C 115.814 53.109 115.903 53.109 115.724 51.44 C 115.364 48.282 115.095 45.124 115.185 41.966 C 115.185 41.109 114.87 40.748 113.927 40.612 C 110.602 40.251 107.323 40.928 104.044 41.334 C 103.28 41.424 102.561 41.515 101.752 41.469 C 98.787 41.334 98.024 42.191 98.653 45.259 C 99.057 47.244 99.911 49.274 99.102 51.485 C 98.698 52.568 99.192 53.109 100.45 53.245 C 102.606 53.47 104.807 53.29 107.188 53.335 L 107.233 53.335 Z M 41.15 53.876 C 44.025 53.876 46.9 53.29 49.776 53.605 C 50.539 53.696 51.033 53.29 51.213 52.613 C 51.438 51.936 51.573 51.259 51.752 50.538 C 52.157 48.643 52.471 46.748 52.92 44.853 C 53.325 43.184 52.83 42.507 51.123 42.688 C 50.764 42.688 50.405 42.958 50 43.003 C 48.922 43.184 47.979 43.861 46.856 43.77 C 44.115 43.545 41.33 43.906 38.59 43.906 C 37.736 43.906 37.197 44.131 36.613 44.808 C 35.625 45.981 35.085 47.334 34.591 48.733 C 34.277 49.68 33.648 50.402 33.244 51.259 C 32.48 52.748 32.974 53.56 34.591 53.605 C 36.793 53.696 38.949 53.741 41.15 53.786 L 41.15 53.876 Z M 38.949 40.928 C 39.578 40.928 40.117 40.928 40.611 40.973 C 42.812 40.973 44.969 40.612 47.17 40.793 C 48.248 40.883 49.371 40.973 50.405 40.522 C 51.258 40.116 52.157 40.026 53.055 40.116 C 54.133 40.251 54.627 39.89 54.942 38.762 C 55.616 36.146 56.2 33.529 57.233 31.003 C 57.637 30.01 57.368 29.559 56.245 29.424 C 54.582 29.198 52.92 29.514 51.303 29.875 C 49.237 30.281 47.305 31.138 45.148 31.048 C 44.699 31.048 44.115 31.228 43.666 31.77 C 42.318 33.484 41.105 35.334 40.117 37.229 C 39.578 38.266 38.679 39.394 38.949 40.928 Z M 57.547 39.394 C 59.659 40.071 61.635 39.665 63.567 39.304 C 65.858 38.898 68.194 38.853 70.485 39.304 C 71.429 39.484 72.417 39.394 73.361 39.484 C 74.034 39.529 74.214 39.169 74.349 38.582 C 74.708 36.823 75.113 35.063 75.517 33.304 C 75.697 32.627 75.876 31.95 76.056 31.228 C 76.281 30.506 76.101 30.055 75.292 29.739 C 73.63 29.153 71.878 29.333 70.171 29.063 C 69.901 29.063 69.542 29.243 69.273 29.424 C 68.329 30.055 67.431 30.1 66.352 29.739 C 64.645 29.153 63.028 29.965 61.546 30.687 C 60.467 31.183 60.737 32.627 60.288 33.574 C 60.243 33.71 60.288 33.845 60.288 33.98 C 59.973 34.973 59.749 36.01 58.985 36.913 C 58.401 37.589 57.637 38.311 57.502 39.484 L 57.547 39.394 Z M 134.996 35.92 C 135.131 35.559 134.996 35.244 134.861 34.973 C 134.187 33.349 134.053 31.634 133.244 30.055 C 132.525 28.612 132.66 28.566 131.088 28.657 C 129.291 28.792 127.404 28.972 125.697 28.566 C 123.855 28.16 121.744 28.657 120.171 27.123 C 120.171 27.123 120.036 27.078 119.991 27.078 C 118.913 26.852 118.284 27.529 118.419 28.657 C 118.689 30.958 119.497 33.168 119.452 35.514 C 119.452 36.281 119.902 36.552 120.665 36.687 C 122.372 36.958 124.124 36.687 125.832 36.777 C 128.662 36.913 131.447 36.642 134.277 36.913 C 135.086 37.003 135.086 36.462 135.086 35.965 L 134.996 35.92 Z M 134.143 20.581 C 134.322 21.709 134.322 23.288 134.771 24.867 C 134.906 25.363 135.131 25.589 135.625 25.724 C 137.647 26.13 139.713 26.626 141.735 26.13 C 144.879 25.453 147.979 25.769 151.124 25.995 C 152.382 26.085 152.696 25.814 152.382 24.641 C 151.753 22.386 150.63 20.355 149.641 18.28 C 149.372 17.649 149.012 17.423 148.204 17.964 C 147.081 18.731 145.733 19.228 144.25 18.551 C 143.487 18.235 142.543 18.235 141.6 18.325 C 140.072 18.461 138.5 18.325 137.107 19.092 C 136.523 19.408 136.119 18.912 135.625 18.867 C 134.143 18.641 134.143 18.596 134.053 20.581 L 134.143 20.581 Z M 89.982 16.295 C 91.914 16.16 93.846 16.385 95.778 16.25 C 96.946 16.16 97.08 16.115 96.901 14.942 C 96.541 12.19 95.733 9.528 95.733 6.776 C 95.733 6.279 95.418 6.009 95.014 6.099 C 93.576 6.46 92.274 5.738 90.836 5.738 C 89.039 5.738 87.287 6.279 85.49 6.099 C 84.861 6.054 84.636 6.55 84.816 7.001 C 85.131 7.768 85.041 8.49 84.816 9.257 C 84.367 10.926 83.963 12.596 83.513 14.265 C 83.064 15.934 83.244 16.205 84.951 16.205 C 86.613 16.205 88.275 16.295 89.937 16.34 L 89.982 16.295 Z M 99.237 34.296 C 99.057 35.018 99.237 35.65 99.327 36.281 C 99.641 38.402 99.866 38.086 101.573 37.77 C 104.044 37.364 106.469 36.958 108.985 36.958 C 110.288 36.958 111.546 37.003 112.849 37.003 C 114.421 37.003 114.915 36.597 114.735 35.063 C 114.511 33.033 114.106 31.003 113.433 29.063 C 113.208 28.386 112.849 28.025 112.13 28.431 C 111.097 28.972 109.974 28.927 108.895 28.792 C 107.458 28.612 106.065 28.792 104.717 29.063 C 103.549 29.288 102.426 29.378 101.348 29.018 C 100.45 28.702 100.09 29.153 100.18 29.92 C 100.27 30.732 100.09 31.454 99.731 32.131 C 99.327 32.852 99.237 33.574 99.237 34.251 L 99.237 34.296 Z M 164.017 14.49 C 164.646 14.49 164.87 14.49 165.14 14.49 C 166.488 14.581 166.712 14.4 166.533 13.137 C 166.398 11.874 165.724 10.836 165.14 9.753 C 164.646 8.851 164.241 7.813 163.478 7.182 C 162.759 6.55 161.546 6.821 160.692 6.415 C 159.929 6.054 159.165 5.873 158.491 6.189 C 157.278 6.776 155.975 6.46 154.763 6.685 C 153.864 6.866 152.741 6.776 152.022 6.099 C 151.393 5.512 150.764 5.603 150.27 5.873 C 149.596 6.279 150.001 7.001 150.135 7.633 C 150.585 9.843 151.618 11.829 152.561 13.859 C 152.876 14.49 153.325 14.942 154.179 14.987 C 155.571 15.077 157.009 15.212 158.401 14.896 C 160.378 14.445 162.355 14.626 163.972 14.445 L 164.017 14.49 Z M 30.503 26.401 C 30.773 26.491 30.953 26.536 31.132 26.581 C 34.412 26.717 37.691 26.852 40.971 26.987 C 41.599 26.987 41.914 26.672 42.139 26.175 C 43.172 24.235 44.295 22.341 45.508 20.536 C 45.688 20.265 45.867 19.994 45.957 19.679 C 46.227 18.867 45.777 18.28 45.014 18.506 C 43.082 19.137 41.195 18.641 39.263 18.686 C 38.5 18.686 37.691 18.686 37.107 18.055 C 36.433 17.378 35.804 17.603 35.085 18.055 C 34.007 18.822 33.423 19.949 32.615 20.897 C 31.267 22.566 31.087 24.506 30.458 26.401 L 30.503 26.401 Z M 61.096 19.182 C 60.018 18.731 58.985 18.596 58.086 18.912 C 56.2 19.588 54.313 19.453 52.426 19.273 C 51.483 19.182 50.449 19.363 50.18 20.355 C 49.776 21.889 48.608 22.837 47.799 24.055 C 47.529 24.506 47.17 24.867 47.035 25.408 C 46.631 26.762 46.766 27.032 48.113 27.213 C 51.303 27.664 54.538 27.529 57.727 27.078 C 58.131 27.033 58.446 26.897 58.581 26.446 C 59.344 24.055 60.512 21.799 61.141 19.228 L 61.096 19.182 Z M 119.363 25.589 C 121.294 25.544 123.226 25.408 125.158 25.273 C 127.089 25.138 129.021 25.228 130.953 25.228 C 131.806 25.228 131.851 24.867 131.851 24.145 C 131.762 22.566 131.133 21.122 130.863 19.588 C 130.773 19.092 130.324 18.957 129.83 18.912 C 127.898 18.821 125.966 18.731 124.08 19.182 C 122.956 19.408 121.833 19.588 120.665 19.182 C 119.991 19.002 119.183 19.092 118.464 19.182 C 117.745 19.273 117.251 19.679 117.476 20.536 C 117.79 21.664 117.7 22.837 117.745 24.01 C 117.805 25.002 118.359 25.514 119.407 25.544 L 119.363 25.589 Z M 65.274 7.137 C 64.511 6.731 63.747 6.595 62.848 6.776 C 61.276 7.091 59.749 7.633 58.131 7.227 C 57.637 7.091 57.278 7.452 56.963 7.768 C 55.346 9.347 54.582 11.423 53.684 13.363 C 53.504 13.769 53.549 14.265 53.549 14.716 C 53.549 15.257 53.729 15.618 54.313 15.618 C 56.559 15.618 58.76 16.115 61.007 16.25 C 61.725 16.25 62.175 16.205 62.489 15.438 C 63.567 12.731 64.556 10.024 65.319 7.182 L 65.274 7.137 Z M 38.455 15.438 C 38.859 15.528 39.129 15.618 39.353 15.573 C 41.24 15.122 43.172 15.212 45.104 15.257 C 47.979 15.348 47.979 15.348 49.147 12.776 C 49.776 11.423 50.449 10.114 50.989 8.761 C 51.438 7.588 51.168 7.182 49.955 7.182 C 49.551 7.182 49.192 7.182 48.787 7.227 C 47.305 7.543 45.867 7.723 44.295 7.633 C 42.498 7.497 42.543 7.723 41.42 9.167 C 39.982 11.017 39.847 13.453 38.41 15.438 L 38.455 15.438 Z" fill="currentColor" fill-rule="nonzero"></path>
  <path d="M 142.633 115.82 C 142.723 113.383 142.723 111.128 142.813 108.917 C 142.903 106.571 142.813 104.27 142.408 101.969 C 142.094 100.165 142.498 98.36 142.498 96.555 C 142.498 92.991 142.229 89.472 142.049 85.908 C 141.869 82.976 141.959 80.088 142.364 77.201 C 142.588 75.712 142.588 74.223 142.633 72.734 C 142.633 71.922 142.992 71.606 143.801 71.561 C 144.7 71.561 144.61 72.058 144.745 72.689 C 145.329 75.847 145.014 79.005 144.7 82.118 C 144.52 83.833 143.621 85.502 144.295 87.307 C 143.666 88.525 144.116 90.014 143.262 91.187 C 142.813 91.773 142.948 92.495 143.442 92.991 C 144.25 93.803 144.295 94.57 144.071 95.743 C 143.711 97.322 143.621 98.946 143.217 100.48 C 143.037 101.112 143.307 101.744 143.666 102.33 C 144.205 103.187 145.149 104.135 145.104 104.992 C 145.104 106.796 145.868 108.511 145.733 110.225 C 145.643 111.714 145.643 113.293 144.475 114.556 C 144.026 115.007 143.711 115.594 142.588 115.82 L 142.633 115.82 Z" fill="currentColor" fill-rule="nonzero"></path>
  <path d="M 155.571 84.69 C 155.526 81.667 156.065 78.645 155.796 75.622 C 155.391 70.93 156.47 66.328 156.2 61.681 C 156.155 60.689 157.413 59.2 158.401 59.064 C 159.075 58.974 159.614 59.019 159.839 59.922 C 160.198 61.365 159.749 62.899 160.378 64.343 C 160.558 64.749 160.019 65.11 159.659 65.426 C 158.94 66.102 158.806 66.915 158.626 67.862 C 158.177 69.982 158.896 72.103 158.626 74.223 C 158.536 74.945 158.985 75.441 159.345 75.983 C 160.692 77.968 160.423 80.088 158.536 81.622 C 157.548 82.434 156.604 83.291 156.2 84.6 C 156.2 84.735 155.931 84.825 155.751 84.916 C 155.751 84.916 155.616 84.916 155.481 84.825 L 155.571 84.69 Z" fill="currentColor" fill-rule="nonzero"></path>
  <path d="M 170.082 107.609 C 169.722 105.804 169.812 104.135 169.812 102.465 C 169.812 99.939 170.126 97.458 169.812 94.931 C 169.677 94.119 169.812 93.262 169.857 92.405 C 169.857 91.908 169.632 91.277 170.261 91.051 C 170.98 90.781 171.654 90.961 172.238 91.502 C 172.912 92.134 172.957 92.946 172.957 93.803 C 172.957 96.961 172.912 100.074 173.226 103.232 C 173.451 105.398 172.867 106.3 170.082 107.609 Z" fill="currentColor" fill-rule="nonzero"></path>
  <path d="M 52.067 99.082 C 51.483 97.277 51.438 95.879 51.393 94.48 C 51.393 92.134 51.573 89.833 51.393 87.487 C 51.303 86.359 51.438 85.186 51.932 84.058 C 52.246 83.291 52.426 82.434 52.426 81.622 C 52.426 79.186 52.875 76.795 52.785 74.313 C 52.651 70.524 52.92 66.689 52.92 62.899 C 52.92 61.997 53.37 61.456 53.998 60.959 C 54.448 60.598 55.032 60.734 55.481 60.959 C 56.02 61.185 56.155 61.771 56.02 62.268 C 55.661 63.305 55.211 64.298 55.975 65.381 C 56.155 65.651 55.84 66.012 55.661 66.238 C 54.987 67.23 55.032 68.223 55.661 69.17 C 56.424 70.343 56.424 71.607 56.29 72.915 C 56.29 73.321 56.11 73.727 56.2 74.088 C 56.604 75.306 56.334 76.298 55.571 77.336 C 54.897 78.284 55.122 79.457 55.301 80.539 C 55.706 82.75 55.301 84.916 55.391 87.126 C 55.391 87.532 55.301 87.893 55.077 88.254 C 54.672 88.886 54.672 89.517 54.852 90.284 C 55.122 91.322 55.077 92.36 53.998 93.036 C 53.549 93.307 53.1 93.848 53.369 94.345 C 54.268 96.194 52.965 97.367 52.067 99.172 L 52.067 99.082 Z" fill="currentColor" fill-rule="nonzero"></path>
  <path d="M 64.825 78.193 C 64.331 77.562 64.286 76.795 64.331 76.028 C 64.421 74.404 64.331 72.78 64.645 71.2 C 64.96 69.802 64.331 68.403 64.78 66.96 C 65.364 65.065 65.993 63.125 65.948 61.095 C 65.948 60.824 66.173 60.598 66.442 60.553 C 66.712 60.553 66.937 60.734 66.937 61.004 C 66.937 61.816 67.341 62.268 67.88 62.809 C 68.554 63.486 68.823 64.433 68.823 65.29 C 68.868 67.14 69.138 69.035 68.823 70.885 C 68.689 71.742 68.823 72.554 68.913 73.366 C 69.138 75.261 68.733 75.893 67.071 76.705 C 66.667 76.885 66.218 77.066 65.903 77.381 C 65.589 77.652 65.454 78.193 64.825 78.103 L 64.825 78.193 Z" fill="currentColor" fill-rule="nonzero"></path>
  <path d="M 29.2 114.556 C 28.706 111.579 29.47 108.737 29.2 105.894 C 28.886 102.15 29.021 98.405 29.021 94.66 C 29.021 93.984 28.841 93.217 29.335 92.585 C 29.605 92.224 29.964 92.044 30.234 92.585 C 31.267 94.39 32.255 96.24 32.165 98.36 C 32.121 99.533 32.3 100.706 31.941 101.834 C 31.806 102.24 31.806 102.601 31.941 102.962 C 32.435 104.045 32.435 105.037 31.626 106.03 C 31.312 106.436 31.447 107.022 31.581 107.518 C 32.255 110.18 31.492 112.436 29.56 114.331 C 29.47 114.421 29.335 114.421 29.156 114.556 L 29.2 114.556 Z" fill="currentColor" fill-rule="nonzero"></path>
  <path d="M 118.958 92.585 C 120.575 93.578 121.339 94.57 121.294 96.24 C 121.294 97.142 121.384 98.044 121.384 98.946 C 121.384 100.36 122.103 101.202 123.54 101.473 C 122.642 102.691 121.249 103.548 121.564 105.353 C 121.788 106.797 121.699 108.33 123.406 108.872 C 123.316 109.323 123.091 109.594 122.867 109.774 C 122.013 110.496 121.699 111.398 121.788 112.526 C 121.878 113.744 121.654 115.008 121.878 116.226 C 122.193 117.895 122.058 119.564 122.238 121.233 C 122.597 124.437 122.597 127.64 122.148 130.843 C 121.968 132.016 121.654 133.099 121.025 134.136 C 120.755 134.542 120.665 135.219 119.991 135.129 C 119.407 135.039 119.003 134.543 118.913 133.911 C 118.689 132.377 118.509 130.843 118.374 129.309 C 118.239 127.911 118.105 126.512 117.97 125.068 C 117.7 125.068 117.476 124.978 117.341 125.023 C 115.769 125.565 114.241 125.655 112.624 125.204 C 111.366 124.843 111.186 125.023 111.097 126.332 C 111.097 127.098 111.097 127.911 111.097 128.678 C 111.097 130.347 110.737 131.971 109.12 133.279 C 108.716 131.745 109.3 130.347 109.12 128.993 C 108.716 126.377 108.671 123.715 108.266 121.098 C 108.042 119.835 107.053 119.158 106.829 117.985 C 106.649 117.128 106.11 116.406 107.368 116.045 C 107.772 115.91 107.907 115.459 107.907 115.098 C 107.907 112.842 108.761 110.631 107.907 108.376 C 107.862 108.195 107.727 107.97 107.772 107.834 C 109.075 105.849 108.356 103.548 108.626 101.428 C 108.94 99.082 109.524 96.736 109.749 94.345 C 109.839 93.623 110.198 92.721 110.962 92.179 C 111.141 92.314 111.366 92.405 111.411 92.54 C 112.175 94.796 113.792 96.781 114.062 99.217 C 114.241 100.525 114.241 100.525 115.589 100.571 C 115.858 100.571 116.083 100.571 116.353 100.616 C 118.599 100.932 118.644 100.932 118.689 98.721 C 118.689 96.781 119.318 94.886 119.003 92.675 L 118.958 92.585 Z M 113.073 116.541 C 114.196 116.812 115.274 116.541 116.353 116.541 C 116.982 116.541 117.476 116.271 117.521 115.549 C 117.566 114.331 117.655 113.113 118.015 111.94 C 118.105 111.579 118.015 111.128 117.521 111.082 C 116.353 110.992 115.23 111.263 114.106 111.443 C 113.792 111.489 113.702 111.895 113.657 112.21 C 113.478 113.654 113.298 115.098 113.118 116.541 L 113.073 116.541 Z M 118.239 105.714 C 118.239 105.714 118.239 105.714 118.195 105.714 C 118.195 105.263 118.195 104.811 118.195 104.36 C 118.195 104.09 118.195 103.774 117.88 103.729 C 116.667 103.503 115.499 103.819 114.286 103.909 C 114.196 103.909 114.062 104.09 114.062 104.18 C 113.927 105.082 113.792 105.984 114.062 106.842 C 114.331 107.654 115.14 107.293 115.724 107.428 C 116.083 107.518 116.487 107.564 116.847 107.609 C 118.06 107.789 118.105 107.789 118.195 106.481 C 118.195 106.21 118.195 105.984 118.195 105.714 L 118.239 105.714 Z M 117.655 122.722 C 117.655 122.316 117.745 122.091 117.745 121.82 C 117.745 120.331 117.745 120.331 116.263 120.241 C 115.319 120.151 114.466 120.512 113.567 120.557 C 112.085 120.647 111.77 121.098 111.546 122.948 C 113.522 122.903 115.499 122.813 117.655 122.767 L 117.655 122.722 Z" fill="currentColor" fill-rule="nonzero"></path>
  <path d="M 75.831 90.329 C 76.73 91.051 76.955 91.863 76.955 92.946 C 76.955 94.796 77.179 94.931 79.066 95.112 C 81.222 95.292 83.468 94.841 85.625 95.473 C 86.119 95.608 86.748 95.337 87.332 95.337 C 87.961 95.337 88.185 94.976 88.275 94.39 C 88.41 93.533 88.5 92.63 89.264 91.457 C 89.264 92.495 89.264 93.081 89.354 93.668 C 89.443 95.066 89.578 95.202 90.926 95.382 C 90.971 95.382 91.061 95.382 91.106 95.382 C 91.734 95.563 92.633 95.337 92.813 96.285 C 92.947 96.961 92.318 97.593 91.24 97.954 C 90.656 98.134 89.893 97.819 89.533 98.585 C 89.174 99.307 89.264 100.119 89.354 100.886 C 89.488 102.014 89.758 102.24 90.971 102.195 C 91.779 102.195 92.498 102.51 93.172 102.781 C 93.666 103.007 94.205 103.323 94.115 104.09 C 94.026 104.811 93.531 105.082 92.947 105.217 C 92.184 105.398 91.42 105.533 90.656 105.623 C 90.162 105.669 89.713 105.804 89.533 106.255 C 89.219 107.112 89.264 108.06 89.264 108.962 C 89.264 109.819 89.398 110.586 90.342 111.037 C 91.061 111.353 90.971 112.03 90.342 112.391 C 89.443 112.932 89.398 113.699 89.578 114.601 C 89.848 116.271 89.758 117.94 90.207 119.609 C 90.477 120.602 90.881 121.279 92.004 121.233 C 92.408 121.233 92.768 121.324 93.127 121.459 C 93.486 121.594 93.981 121.685 93.936 122.136 C 93.936 122.587 93.576 122.948 93.082 123.083 C 92.947 123.083 92.813 123.083 92.678 123.128 C 90.971 123.444 90.971 123.444 90.791 125.068 C 90.656 126.331 90.656 127.64 89.982 128.813 C 89.713 129.264 89.982 129.715 90.566 129.76 C 91.33 129.76 92.094 129.76 92.902 129.76 C 93.172 129.76 93.442 129.76 93.531 130.076 C 93.621 130.347 93.531 130.572 93.352 130.798 C 92.768 131.475 92.004 131.79 91.195 132.016 C 89.578 132.512 89.578 132.512 89.488 134.272 C 89.488 135.174 89.488 136.076 89.174 136.979 C 88.904 137.565 88.725 138.332 87.961 138.332 C 87.197 138.332 86.883 137.565 86.703 137.024 C 86.344 135.986 86.119 134.903 86.029 133.821 C 85.939 132.783 85.49 132.332 84.457 132.332 C 82.705 132.332 80.998 132.151 79.246 132.106 C 77.808 132.106 77.628 132.287 77.449 133.776 C 77.269 135.084 76.955 136.302 76.191 137.385 C 75.966 137.746 75.697 138.016 75.247 137.926 C 74.798 137.836 74.529 137.43 74.574 137.069 C 74.618 134.497 73.855 132.106 73.54 129.625 C 73.45 128.768 73.9 127.73 73.765 126.783 C 73.54 125.158 73.72 123.399 72.462 122.091 C 72.282 121.91 72.238 121.639 72.148 121.369 C 71.968 120.918 71.833 120.466 72.327 120.196 C 72.911 119.88 72.956 120.647 73.585 120.872 C 73.63 118.662 73.72 116.496 73.765 114.376 C 73.765 113.519 73.001 113.067 72.687 112.301 C 73.271 112.12 73.81 111.94 73.855 111.082 C 73.9 109.458 74.034 107.834 73.945 106.21 C 73.855 104.676 72.597 103.774 71.968 102.556 C 71.878 102.33 71.519 102.285 71.564 101.924 C 71.654 101.879 71.743 101.698 71.833 101.744 C 73.061 101.984 73.69 101.458 73.72 100.165 C 73.72 99.894 73.72 99.668 73.72 99.398 C 73.72 98.676 74.124 97.909 73.81 97.277 C 73.45 96.6 72.642 97.006 72.013 96.826 C 71.429 96.646 70.935 96.194 71.07 95.608 C 71.204 95.066 71.833 94.931 72.372 95.202 C 73.406 95.698 73.765 95.382 74.079 94.254 C 74.439 92.946 74.798 91.547 75.966 90.51 L 75.831 90.329 Z M 86.748 116.271 C 86.748 115.91 86.748 115.684 86.748 115.414 C 86.748 115.098 86.793 114.782 86.838 114.466 C 86.838 113.293 86.254 112.707 85.176 113.158 C 83.963 113.699 82.705 113.744 81.402 113.744 C 79.695 113.744 77.988 113.97 76.281 114.105 C 75.742 114.105 75.023 114.331 75.203 114.917 C 75.742 116.496 75.337 118.12 75.742 119.699 C 76.101 121.053 76.146 121.053 77.539 121.188 C 80.144 121.369 82.66 120.602 85.265 120.872 C 85.894 120.918 86.164 120.602 86.344 120.015 C 86.748 118.752 86.928 117.489 86.703 116.271 L 86.748 116.271 Z M 75.158 111.669 C 75.876 111.714 76.191 111.804 76.505 111.759 C 79.875 111.308 83.199 110.496 86.613 110.496 C 86.928 110.496 87.287 110.315 87.287 109.955 C 87.332 108.782 87.377 107.609 87.332 106.481 C 87.332 106.075 86.973 105.849 86.568 105.714 C 86.074 105.623 85.58 105.398 85.086 105.398 C 82.84 105.398 80.638 105.398 78.392 105.533 C 76.595 105.623 76.685 105.714 76.101 107.428 C 75.607 108.782 76.281 110.27 75.203 111.759 L 75.158 111.669 Z M 81.402 129.715 C 81.402 129.715 81.402 129.805 81.402 129.85 C 82.345 129.85 83.334 129.85 84.277 129.941 C 84.996 129.941 85.4 129.625 85.31 128.903 C 85.176 127.775 85.31 126.692 85.445 125.61 C 85.535 124.572 85.176 124.031 84.187 123.85 C 81.896 123.444 79.605 123.534 77.269 123.67 C 76.326 123.715 76.371 124.437 76.73 124.888 C 77.494 125.925 77.539 127.008 77.539 128.181 C 77.539 129.309 77.898 129.535 79.111 129.625 C 79.875 129.625 80.638 129.67 81.447 129.715 L 81.402 129.715 Z M 76.999 101.834 C 78.033 101.834 78.751 101.789 79.425 101.834 C 81.806 101.969 84.187 101.924 86.568 101.969 C 86.973 101.969 87.332 102.014 87.512 101.563 C 88.32 99.443 87.107 97.006 84.861 96.781 C 82.75 96.555 80.638 96.646 78.482 96.555 C 77.898 96.555 77.628 96.826 77.763 97.412 C 78.123 98.901 77.763 100.345 76.955 101.879 L 76.999 101.834 Z" fill="currentColor" fill-rule="nonzero"></path>
</svg>