<svg width="986" height="98" viewBox="0 0 986 98" fill="none" xmlns="http://www.w3.org/2000/svg">
<path d="M12.5007 19.3383C14.126 19.3383 15.7512 19.9884 17.5932 19.9884H18.0266C19.5436 19.9884 21.1689 19.6633 22.7942 19.555C23.661 19.555 24.4195 19.4466 25.2863 19.4466C28.5369 19.4466 31.8958 19.88 35.1464 19.88C36.2299 19.88 37.6385 19.6633 38.9387 19.6633C41.1058 19.6633 43.1645 20.0967 43.8146 22.0471C43.9229 22.4805 43.9229 22.9139 43.9229 23.3473C43.9229 24.5392 43.7062 25.8394 43.7062 26.8146V28.2232C43.7062 29.1984 43.4895 29.9568 42.2977 30.3902C41.9726 30.4986 41.6475 30.6069 41.2141 30.6069C39.9139 30.6069 38.2886 30.1735 37.3134 30.1735H33.5211C32.0041 30.1735 28.5369 29.5234 26.0447 29.5234C25.503 29.5234 24.7445 29.6318 24.0944 29.6318C21.1689 30.2819 20.0854 33.6408 20.0854 36.458V37.2165C20.1937 39.7086 20.4104 43.7176 23.1192 45.0179C23.3359 45.2346 23.8777 45.2346 24.2028 45.2346C25.3946 45.2346 26.6949 44.9095 27.345 44.8011C28.1035 44.6928 28.7536 44.5844 29.2953 44.5844C30.2705 44.5844 31.029 44.6928 32.1125 44.8011C33.196 45.0179 34.3879 45.1262 35.6881 45.1262C36.2299 45.1262 36.6633 45.0179 37.0967 45.0179C37.8552 44.9095 39.4805 44.5844 40.6724 44.5844C41.3225 44.5844 41.7559 44.6928 42.1893 44.8011C42.8394 45.2346 43.0561 48.2684 43.0561 50.7605C43.0561 52.3858 42.9478 53.6861 42.7311 54.0111C42.1893 54.7696 40.8891 55.0947 39.4805 55.0947C37.2051 55.0947 34.6046 54.5529 33.196 54.5529C31.1373 54.5529 29.2953 54.2278 27.2366 54.2278C26.1531 54.2278 25.0696 54.3362 23.986 54.5529C20.6271 55.3114 20.0854 57.3701 20.0854 59.9705V62.1376C20.3021 65.3882 20.3021 69.0722 20.3021 72.3227C20.3021 74.7065 20.8438 77.632 20.8438 80.1241C20.8438 81.0993 20.7355 82.0745 20.6271 82.8329C20.0854 85.3251 17.9183 85.8668 15.7512 85.8668C14.7761 85.8668 13.9092 85.7585 13.1508 85.6501C9.14173 85 8.27491 83.6998 8.27491 80.1241V78.9322C8.38326 75.465 8.59996 71.8893 8.92502 68.5304C9.25008 65.6049 9.79184 62.4626 9.79184 59.4288V58.3452C9.68349 55.4197 9.14173 52.3858 9.14173 49.352V48.1601C9.46679 41.3339 9.35843 34.5076 9.79184 27.5731V27.1397C9.79184 25.8394 9.46679 24.3225 9.46679 22.9139C9.46679 21.0719 9.9002 19.4466 12.0673 19.3383H12.5007ZM102.984 21.2886C115.444 25.8394 123.787 38.9501 123.787 51.9524V53.1443C123.787 59.4288 121.945 67.3385 117.395 73.5146C113.385 78.8239 106.776 84.3499 100.275 85.9752C96.9159 86.842 93.2319 87.2754 89.4395 87.2754C78.9293 87.2754 68.2024 83.5914 61.5929 75.1399C57.2588 69.5056 54.9834 64.1963 53.8999 57.2617C53.6832 55.6364 53.5748 54.1195 53.5748 52.6025C53.5748 47.2933 54.875 42.309 57.0421 37.2165C59.4258 31.4738 64.1934 25.6227 69.8277 22.8056C73.0783 21.2886 76.3289 19.88 79.6878 19.1216C82.3966 18.5798 84.9971 18.2547 87.4892 18.2547C92.6901 18.2547 97.7827 19.3383 102.984 21.2886ZM81.8549 30.4986C78.6043 31.3654 75.8955 32.9907 73.5117 35.4828C71.2363 37.6499 68.7442 39.4919 67.2272 42.4174C65.602 45.4513 65.602 48.8102 65.602 52.3858C65.602 58.9954 66.9022 66.0383 72.7532 70.264C78.0625 74.0564 83.1551 76.5485 89.2228 76.5485C90.3064 76.5485 91.3899 76.4401 92.4734 76.2234C98.3245 75.3566 104.501 70.1557 107.86 65.2798C110.243 61.5958 112.085 56.6116 112.085 51.8441C112.085 49.7854 111.76 47.9434 111.11 46.2097C109.051 41.7673 106.559 37.4332 102.875 34.2909C101.25 32.8823 99.6247 31.6905 97.566 31.0404C95.724 30.3902 93.2319 29.7401 91.3899 29.7401C90.6314 29.7401 89.9813 29.6318 89.2228 29.6318C86.7307 29.6318 84.0219 29.9568 81.8549 30.4986ZM181.869 21.2886C194.33 25.8394 202.673 38.9501 202.673 51.9524V53.1443C202.673 59.4288 200.831 67.3385 196.28 73.5146C192.271 78.8239 185.662 84.3499 179.161 85.9752C175.802 86.842 172.118 87.2754 168.325 87.2754C157.815 87.2754 147.088 83.5914 140.479 75.1399C136.145 69.5056 133.869 64.1963 132.786 57.2617C132.569 55.6364 132.461 54.1195 132.461 52.6025C132.461 47.2933 133.761 42.309 135.928 37.2165C138.312 31.4738 143.079 25.6227 148.714 22.8056C151.964 21.2886 155.215 19.88 158.574 19.1216C161.282 18.5798 163.883 18.2547 166.375 18.2547C171.576 18.2547 176.669 19.3383 181.869 21.2886ZM160.741 30.4986C157.49 31.3654 154.781 32.9907 152.398 35.4828C150.122 37.6499 147.63 39.4919 146.113 42.4174C144.488 45.4513 144.488 48.8102 144.488 52.3858C144.488 58.9954 145.788 66.0383 151.639 70.264C156.948 74.0564 162.041 76.5485 168.109 76.5485C169.192 76.5485 170.276 76.4401 171.359 76.2234C177.21 75.3566 183.386 70.1557 186.745 65.2798C189.129 61.5958 190.971 56.6116 190.971 51.8441C190.971 49.7854 190.646 47.9434 189.996 46.2097C187.937 41.7673 185.445 37.4332 181.761 34.2909C180.136 32.8823 178.511 31.6905 176.452 31.0404C174.61 30.3902 172.118 29.7401 170.276 29.7401C169.517 29.7401 168.867 29.6318 168.109 29.6318C165.617 29.6318 162.908 29.9568 160.741 30.4986ZM245.803 21.9387C248.403 22.3721 250.679 24.1058 253.171 25.5144C259.13 28.6566 263.572 35.3745 265.631 41.5506C266.498 44.3677 266.823 47.1849 266.823 50.0021C266.823 53.7944 266.173 57.5868 265.198 61.2708C264.439 64.413 262.706 66.7967 261.622 69.7223C260.539 72.6478 258.588 75.1399 256.313 77.307C251.329 82.0745 244.069 84.0248 237.785 85C233.234 85.7585 228.575 86.0835 223.915 86.0835C221.748 86.0835 219.473 85.9752 217.198 85.8668C213.08 85.5418 212.972 82.7246 212.972 79.474V78.2821C212.972 74.7065 213.188 71.1309 213.188 67.5552V60.6206C213.188 55.8531 213.188 51.0856 212.972 46.6431C212.972 45.8847 212.863 45.2346 212.863 44.3677C212.863 39.7086 213.405 34.9411 213.405 30.1735C213.405 29.4151 213.297 28.5482 213.188 27.7898V25.7311C213.08 24.6475 212.647 23.4557 212.647 22.2638C212.647 21.8304 212.755 21.397 212.972 20.9636C213.514 19.555 214.164 19.2299 215.03 19.2299C215.572 19.2299 216.114 19.3383 216.872 19.3383C219.906 19.555 223.049 19.555 226.082 19.88H233.017C234.317 19.88 235.617 19.88 236.918 20.2051C239.627 20.7468 242.66 21.5053 245.803 21.9387ZM224.891 42.0923C224.999 43.2842 224.999 44.5844 224.999 45.7763V47.0766C224.891 50.4355 224.457 54.1195 224.457 57.4784V58.3452C224.457 60.8373 224.566 63.1128 224.566 65.4965V67.2302C224.566 68.2053 224.457 69.1805 224.457 70.264C224.457 72.3227 224.999 74.1647 227.599 75.0316C228.141 75.1399 228.683 75.2483 229.225 75.2483C231.608 75.2483 234.317 73.948 236.701 73.5146C239.952 72.9728 242.877 71.8893 246.019 70.0473C248.837 68.3137 251.112 66.255 252.629 63.2211C253.279 61.8125 253.496 60.2956 253.821 58.7786C254.254 57.045 255.013 55.4197 255.446 53.6861C255.771 52.7109 255.879 51.8441 255.879 50.7605C255.879 45.7763 252.954 40.5754 249.487 37.4332C247.211 35.1578 244.719 33.5325 241.794 32.3406C240.385 31.7988 238.976 30.7153 237.459 30.6069C236.918 30.4986 236.484 30.4986 235.943 30.4986C234.642 30.4986 233.125 30.7153 231.717 30.7153C231.175 30.7153 230.742 30.7153 230.2 30.6069C229.658 30.6069 229.225 30.4986 228.791 30.4986C225.107 30.4986 224.132 32.2322 224.132 35.1578C224.132 36.1329 224.24 37.1081 224.457 38.3C224.457 39.4919 224.674 40.7921 224.891 42.0923ZM341.68 23.7807C346.989 20.3134 353.382 18.7965 359.666 18.7965C361.183 18.7965 362.808 18.7965 364.325 19.0132C368.226 19.555 372.235 20.4218 375.702 22.1554C379.061 23.6724 379.17 26.0561 379.386 29.3067V29.6318C379.386 30.6069 379.711 32.2322 379.711 33.5325C379.711 34.616 379.495 35.5912 378.519 35.5912C377.978 35.5912 375.594 33.9659 374.944 33.7492C373.644 32.9907 372.668 32.3406 371.368 31.7988C368.551 31.0404 366.709 29.6318 364 29.6318H362.7C362.158 29.7401 361.833 29.7401 361.508 29.7401C360.641 29.7401 359.991 29.6318 359.233 29.6318C358.908 29.6318 358.366 29.6318 357.932 29.7401L353.273 30.7153C350.673 31.3654 347.206 32.5573 345.147 34.616C344.063 35.6995 343.63 37.1081 342.655 38.1916C341.571 39.6002 339.404 40.3587 338.537 41.7673C337.237 44.2594 337.237 48.9186 337.02 51.7357V53.2527C337.02 59.3204 338.537 64.3046 342.655 68.9638C347.097 73.7313 352.298 75.6817 358.583 75.6817H359.991C362.917 75.5733 366.059 75.465 369.201 74.5981C371.368 74.0564 376.677 70.8058 377.978 70.8058C378.303 70.8058 378.411 71.8893 378.411 73.4063C378.411 76.2234 377.869 80.4492 377.544 80.991C374.835 84.8916 369.743 85.7585 365.409 86.1919C364.109 86.4086 362.808 86.4086 361.616 86.4086C356.415 86.4086 351.54 85.4334 346.555 83.5914C343.738 82.6162 339.946 81.6411 337.67 79.6907C335.612 78.1738 334.962 76.0067 333.445 74.1647C329.111 68.9638 326.51 63.4378 325.86 56.8283C325.752 55.4197 325.643 53.7944 325.643 52.2775V51.3023C325.643 49.677 325.86 48.1601 326.077 46.6431C326.619 43.3926 328.244 40.2503 329.761 37.2165L330.302 36.1329C331.711 33.6408 332.903 31.4738 334.962 29.4151C337.237 27.0313 339.079 25.5144 341.68 23.7807ZM438.53 21.2886C450.99 25.8394 459.334 38.9501 459.334 51.9524V53.1443C459.334 59.4288 457.492 67.3385 452.941 73.5146C448.932 78.8239 442.322 84.3499 435.821 85.9752C432.462 86.842 428.778 87.2754 424.986 87.2754C414.476 87.2754 403.749 83.5914 397.139 75.1399C392.805 69.5056 390.53 64.1963 389.446 57.2617C389.229 55.6364 389.121 54.1195 389.121 52.6025C389.121 47.2933 390.421 42.309 392.588 37.2165C394.972 31.4738 399.74 25.6227 405.374 22.8056C408.625 21.2886 411.875 19.88 415.234 19.1216C417.943 18.5798 420.543 18.2547 423.035 18.2547C428.236 18.2547 433.329 19.3383 438.53 21.2886ZM417.401 30.4986C414.151 31.3654 411.442 32.9907 409.058 35.4828C406.783 37.6499 404.29 39.4919 402.774 42.4174C401.148 45.4513 401.148 48.8102 401.148 52.3858C401.148 58.9954 402.448 66.0383 408.3 70.264C413.609 74.0564 418.701 76.5485 424.769 76.5485C425.853 76.5485 426.936 76.4401 428.02 76.2234C433.871 75.3566 440.047 70.1557 443.406 65.2798C445.79 61.5958 447.632 56.6116 447.632 51.8441C447.632 49.7854 447.306 47.9434 446.656 46.2097C444.598 41.7673 442.106 37.4332 438.422 34.2909C436.796 32.8823 435.171 31.6905 433.112 31.0404C431.27 30.3902 428.778 29.7401 426.936 29.7401C426.178 29.7401 425.528 29.6318 424.769 29.6318C422.277 29.6318 419.568 29.9568 417.401 30.4986ZM474.075 19.3383C475.7 19.3383 477.325 19.9884 479.167 19.9884H479.601C481.118 19.9884 482.743 19.6633 484.368 19.555C485.235 19.555 485.993 19.4466 486.86 19.4466C490.111 19.4466 493.47 19.88 496.72 19.88C497.804 19.88 499.213 19.6633 500.513 19.6633C502.68 19.6633 504.739 20.0967 505.389 22.0471C505.497 22.4805 505.497 22.9139 505.497 23.3473C505.497 24.5392 505.28 25.8394 505.28 26.8146V28.2232C505.28 29.1984 505.064 29.9568 503.872 30.3902C503.547 30.4986 503.222 30.6069 502.788 30.6069C501.488 30.6069 499.863 30.1735 498.887 30.1735H495.095C493.578 30.1735 490.111 29.5234 487.619 29.5234C487.077 29.5234 486.319 29.6318 485.668 29.6318C482.743 30.2819 481.659 33.6408 481.659 36.458V37.2165C481.768 39.7086 481.984 43.7176 484.693 45.0179C484.91 45.2346 485.452 45.2346 485.777 45.2346C486.969 45.2346 488.269 44.9095 488.919 44.8011C489.677 44.6928 490.328 44.5844 490.869 44.5844C491.845 44.5844 492.603 44.6928 493.687 44.8011C494.77 45.0179 495.962 45.1262 497.262 45.1262C497.804 45.1262 498.237 45.0179 498.671 45.0179C499.429 44.9095 501.055 44.5844 502.246 44.5844C502.897 44.5844 503.33 44.6928 503.763 44.8011C504.413 45.2346 504.63 48.2684 504.63 50.7605C504.63 52.3858 504.522 53.6861 504.305 54.0111C503.763 54.7696 502.463 55.0947 501.055 55.0947C498.779 55.0947 496.179 54.5529 494.77 54.5529C492.711 54.5529 490.869 54.2278 488.811 54.2278C487.727 54.2278 486.644 54.3362 485.56 54.5529C482.201 55.3114 481.659 57.3701 481.659 59.9705V62.1376C481.876 65.3882 481.876 69.0722 481.876 72.3227C481.876 74.7065 482.418 77.632 482.418 80.1241C482.418 81.0993 482.31 82.0745 482.201 82.8329C481.659 85.3251 479.492 85.8668 477.325 85.8668C476.35 85.8668 475.483 85.7585 474.725 85.6501C470.716 85 469.849 83.6998 469.849 80.1241V78.9322C469.957 75.465 470.174 71.8893 470.499 68.5304C470.824 65.6049 471.366 62.4626 471.366 59.4288V58.3452C471.258 55.4197 470.716 52.3858 470.716 49.352V48.1601C471.041 41.3339 470.932 34.5076 471.366 27.5731V27.1397C471.366 25.8394 471.041 24.3225 471.041 22.9139C471.041 21.0719 471.474 19.4466 473.641 19.3383H474.075ZM521.217 19.3383C522.842 19.3383 524.467 19.9884 526.309 19.9884H526.743C528.259 19.9884 529.885 19.6633 531.51 19.555C532.377 19.555 533.135 19.4466 534.002 19.4466C537.253 19.4466 540.612 19.88 543.862 19.88C544.946 19.88 546.354 19.6633 547.655 19.6633C549.822 19.6633 551.88 20.0967 552.531 22.0471C552.639 22.4805 552.639 22.9139 552.639 23.3473C552.639 24.5392 552.422 25.8394 552.422 26.8146V28.2232C552.422 29.1984 552.205 29.9568 551.014 30.3902C550.689 30.4986 550.363 30.6069 549.93 30.6069C548.63 30.6069 547.005 30.1735 546.029 30.1735H542.237C540.72 30.1735 537.253 29.5234 534.761 29.5234C534.219 29.5234 533.46 29.6318 532.81 29.6318C529.885 30.2819 528.801 33.6408 528.801 36.458V37.2165C528.91 39.7086 529.126 43.7176 531.835 45.0179C532.052 45.2346 532.594 45.2346 532.919 45.2346C534.111 45.2346 535.411 44.9095 536.061 44.8011C536.819 44.6928 537.469 44.5844 538.011 44.5844C538.986 44.5844 539.745 44.6928 540.828 44.8011C541.912 45.0179 543.104 45.1262 544.404 45.1262C544.946 45.1262 545.379 45.0179 545.813 45.0179C546.571 44.9095 548.196 44.5844 549.388 44.5844C550.038 44.5844 550.472 44.6928 550.905 44.8011C551.555 45.2346 551.772 48.2684 551.772 50.7605C551.772 52.3858 551.664 53.6861 551.447 54.0111C550.905 54.7696 549.605 55.0947 548.196 55.0947C545.921 55.0947 543.321 54.5529 541.912 54.5529C539.853 54.5529 538.011 54.2278 535.953 54.2278C534.869 54.2278 533.785 54.3362 532.702 54.5529C529.343 55.3114 528.801 57.3701 528.801 59.9705V62.1376C529.018 65.3882 529.018 69.0722 529.018 72.3227C529.018 74.7065 529.56 77.632 529.56 80.1241C529.56 81.0993 529.451 82.0745 529.343 82.8329C528.801 85.3251 526.634 85.8668 524.467 85.8668C523.492 85.8668 522.625 85.7585 521.867 85.6501C517.858 85 516.991 83.6998 516.991 80.1241V78.9322C517.099 75.465 517.316 71.8893 517.641 68.5304C517.966 65.6049 518.508 62.4626 518.508 59.4288V58.3452C518.399 55.4197 517.858 52.3858 517.858 49.352V48.1601C518.183 41.3339 518.074 34.5076 518.508 27.5731V27.1397C518.508 25.8394 518.183 24.3225 518.183 22.9139C518.183 21.0719 518.616 19.4466 520.783 19.3383H521.217ZM569.875 20.0967C570.526 20.0967 571.284 20.2051 572.042 20.2051C577.243 20.2051 582.553 19.3383 587.862 19.3383C590.896 19.3383 594.363 19.4466 597.614 19.555C600.864 19.7717 601.406 21.0719 601.406 23.3473V25.9478C600.973 30.0652 598.155 30.1735 594.58 30.1735C591.113 30.1735 587.862 29.9568 584.178 29.9568C582.444 29.9568 580.819 29.8485 579.194 29.7401H578.327C576.918 29.7401 576.593 30.0652 575.943 31.7988C575.076 34.1826 574.751 35.9162 574.751 37.9749C574.751 38.7334 574.751 39.6002 574.86 40.467C575.401 44.2594 577.568 44.8011 580.386 44.8011H582.119C585.261 44.6928 588.404 44.6928 591.654 44.3677C592.738 44.2594 593.821 44.2594 595.013 44.2594C597.18 44.2594 599.239 44.4761 601.081 45.4513C601.406 46.8598 601.514 48.5935 601.514 50.2188V52.6025C601.514 54.4445 601.298 54.9863 599.564 54.9863H598.806C593.28 54.7696 587.32 54.5529 582.011 54.5529H578.544C575.401 54.6612 575.185 57.045 575.185 59.4288V61.9209C575.185 63.6545 574.86 65.6049 574.86 67.4469C574.86 68.8554 574.968 70.264 575.401 71.6726C575.943 74.2731 577.785 74.8148 579.844 74.8148C580.602 74.8148 581.361 74.7065 582.444 74.5981H584.07C585.37 74.5981 586.345 74.8148 587.645 75.0316C587.862 75.1399 588.187 75.1399 588.404 75.1399C589.812 75.1399 590.787 74.4898 592.196 74.1647C592.738 74.0564 593.388 74.0564 594.363 74.0564C596.964 74.0564 600.431 74.4898 601.189 75.6817C601.514 76.3318 601.731 77.7404 601.731 79.3657C601.731 82.0745 601.298 85.1084 600.431 85.8668C599.781 86.5169 598.806 86.6253 597.83 86.6253C595.663 86.6253 593.171 85.7585 591.438 85.6501H589.487C587.862 85.6501 586.02 85.7585 584.178 85.7585C583.094 85.7585 582.011 85.6501 581.036 85.5418C579.519 85.4334 577.893 85.4334 576.377 85.4334C574.535 85.4334 572.693 85.4334 571.067 85.6501C570.2 85.7585 568.9 85.9752 567.708 85.9752C565.65 85.9752 563.699 85.4334 562.941 83.8081C562.616 83.2664 562.507 82.7246 562.507 82.1828C562.507 79.7991 564.024 76.7652 564.133 74.5981C564.133 73.8397 564.241 72.9728 564.241 72.2144C564.241 69.5056 564.024 66.6884 563.916 64.0879C563.808 62.571 563.808 60.9457 563.808 59.4288C563.808 54.5529 564.024 49.677 564.024 44.8011V43.5009C564.024 40.142 564.133 36.783 564.133 33.4241C564.133 29.8485 563.266 26.3812 563.266 23.1306C563.266 20.3134 564.241 19.6633 565.758 19.6633C566.95 19.6633 568.358 19.9884 569.875 20.0967ZM693.731 21.9387C696.331 22.3721 698.607 24.1058 701.099 25.5144C707.058 28.6566 711.501 35.3745 713.56 41.5506C714.426 44.3677 714.751 47.1849 714.751 50.0021C714.751 53.7944 714.101 57.5868 713.126 61.2708C712.368 64.413 710.634 66.7967 709.55 69.7223C708.467 72.6478 706.517 75.1399 704.241 77.307C699.257 82.0745 691.997 84.0248 685.713 85C681.162 85.7585 676.503 86.0835 671.844 86.0835C669.677 86.0835 667.401 85.9752 665.126 85.8668C661.008 85.5418 660.9 82.7246 660.9 79.474V78.2821C660.9 74.7065 661.117 71.1309 661.117 67.5552V60.6206C661.117 55.8531 661.117 51.0856 660.9 46.6431C660.9 45.8847 660.792 45.2346 660.792 44.3677C660.792 39.7086 661.334 34.9411 661.334 30.1735C661.334 29.4151 661.225 28.5482 661.117 27.7898V25.7311C661.008 24.6475 660.575 23.4557 660.575 22.2638C660.575 21.8304 660.683 21.397 660.9 20.9636C661.442 19.555 662.092 19.2299 662.959 19.2299C663.501 19.2299 664.042 19.3383 664.801 19.3383C667.835 19.555 670.977 19.555 674.011 19.88H680.945C682.246 19.88 683.546 19.88 684.846 20.2051C687.555 20.7468 690.589 21.5053 693.731 21.9387ZM672.819 42.0923C672.927 43.2842 672.927 44.5844 672.927 45.7763V47.0766C672.819 50.4355 672.386 54.1195 672.386 57.4784V58.3452C672.386 60.8373 672.494 63.1128 672.494 65.4965V67.2302C672.494 68.2053 672.386 69.1805 672.386 70.264C672.386 72.3227 672.927 74.1647 675.528 75.0316C676.069 75.1399 676.611 75.2483 677.153 75.2483C679.537 75.2483 682.246 73.948 684.629 73.5146C687.88 72.9728 690.805 71.8893 693.948 70.0473C696.765 68.3137 699.04 66.255 700.557 63.2211C701.207 61.8125 701.424 60.2956 701.749 58.7786C702.183 57.045 702.941 55.4197 703.374 53.6861C703.699 52.7109 703.808 51.8441 703.808 50.7605C703.808 45.7763 700.882 40.5754 697.415 37.4332C695.14 35.1578 692.647 33.5325 689.722 32.3406C688.313 31.7988 686.905 30.7153 685.388 30.6069C684.846 30.4986 684.413 30.4986 683.871 30.4986C682.571 30.4986 681.054 30.7153 679.645 30.7153C679.103 30.7153 678.67 30.7153 678.128 30.6069C677.586 30.6069 677.153 30.4986 676.72 30.4986C673.036 30.4986 672.06 32.2322 672.06 35.1578C672.06 36.1329 672.169 37.1081 672.386 38.3C672.386 39.4919 672.602 40.7921 672.819 42.0923ZM737.165 19.3383C741.283 19.555 745.4 19.4466 749.517 19.88C756.344 20.6385 762.845 23.564 766.095 30.0652C767.287 32.3406 767.829 35.5912 767.829 38.8417C767.829 42.8508 766.854 46.9682 765.12 49.5687C762.845 52.9276 759.052 54.5529 755.585 56.7199C754.285 57.5868 753.31 57.9118 753.31 58.9954C753.31 59.4288 753.526 59.8622 753.743 60.4039C754.393 61.5958 755.802 62.896 756.56 64.1963C759.486 68.6387 763.495 72.2144 766.746 76.4401C768.154 78.0654 769.454 79.9074 770.321 81.7494C770.646 82.6162 770.755 83.2664 770.755 83.8081C770.755 85.3251 769.238 85.4334 766.746 85.5418C765.012 85.6501 763.495 85.9752 762.086 85.9752C760.028 85.9752 758.294 85.4334 756.56 83.2664C754.393 80.5575 753.201 77.307 751.251 74.4898C749.192 71.5643 747.459 68.6387 745.183 65.9299C744.208 64.6297 742.258 59.9705 740.199 59.9705C739.766 59.9705 739.224 60.1872 738.791 60.9457C737.924 62.2459 737.599 64.413 737.599 66.6884C737.599 68.5304 737.815 70.3724 737.924 71.781C738.032 74.3814 739.657 77.9571 739.657 81.0993C739.657 82.0745 739.441 83.0497 739.007 83.8081C738.032 85.4334 736.515 85.8668 734.89 85.8668C734.023 85.8668 733.156 85.7585 732.181 85.6501C730.772 85.5418 728.389 85.6501 727.197 84.8916C726.113 84.2415 725.68 82.7246 725.68 80.991C725.68 78.7155 726.33 76.1151 726.547 74.8148C726.98 71.3476 727.197 67.5552 727.197 63.8712C727.197 62.2459 727.197 60.729 727.088 59.2121C726.98 58.0202 726.98 56.8283 726.98 55.6364C726.98 53.6861 727.197 51.7357 727.197 49.5687C727.197 47.51 727.305 45.4513 727.305 43.3926C727.305 38.5167 727.088 33.7492 726.33 29.09C726.113 27.8981 725.788 25.5144 725.788 23.3473C725.788 21.397 726.113 19.555 727.305 18.7965C727.955 18.4714 728.822 18.3631 729.906 18.3631H730.772C733.048 18.5798 735.648 19.3383 737.165 19.3383ZM737.707 30.932C736.949 31.7988 736.732 33.0991 736.732 34.3993C736.732 36.6747 737.49 39.3835 737.49 41.3339V41.6589C737.382 42.6341 737.274 43.5009 737.274 44.4761C737.274 45.8847 737.49 47.1849 738.465 48.1601C739.441 49.352 740.741 49.677 742.149 49.677C743.45 49.677 744.75 49.4603 745.833 49.352C749.517 49.1353 752.01 48.8102 753.743 45.4513C754.935 43.1759 755.694 40.467 755.694 37.9749V37.1081C755.477 31.9072 751.468 30.7153 747.025 30.0652C745.725 29.9568 743.775 29.5234 741.824 29.5234C740.199 29.5234 738.574 29.7401 737.707 30.932ZM783.081 20.8552C783.515 20.2051 784.273 19.7717 785.248 19.555C785.682 19.555 786.007 19.4466 786.332 19.4466C788.066 19.4466 790.016 19.88 791.858 19.88H792.725C794.567 19.88 795.217 20.4218 795.217 22.5888V23.3473C795 25.5144 794.783 27.6814 794.783 29.8485C794.783 30.3902 794.783 30.8237 794.892 31.3654V33.5325C794.892 39.9253 793.917 46.2097 793.917 52.4942C793.917 61.4875 794.892 70.264 794.892 79.149V80.5575C794.892 83.8081 794.133 85.5418 790.016 85.5418H787.741C785.032 85.5418 782.756 85.3251 782.323 81.9661C782.215 81.4244 782.215 80.7742 782.215 80.1241C782.215 77.4153 782.756 74.5981 782.756 71.781C782.756 64.738 782.973 57.5868 782.973 50.6522C782.973 46.2097 783.298 41.6589 783.298 37.2165C783.298 35.0494 783.19 32.774 782.973 30.4986C782.973 28.9817 782.215 26.3812 782.215 24.1058C782.215 22.8056 782.431 21.6137 783.081 20.8552ZM827.601 32.3406C832.585 36.8914 837.678 41.2255 842.228 46.2097C844.937 49.0269 847.104 51.9524 850.246 54.4445C851.438 55.4197 852.955 56.2865 854.147 57.4784C855.231 58.5619 857.073 60.4039 857.94 61.5958C858.59 61.3791 859.348 61.0541 859.673 60.4039C860.54 59.3204 860.648 57.3701 860.648 55.5281C860.648 53.4694 860.54 51.519 860.54 50.2188C860.54 46.5348 860.107 43.1759 859.565 39.6002C859.131 36.1329 859.131 32.9907 859.023 29.5234C859.023 27.5731 858.481 25.7311 858.481 23.7807C858.481 22.9139 858.59 22.0471 858.915 21.1803C859.565 19.2299 860.648 18.6881 862.274 18.6881C863.14 18.6881 864.116 18.7965 865.199 18.9049C868.341 19.2299 871.7 19.7717 871.7 23.3473V23.8891C870.833 32.774 870.4 41.7673 870.4 50.7605C870.4 56.5032 870.508 62.1376 870.942 67.7719C871.159 71.3476 870.942 75.3566 871.375 79.149C871.484 80.2325 872.025 82.2912 872.025 84.0248C872.025 85.5418 871.484 86.7336 869.858 86.7336H869.425C866.716 86.5169 863.357 81.7494 861.407 80.0158C859.023 77.9571 856.423 75.8984 854.364 73.5146C849.813 68.422 844.829 63.9796 840.061 59.1037C837.569 56.5032 834.752 54.0111 831.935 51.6274L831.718 51.3023C830.093 49.7854 826.626 46.5348 824.675 46.5348C822.833 46.5348 822.291 50.2188 822.291 54.3362C822.291 59.2121 823.05 64.9548 823.05 66.6884C823.158 70.264 823.267 73.7313 823.267 77.307C823.267 78.7155 823.808 80.8826 823.808 82.7246C823.808 84.3499 823.375 85.8668 821.75 86.1919C820.883 86.4086 819.258 86.5169 817.416 86.5169C815.14 86.5169 812.54 86.3002 811.781 85.4334C811.131 84.6749 810.914 83.5914 810.914 82.2912C810.914 79.9074 811.781 76.7652 811.89 75.0316V71.781C811.89 65.8216 811.24 59.8622 811.24 54.0111C811.24 46.9682 810.806 39.8169 810.156 32.8823C810.048 31.9072 809.939 30.932 809.939 30.0652C809.939 27.8981 810.156 25.8394 810.156 23.6724V22.0471C810.156 20.9636 809.614 19.3383 809.614 17.9297C809.614 17.6046 809.723 17.1712 809.723 16.9545C810.156 15.9793 810.698 15.5459 811.348 15.5459C813.298 15.5459 816.224 19.0132 817.307 20.4218L817.632 20.8552C820.883 24.7559 823.7 29.09 827.601 32.3406ZM886.117 23.564C886.117 23.239 886.009 23.0223 886.009 22.6972C886.009 20.0967 887.851 19.555 889.909 19.555C890.885 19.555 891.968 19.6633 892.943 19.7717H895.327C896.411 19.7717 897.386 19.88 898.036 20.9636C898.469 21.5053 898.578 22.3721 898.578 23.1306C898.578 24.8643 897.928 26.923 897.819 28.4399V33.4241C897.711 34.1826 897.603 35.5912 897.603 36.9998C897.603 38.7334 897.819 40.467 898.686 41.1172C898.903 41.4422 899.228 41.5506 899.661 41.5506C900.528 41.5506 901.503 40.9005 902.37 40.2503C905.729 37.9749 908.546 34.1826 911.58 31.2571C913.314 29.6318 914.939 27.5731 916.456 25.6227C917.864 23.6724 919.165 21.2886 921.115 19.88C921.982 19.2299 922.74 19.0132 923.607 19.0132C925.124 19.0132 926.533 19.7717 928.375 19.88H928.7C929.675 19.88 931.084 19.6633 932.275 19.6633C933.359 19.6633 934.984 19.9884 934.984 21.5053C934.984 23.239 932.6 25.406 931.517 26.3812C926.858 30.1735 922.524 34.5076 918.298 38.7334C916.781 40.2503 915.481 42.0923 913.964 43.5009C911.905 45.3429 909.305 46.9682 907.679 49.2436C909.305 52.8192 912.555 55.3114 915.047 58.1285C918.515 62.1376 921.982 66.0383 925.232 70.1557C927.291 72.4311 929.675 74.2731 931.625 76.6568C932.709 77.9571 936.393 81.0993 936.393 83.158C936.393 83.3747 936.284 83.6998 936.068 83.9165C934.984 85.5418 928.483 85.6501 926.641 85.9752H925.666C922.957 85.9752 921.44 84.3499 919.706 82.1828L919.273 81.6411C915.264 76.8735 912.772 71.3476 908.655 66.58C907.138 64.8464 904.537 60.6206 902.262 59.9705C901.828 59.7538 901.395 59.7538 900.961 59.7538C898.469 59.7538 897.928 62.571 897.928 64.9548C897.928 65.4965 897.928 65.9299 898.036 66.4717C898.361 69.939 898.144 73.5146 898.469 77.0903C898.578 78.3905 898.903 80.0158 898.903 81.6411C898.903 83.2664 898.469 84.8916 896.519 85.5418C895.435 85.9752 892.727 86.4086 890.343 86.4086C888.718 86.4086 887.201 86.1919 886.551 85.5418C886.009 85 885.792 83.8081 885.792 82.2912C885.792 79.7991 886.225 76.7652 886.334 75.5733C886.659 69.7223 887.309 63.9796 887.309 58.2369V54.8779C886.876 47.835 887.309 40.6837 886.659 33.6408C886.334 30.7153 886.334 27.8981 886.225 24.9726C886.225 24.5392 886.117 24.1058 886.117 23.564ZM964.216 18.038C965.949 18.038 967.358 18.3631 969.092 18.9049C972.342 19.9884 974.076 20.8552 976.785 23.3473C978.41 24.7559 980.035 26.3812 980.035 28.4399C980.035 29.09 979.927 29.7401 979.493 30.4986C978.41 32.3406 975.593 35.0494 973.317 35.2661H972.884C971.042 35.2661 970.825 33.5325 969.633 32.2322C968.225 30.6069 966.383 29.1984 964.432 28.6566C963.782 28.5482 962.916 28.4399 962.157 28.4399C959.99 28.4399 957.715 29.09 955.981 30.0652C953.814 31.2571 952.405 33.6408 952.405 36.0246C952.405 37.1081 952.73 38.3 953.489 39.2752C955.006 41.5506 958.365 42.8508 960.965 43.9343L962.807 44.8011C969.742 47.7267 976.46 50.6522 980.36 57.5868C982.311 61.1624 983.394 64.8464 983.394 68.6387C983.394 70.264 983.286 71.8893 982.852 73.5146C981.552 80.4492 975.159 85.6501 968.442 87.0587C966.708 87.4921 964.758 87.6005 962.59 87.6005C957.498 87.6005 951.755 86.6253 947.963 84.7833C945.362 83.4831 937.344 75.2483 937.344 70.8058C937.344 69.1805 938.319 68.097 940.703 67.7719C941.245 67.7719 942.003 67.6636 942.87 67.6636C944.821 67.6636 947.204 67.8803 948.071 68.5304C949.696 69.6139 950.347 72.7561 951.647 74.2731C953.814 76.7652 957.064 77.8487 960.315 77.8487C963.241 77.8487 966.058 77.0903 968.442 75.79C971.042 74.4898 972.126 72.106 972.126 69.7223C972.126 66.3633 970.175 62.6793 967.358 60.5123C958.148 53.1443 941.57 51.9524 941.028 36.9998V36.6747C941.028 29.6318 945.579 22.2638 952.189 19.555C955.439 18.2547 959.448 18.3631 962.916 18.038H964.216Z" fill="#D69F56"></path>
<path d="M309.155 56.6294C309.21 56.2382 309.135 56.0583 308.675 55.98C306.94 55.6788 305.22 55.3111 303.488 54.9943C303.156 54.9356 303.025 54.8378 303.076 54.4936C303.124 54.2002 303.084 53.8951 303.084 53.5783C303.33 53.5196 303.54 53.457 303.758 53.4179C305.375 53.105 306.991 52.7803 308.616 52.4908C309.107 52.4048 309.258 52.1935 309.123 51.7398C308.977 51.2508 308.85 50.754 308.703 50.226C307.003 50.6171 305.379 50.9926 303.754 51.3643C302.953 51.5481 302.387 51.2821 302.054 50.5702C302.046 50.5506 302.054 50.5272 302.054 50.3942C303.691 49.2089 305.383 47.9885 307.138 46.7172C306.607 46.107 306.128 45.5554 305.624 44.9765C303.956 46.326 302.371 47.613 300.782 48.896C300.382 48.5987 300.033 48.3405 299.688 48.0902C300.663 46.2674 301.618 44.4836 302.597 42.6491C301.88 42.3088 301.206 41.9919 300.481 41.6516C299.795 43.1811 299.122 44.6636 298.464 46.15C298.102 46.9688 297.471 47.2453 296.57 46.9793V40.7832H294.386V47.0028C293.962 47.1005 293.554 47.1905 293.091 47.2961C292.183 45.4029 291.284 43.5253 290.36 41.589C289.623 41.9332 288.962 42.2462 288.272 42.5708C289.318 44.4876 290.313 46.3026 291.319 48.141C290.967 48.3914 290.594 48.6535 290.226 48.9156C288.565 47.6051 286.945 46.3221 285.272 45C284.789 45.6063 284.345 46.1617 283.862 46.772C285.593 48.0393 287.262 49.2637 288.958 50.5076C288.732 50.9144 288.526 51.286 288.304 51.685C286.239 51.1921 284.218 50.711 282.166 50.2221C282.027 50.7736 281.94 51.243 281.785 51.6889C281.599 52.2209 281.777 52.4087 282.328 52.5104C284.163 52.8468 285.986 53.2301 287.836 53.6017C287.836 53.813 287.816 53.9851 287.836 54.1533C287.903 54.6853 287.773 54.9865 287.123 55.0256C286.461 55.0647 285.807 55.2485 285.149 55.3776C284 55.6045 282.855 55.8392 281.643 56.0817C281.813 56.7193 281.964 57.2826 282.114 57.842C282.205 58.1784 282.403 58.2527 282.764 58.1627C284.163 57.8029 285.577 57.4821 286.98 57.1379C287.841 56.924 288.466 57.2018 288.855 57.9711C288.87 58.0024 288.855 58.0493 288.847 58.0923C287.182 59.2854 285.514 60.4824 283.767 61.7341C284.294 62.3208 284.797 62.8802 285.308 63.4513C286.976 62.137 288.565 60.8853 290.178 59.6179C290.562 59.8995 290.907 60.1577 291.272 60.4237C290.253 62.2309 289.263 63.995 288.232 65.8218C288.795 66.0839 289.302 66.2951 289.782 66.5533C290.194 66.7762 290.396 66.6941 290.59 66.2716C291.2 64.9495 291.854 63.643 292.488 62.3287C292.853 61.5698 293.467 61.3273 294.327 61.5972V67.6055H296.53V62.6103C296.53 61.8749 296.895 61.4446 297.628 61.3234C297.691 61.3116 297.755 61.3234 297.842 61.3351C297.992 61.6246 298.155 61.9101 298.293 62.1996C298.951 63.5491 299.593 64.9104 300.271 66.2481C300.362 66.4281 300.687 66.6784 300.802 66.6354C301.396 66.4124 301.959 66.1073 302.577 65.8061C301.59 63.952 300.643 62.1761 299.688 60.3767C300.073 60.1068 300.417 59.8721 300.79 59.614C302.387 60.8931 303.96 62.1605 305.581 63.4591C306.076 62.8724 306.536 62.3247 307.039 61.7263C305.311 60.455 303.647 59.2267 301.967 57.9906C302.042 57.8342 302.121 57.7246 302.149 57.6034C302.308 56.9149 302.692 56.8249 303.366 57.0166C304.649 57.3843 305.961 57.6464 307.261 57.9476C308.834 58.3114 308.909 58.2527 309.139 56.6411L309.155 56.6294Z" fill="#D69F56"></path>
<path d="M647.448 56.6294C647.503 56.2382 647.428 56.0583 646.968 55.98C645.233 55.6788 643.513 55.3111 641.781 54.9943C641.449 54.9356 641.318 54.8378 641.369 54.4936C641.417 54.2002 641.377 53.8951 641.377 53.5783C641.623 53.5196 641.833 53.457 642.051 53.4179C643.668 53.105 645.284 52.7803 646.909 52.4908C647.4 52.4048 647.551 52.1935 647.416 51.7398C647.27 51.2508 647.143 50.754 646.996 50.226C645.296 50.6171 643.672 50.9926 642.047 51.3643C641.246 51.5481 640.68 51.2821 640.347 50.5702C640.339 50.5506 640.347 50.5272 640.347 50.3942C641.983 49.2089 643.676 47.9885 645.431 46.7172C644.9 46.107 644.42 45.5554 643.917 44.9765C642.249 46.326 640.664 47.613 639.075 48.896C638.675 48.5987 638.326 48.3405 637.981 48.0902C638.956 46.2674 639.911 44.4836 640.89 42.6491C640.173 42.3088 639.499 41.9919 638.774 41.6516C638.088 43.1811 637.415 44.6636 636.757 46.15C636.395 46.9688 635.764 47.2453 634.863 46.9793V40.7832H632.679V47.0028C632.255 47.1005 631.847 47.1905 631.384 47.2961C630.476 45.4029 629.577 43.5253 628.653 41.589C627.916 41.9332 627.254 42.2462 626.565 42.5708C627.611 44.4876 628.606 46.3026 629.612 48.141C629.26 48.3914 628.887 48.6535 628.519 48.9156C626.858 47.6051 625.238 46.3221 623.565 45C623.082 45.6063 622.638 46.1617 622.155 46.772C623.886 48.0393 625.555 49.2637 627.251 50.5076C627.025 50.9144 626.819 51.286 626.597 51.685C624.532 51.1921 622.511 50.711 620.459 50.2221C620.32 50.7736 620.233 51.243 620.078 51.6889C619.892 52.2209 620.07 52.4087 620.621 52.5104C622.456 52.8468 624.279 53.2301 626.129 53.6017C626.129 53.813 626.109 53.9851 626.129 54.1533C626.196 54.6853 626.066 54.9865 625.416 55.0256C624.754 55.0647 624.1 55.2485 623.442 55.3776C622.293 55.6045 621.148 55.8392 619.936 56.0817C620.106 56.7193 620.257 57.2826 620.407 57.842C620.498 58.1784 620.696 58.2527 621.057 58.1627C622.456 57.8029 623.87 57.4821 625.273 57.1379C626.134 56.924 626.759 57.2018 627.147 57.9711C627.163 58.0024 627.147 58.0493 627.14 58.0923C625.475 59.2854 623.807 60.4824 622.06 61.7341C622.587 62.3208 623.09 62.8802 623.601 63.4513C625.269 62.137 626.858 60.8853 628.471 59.6179C628.855 59.8995 629.2 60.1577 629.565 60.4237C628.546 62.2309 627.556 63.995 626.525 65.8218C627.088 66.0839 627.595 66.2951 628.075 66.5533C628.487 66.7762 628.689 66.6941 628.883 66.2716C629.493 64.9495 630.147 63.643 630.781 62.3287C631.146 61.5698 631.76 61.3273 632.62 61.5972V67.6055H634.823V62.6103C634.823 61.8749 635.188 61.4446 635.921 61.3234C635.984 61.3116 636.048 61.3234 636.135 61.3351C636.285 61.6246 636.448 61.9101 636.586 62.1996C637.244 63.5491 637.886 64.9104 638.564 66.2481C638.655 66.4281 638.98 66.6784 639.095 66.6354C639.689 66.4124 640.252 66.1073 640.87 65.8061C639.883 63.952 638.936 62.1761 637.981 60.3767C638.366 60.1068 638.71 59.8721 639.083 59.614C640.68 60.8931 642.253 62.1605 643.874 63.4591C644.369 62.8724 644.829 62.3247 645.332 61.7263C643.604 60.455 641.94 59.2267 640.26 57.9906C640.335 57.8342 640.414 57.7246 640.442 57.6034C640.601 56.9149 640.985 56.8249 641.659 57.0166C642.942 57.3843 644.254 57.6464 645.554 57.9476C647.127 58.3114 647.202 58.2527 647.432 56.6411L647.448 56.6294Z" fill="#D69F56"></path>
</svg>