<svg width="844" height="177" viewBox="0 0 844 177" fill="none" xmlns="http://www.w3.org/2000/svg">
<g filter="url(#filter0_n_294_53)">
<path d="M0 26.6221L838.903 -0.000121129L776.543 76.8348L843.65 149.561L4.74626 176.183L75.0514 99.0963L0 26.6221Z" fill="#FAF5EC"></path>
</g>
<path d="M270.211 55.6136C270.324 56.4952 270.241 57.5048 269.96 58.6424C269.68 59.78 269.279 60.922 268.758 62.0685C268.317 63.212 267.834 64.3168 267.31 65.3828C266.782 66.3685 266.368 67.1487 266.067 67.7234C265.54 68.709 264.972 69.6962 264.364 70.6848C263.756 71.6734 263.19 72.7007 262.666 73.7668C262.144 74.9132 261.623 76.0597 261.101 77.2062C260.657 78.2693 260.176 79.4143 259.657 80.6412C259.139 81.868 258.54 83.0979 257.86 84.3307C257.261 85.5605 256.663 86.7904 256.064 88.0202C254.195 91.9539 252.367 95.8862 250.579 99.8169C248.871 103.745 247.042 107.637 245.09 111.493C242.989 115.677 240.97 119.898 239.033 124.156C237.093 128.334 235.399 132.624 233.95 137.025C233.658 137.841 233.317 138.417 232.927 138.754C232.614 139.007 232.056 139.148 231.252 139.178C229.968 139.306 228.725 139.432 227.521 139.557C226.401 139.759 225.195 139.803 223.903 139.69C223.015 139.642 222.324 139.466 221.83 139.162C220.841 138.554 220.447 137.683 220.647 136.548C220.927 135.411 221.05 134.359 221.014 133.394C221.009 131.059 221.005 128.765 221.003 126.51C221 124.256 221.157 121.955 221.473 119.608C221.736 117.988 222.039 116.367 222.382 114.744C222.725 113.121 222.986 111.46 223.165 109.763C222.9 109.128 222.569 108.899 222.173 109.074C221.777 109.25 221.348 109.628 220.886 110.209C220.422 110.709 220 111.288 219.622 111.946C219.321 112.521 219.093 112.892 218.938 113.058C218.41 114.044 217.841 114.991 217.23 115.899C216.62 116.807 215.967 117.677 215.273 118.508C212.425 122.075 209.662 125.76 206.983 129.562C206.143 130.801 205.263 132.041 204.342 133.283C203.499 134.441 202.697 135.638 201.938 136.874C201.407 137.779 200.951 138.52 200.57 139.098C200.269 139.673 199.56 140.101 198.443 140.384C197.326 140.667 196.36 140.662 195.544 140.37C194.808 140.075 193.879 139.988 192.756 140.11C192.274 140.128 191.83 140.104 191.425 140.038C190.937 139.895 190.565 139.627 190.309 139.234C190.216 138.915 190.16 138.474 190.139 137.911C190.16 136.3 190.223 134.728 190.328 133.194C190.349 131.583 190.575 130.045 191.004 128.579C192.149 124.672 192.97 120.737 193.469 116.773C194.044 112.726 194.662 108.717 195.321 104.747C195.593 103.368 195.825 102.031 196.019 100.736C196.294 99.4374 196.528 98.1405 196.722 96.845C197.217 92.8007 197.876 88.8309 198.699 84.9356C199.6 80.957 200.46 76.9798 201.28 73.0041C201.62 71.3006 201.962 69.6374 202.305 68.0144C202.648 66.3913 202.991 64.7683 203.334 63.1453C203.545 62.3323 203.708 61.2795 203.821 59.987C203.932 58.6141 204.297 57.5941 204.917 56.9272C205.846 55.9267 206.831 55.3269 207.87 55.1276C208.99 54.9254 210.193 54.8007 211.48 54.7534C212.445 54.7179 213.17 54.7315 213.655 54.7941C214.138 54.7764 214.824 54.8317 215.715 54.96C216.766 55.0824 217.744 55.4088 218.649 55.9391C219.635 56.4665 220.029 57.3378 219.833 58.5528C219.627 59.5267 219.299 60.4647 218.849 61.367C218.396 62.1889 218.027 63.0882 217.74 64.065C216.953 66.7511 216.412 69.549 216.116 72.4586C215.898 75.2849 215.478 78.0784 214.854 80.839C214.318 83.7575 213.699 86.6388 212.998 89.4828C212.295 92.2464 211.512 95.0531 210.651 97.9031C210.442 98.7965 210.235 99.7301 210.029 100.704C209.9 101.594 209.733 102.526 209.528 103.5C209.465 103.986 209.364 104.513 209.223 105.082C209.161 105.567 209.1 106.093 209.04 106.659C209.287 106.811 209.573 106.921 209.898 106.989C210.222 107.058 210.615 106.802 211.077 106.221C211.536 105.56 211.841 105.106 211.993 104.859C212.3 104.445 213.099 103.168 214.389 101.027C215.759 98.8828 217.204 96.5751 218.724 94.1035C220.324 91.6291 221.769 89.3214 223.059 87.1804C224.43 85.0364 225.23 83.7992 225.459 83.4687C225.45 83.2274 225.443 83.0264 225.437 82.8656C225.511 82.7018 225.584 82.4978 225.656 82.2536C225.79 81.524 225.886 80.836 225.943 80.1898C226.077 79.4601 226.092 78.7752 225.988 78.1348L226.104 78.0098C226.152 77.1223 226.201 76.275 226.252 75.4679C226.3 74.5804 226.389 73.7316 226.521 72.9216C226.78 71.2211 226.961 69.5638 227.063 67.9496C227.242 66.2521 227.381 64.556 227.479 62.8614C227.542 62.376 227.56 61.7714 227.534 61.0477C227.507 60.324 227.482 59.6405 227.458 58.9972C227.512 58.2705 227.649 57.6213 227.87 57.0495C228.087 56.3974 228.472 55.9001 229.023 55.5577C229.964 54.879 231.28 54.5487 232.972 54.5671C234.741 54.502 236.075 54.6543 236.975 55.0238C237.713 55.3993 238.257 55.943 238.605 56.6548C238.95 57.2863 239.179 58.0428 239.292 58.9244C239.483 59.7226 239.554 60.5655 239.506 61.453C239.538 62.3375 239.528 63.1431 239.474 63.8698C239.258 68.9506 238.722 74.0834 237.866 79.2683C237.087 84.3697 236.55 89.4623 236.254 94.5461C236.209 95.514 236.083 96.4849 235.878 97.4587C235.749 98.3491 235.582 99.2813 235.377 100.255C235.46 100.333 235.585 100.449 235.752 100.604L235.989 100.474C236.066 100.391 236.224 100.304 236.462 100.215C236.68 99.563 236.899 98.9511 237.119 98.3793C237.337 97.7271 237.595 97.0735 237.893 96.4183C238.918 93.6429 240.107 90.942 241.46 88.3156C242.89 85.6058 244.076 82.8244 245.018 79.9716C246.267 76.7048 247.437 73.4812 248.528 70.3007C249.696 67.0369 250.863 63.7329 252.028 60.3887C252.317 59.4923 252.728 58.6317 253.262 57.8069C253.792 56.9017 254.366 56.0754 254.982 55.328C255.68 54.5777 256.429 54.1475 257.23 54.0376C258.108 53.8442 258.95 53.7328 259.754 53.7032C260.558 53.6736 261.362 53.6441 262.166 53.6145C262.97 53.5849 263.775 53.5554 264.579 53.5258C265.061 53.5081 265.582 53.4486 266.142 53.3475C266.702 53.2464 267.225 53.2272 267.71 53.2899C269.086 53.4809 269.92 54.2554 270.211 55.6136ZM332.549 55.4958C332.662 56.3774 332.456 57.3512 331.931 58.4172C331.404 59.4029 330.871 60.2277 330.331 60.8917C329.485 61.9696 328.459 62.5307 327.253 62.575C326.047 62.6194 324.841 62.6637 323.634 62.7081C322.187 62.7613 320.742 62.8949 319.301 63.109C317.859 63.323 316.375 63.4581 314.847 63.5143C313.962 63.5468 313.117 63.5377 312.309 63.4868C311.502 63.436 310.738 63.464 310.018 63.5711C309.374 63.5947 308.779 63.8179 308.231 64.2407C307.682 64.6634 307.186 65.4064 306.742 66.4695C306.009 68.4289 305.277 70.4286 304.547 72.4685C303.814 74.428 302.957 76.3115 301.977 78.119C301.825 78.3661 301.558 78.7785 301.177 79.3562C300.876 79.9309 300.577 80.5458 300.279 81.201C300.058 81.7727 299.918 82.3415 299.858 82.9074C299.799 83.4732 299.976 83.9096 300.389 84.2165C300.47 84.2135 300.632 84.2478 300.876 84.3193C302.732 84.4122 304.587 84.505 306.443 84.5978C308.298 84.6906 310.192 84.7418 312.125 84.7512C313.575 84.7784 314.406 85.4726 314.617 86.8337C314.828 88.1948 314.631 89.4099 314.027 90.4789C313.428 91.7087 312.543 92.8283 311.372 93.8376C310.201 94.8469 308.889 95.2977 307.436 95.1901C306.227 95.1541 305.059 95.1567 303.934 95.1981C302.808 95.2395 301.643 95.3226 300.44 95.4473C299.234 95.4917 298.187 95.4899 297.3 95.442C296.492 95.3912 295.749 95.9821 295.07 97.2149C294.614 97.9564 294.283 98.814 294.077 99.7879C293.869 100.681 293.62 101.576 293.331 102.473C292.091 105.981 290.931 109.486 289.852 112.988C288.854 116.487 287.815 119.987 286.736 123.49C286.444 124.305 286.263 124.876 286.195 125.2C286.123 125.445 286.535 125.711 287.432 126C288.248 126.292 289.14 126.461 290.108 126.506C291.073 126.47 291.997 126.436 292.882 126.404C294.574 126.422 296.264 126.4 297.952 126.338C299.718 126.193 301.406 126.09 303.014 126.031C303.654 125.927 304.458 125.898 305.426 125.943C306.391 125.907 307.24 125.997 307.973 126.211C308.705 126.426 309.202 126.81 309.464 127.364C309.726 127.918 309.515 128.731 308.829 129.803C308.141 130.795 307.416 131.868 306.653 133.024C305.971 134.176 305.077 135.054 303.972 135.659C302.709 136.349 301.357 136.802 299.915 137.016C298.554 137.227 297.191 137.398 295.827 137.528C294.145 137.751 292.46 137.934 290.775 138.076C289.089 138.219 287.394 138.12 285.691 137.78C284.151 137.515 282.655 137.328 281.201 137.221C279.831 137.19 278.344 137.245 276.738 137.385C275.854 137.417 274.686 137.42 273.236 137.393C271.869 137.443 270.924 136.914 270.4 135.806C269.876 134.698 269.784 133.292 270.124 131.589C270.383 129.888 270.653 128.469 270.934 127.332C271.628 124.327 272.651 121.471 274.001 118.764C275.359 116.298 276.469 113.641 277.331 110.791C278.189 107.86 279.094 105.089 280.045 102.478C281.145 99.5386 282.246 96.6396 283.348 93.7809C284.529 90.8387 285.751 87.9353 287.014 85.0706C287.306 84.2546 287.518 83.4416 287.649 82.6316C287.861 81.8186 288.153 81.0026 288.525 80.1837C289.035 78.7156 289.618 77.0435 290.273 75.1674C290.774 73.458 291.277 71.7889 291.78 70.1599C292.281 68.4505 292.824 66.7799 293.408 65.148C293.703 64.4125 293.99 63.4759 294.271 62.3383C294.631 61.1977 295.032 60.0557 295.473 58.9122C295.995 57.7657 296.561 56.7384 297.172 55.8302C297.86 54.8386 298.6 54.1672 299.393 53.816C301.058 53.1106 302.812 52.6435 304.655 52.4147C306.579 52.1829 308.468 52.0732 310.32 52.0856C312.253 52.0951 314.189 52.185 316.128 52.3553C318.066 52.5255 319.882 52.6198 321.573 52.6382C322.943 52.6683 324.273 52.7 325.562 52.7331C326.849 52.6858 328.139 52.7189 329.431 52.8324C330.482 52.9548 331.215 53.1694 331.629 53.4763C332.04 53.7027 332.346 54.3759 332.549 55.4958ZM360.311 89.7434C359.053 92.769 357.845 96.0343 356.685 99.5393C356.39 100.275 355.766 101.908 354.812 104.439C353.939 106.968 353.07 109.617 352.206 112.386C351.341 115.156 350.709 117.675 350.309 119.944C349.91 122.214 350.078 123.496 350.813 123.791C351.549 124.086 352.439 124.214 353.484 124.176C354.53 124.137 355.455 124.103 356.259 124.074C357.95 124.092 359.64 124.07 361.329 124.008C363.095 123.863 364.782 123.76 366.391 123.701C367.031 123.597 367.835 123.568 368.803 123.613C369.768 123.577 370.617 123.667 371.349 123.881C372.082 124.096 372.579 124.48 372.841 125.034C373.103 125.588 372.891 126.401 372.206 127.473C371.518 128.465 370.792 129.538 370.03 130.694C369.347 131.846 368.454 132.724 367.349 133.329C366.086 134.019 364.733 134.472 363.292 134.686C361.931 134.897 360.568 135.068 359.204 135.198C357.521 135.421 355.837 135.604 354.151 135.746C352.466 135.889 350.771 135.79 349.068 135.45C347.528 135.185 346.032 134.998 344.578 134.89C343.208 134.86 341.721 134.915 340.115 135.055C339.234 135.167 338.068 135.21 336.617 135.183C335.247 135.153 334.3 134.584 333.777 133.476C333.512 132.841 333.362 132.042 333.326 131.077C333.285 129.951 333.403 128.779 333.68 127.561C333.877 126.346 334.08 125.292 334.288 124.398C334.983 121.394 336.005 118.538 337.355 115.831C338.714 113.365 339.824 110.708 340.686 107.858C341.544 104.927 342.449 102.156 343.399 99.5446C344.499 96.6054 345.6 93.7064 346.703 90.8477C347.883 87.9055 349.105 85.0021 350.369 82.1374C350.661 81.3214 350.872 80.5084 351.004 79.6984C351.215 78.8854 351.508 78.0694 351.88 77.2505C352.39 75.7824 352.972 74.1103 353.628 72.2342C354.129 70.5248 354.631 68.8556 355.135 67.2267C355.636 65.5173 356.178 63.8467 356.762 62.2148C357.057 61.4793 357.345 60.5427 357.625 59.4051C357.986 58.2645 358.387 57.1225 358.828 55.979C359.349 54.8325 359.916 53.8052 360.526 52.897C361.215 51.9054 361.955 51.234 362.747 50.8828C363.62 50.5286 364.537 50.2936 365.499 50.1777C366.461 50.0618 367.425 49.9861 368.39 49.9507C369.033 49.927 369.675 49.8631 370.315 49.7591C371.033 49.5717 371.755 49.5048 372.482 49.5586C373.051 49.6988 373.463 49.9654 373.719 50.3586C373.808 50.5969 373.862 50.9573 373.88 51.4398C373.909 52.2439 373.779 53.0941 373.49 53.9905C373.279 54.8035 373.025 55.5778 372.73 56.3133C372.295 57.6177 371.858 58.8818 371.42 60.1057C371.063 61.3267 370.584 62.5521 369.985 63.7819C369.389 65.0922 368.875 66.4397 368.443 67.8245C368.011 69.2092 367.538 70.5954 367.026 71.9832C366.593 73.3679 366.079 74.7154 365.483 76.0257C364.887 77.3359 364.373 78.6834 363.941 80.0682C362.773 83.332 361.563 86.5571 360.311 89.7434ZM444.006 52.1226C445.527 54.0797 446.249 56.187 446.171 58.4445C446.17 60.6186 445.918 62.5201 445.414 64.1491C445.348 64.5541 445.241 64.9204 445.092 65.2479C445.021 65.4921 444.95 65.7765 444.882 66.1011C444.456 67.6467 443.982 68.9928 443.46 70.1392C443.019 71.2827 442.087 72.2028 440.663 72.8993C440.663 72.8993 440.386 73.0302 439.832 73.2922C439.275 73.4737 438.637 73.6582 437.92 73.8456C437.202 74.033 436.442 74.1817 435.641 74.2917C434.837 74.3213 434.188 74.1841 433.694 73.8802C433.116 73.4988 432.812 72.9061 432.783 72.102C432.839 71.4557 433.015 70.7648 433.31 70.0293C433.605 69.2937 433.941 68.5567 434.316 67.8182C434.543 67.4073 434.73 67.038 434.879 66.7105C435.025 66.3025 435.173 65.9347 435.322 65.6071C436.192 62.9985 435.958 60.9941 434.618 59.5939C433.701 58.7419 432.393 58.2263 430.696 58.0472C428.998 57.868 427.234 58.0537 425.402 58.6042C422.298 59.604 420.046 61.8609 418.645 65.3748C418.35 66.1103 418.055 66.8459 417.76 67.5814C417.465 68.317 417.17 69.0525 416.875 69.788C415.397 73.3853 413.88 77.0243 412.324 80.705C410.846 84.3022 409.288 87.9025 407.649 91.5057C406.826 93.2269 406.01 95.1089 405.199 97.1517C404.466 99.1112 403.897 101.145 403.491 103.254C403.166 105.359 403.083 107.496 403.243 109.664C403.401 111.752 404 113.823 405.042 115.879C406.084 117.934 407.623 119.287 409.66 119.936C411.617 120.589 413.544 120.438 415.441 119.482C417.258 118.53 418.773 117.025 419.986 114.967C421.198 112.909 422.176 111.021 422.918 109.303L423.137 108.691C423.435 108.036 423.77 107.299 424.143 106.48C424.592 105.578 425.087 104.795 425.626 104.131C426.246 103.464 426.912 102.956 427.624 102.608C428.416 102.257 429.342 102.263 430.402 102.627C430.566 102.701 430.852 102.811 431.26 102.957C432.073 103.169 432.808 103.464 433.467 103.843C434.202 104.138 434.628 104.766 434.744 105.728C434.937 106.607 434.894 107.615 434.613 108.752C434.411 109.807 434.047 110.867 433.522 111.933C433.078 112.996 432.554 114.062 431.949 115.131C431.344 116.2 430.775 117.147 430.242 117.972C429.863 118.63 429.598 119.083 429.446 119.33C428.385 121.14 427.165 122.997 425.786 124.899C424.484 126.719 422.933 128.346 421.134 129.781C420.979 129.948 420.707 130.199 420.316 130.536C419.849 130.956 419.38 131.335 418.909 131.674C418.438 132.014 417.926 132.315 417.372 132.576C416.58 132.928 415.781 133.118 414.977 133.148C414.176 133.258 413.373 133.327 412.569 133.357L411.604 133.392L410.519 133.432C409.473 133.471 408.385 133.43 407.253 133.311C406.205 133.269 405.151 133.066 404.091 132.702C402.209 131.886 400.474 130.702 398.887 129.15C397.38 127.594 396.069 125.871 394.953 123.98C393.836 122.088 392.96 120.148 392.323 118.158C391.683 116.088 391.329 114.128 391.261 112.279C391.117 108.339 391.619 104.495 392.77 100.749C393.837 96.9253 394.965 93.663 396.154 90.962C397.2 88.7495 398.126 86.5414 398.93 84.3377C399.813 82.0507 400.656 79.8054 401.461 77.6017C401.675 76.8691 401.892 76.1767 402.109 75.5246C402.407 74.8694 402.665 74.2158 402.882 73.5636C403.249 72.5839 403.616 71.6041 403.982 70.6244C404.426 69.5613 404.833 68.5801 405.203 67.6808C405.572 66.7814 405.942 65.8821 406.311 64.9828C406.678 64.0031 407.046 63.0635 407.415 62.1642C408 60.5323 408.782 58.8126 409.762 57.0051C410.74 55.1172 412.047 53.4586 413.686 52.0295C417.35 48.7545 421.067 46.9269 424.838 46.5467C426.118 46.3386 427.605 46.2437 429.296 46.262C431.068 46.2774 432.846 46.4535 434.63 46.7906C436.414 47.1276 438.128 47.749 439.771 48.6548C441.493 49.4773 442.904 50.6332 444.006 52.1226ZM508.883 57.1051C508.847 58.3142 508.69 59.5278 508.413 60.7458C508.213 61.8805 507.971 62.9764 507.688 64.0336C507.19 65.8234 506.572 67.6176 505.833 69.4162C505.171 71.1315 504.509 72.8468 503.848 74.562C503.04 76.6853 502.192 78.81 501.304 80.9362C500.493 82.9791 499.644 85.0636 498.756 87.1898C498.094 88.9051 497.209 91.1117 496.101 93.8097C495.072 96.5047 493.967 99.283 492.784 102.145C491.601 105.007 490.373 107.749 489.1 110.373C487.908 112.993 486.778 115.088 485.708 116.657C484.713 118.063 483.554 119.394 482.231 120.65C480.989 121.904 479.705 123.118 478.379 124.294C477.051 125.39 475.599 126.41 474.023 127.353C472.528 128.294 470.942 128.956 469.265 129.34C468.383 129.453 467.46 129.527 466.495 129.563C465.61 129.595 464.726 129.628 463.841 129.66C462.96 129.773 462.077 129.846 461.192 129.878C460.385 129.828 459.574 129.656 458.758 129.364C457.042 128.702 455.644 127.908 454.563 126.982C453.48 125.975 452.546 124.681 451.763 123.099C451.418 122.467 451.034 121.878 450.611 121.329C450.189 120.781 449.883 120.148 449.696 119.431C449.333 118.317 449.086 117.078 448.955 115.714C448.727 113.87 448.778 111.976 449.109 110.031C449.36 108.089 449.811 106.14 450.464 104.184C451.036 102.23 451.731 100.312 452.547 98.4305C453.364 96.5485 454.105 94.79 454.769 93.1552C456.471 89.0665 458.172 84.9779 459.874 80.8893C461.576 76.8006 463.115 72.6777 464.492 68.5205C464.704 67.7075 464.917 66.9347 465.132 66.2021C465.424 65.3862 465.677 64.6119 465.892 63.8793C466.038 63.4713 466.223 63.0217 466.446 62.5303C467.921 58.8526 469.928 55.3969 472.466 52.1633C475.082 48.8463 478.335 46.4318 482.225 44.9199C482.94 44.6521 483.656 44.4244 484.374 44.237C485.089 43.9692 485.802 43.6611 486.514 43.3128C487.467 42.9557 488.346 42.7624 489.15 42.7328C489.951 42.6228 490.792 42.5114 491.674 42.3984C494.557 41.9704 497.303 42.1915 499.912 43.0618C502.517 43.8518 504.633 45.5455 506.258 48.1429C506.764 48.7685 507.114 49.5206 507.308 50.3992C507.501 51.2778 507.772 52.0731 508.12 52.785C508.65 54.0538 508.904 55.4939 508.883 57.1051ZM494.372 59.9334L494.368 59.8128C494.341 59.0891 494.35 58.2433 494.395 57.2754C494.517 56.2241 494.247 55.4288 493.583 54.8896C493.002 54.4278 492.225 54.094 491.251 53.8883C490.277 53.6825 489.269 53.6391 488.227 53.7579C487.265 53.8738 486.31 54.1907 485.363 54.7087C484.416 55.2266 483.678 55.9784 483.151 56.9641C482.019 59.0188 481.001 60.9082 480.098 62.6323C479.276 64.3535 478.54 66.2325 477.89 68.2695C476.73 71.7745 475.368 75.2468 473.804 78.6862C472.32 82.1226 470.836 85.5591 469.352 88.9956C467.945 92.3487 466.622 95.7792 465.382 99.2872C464.142 102.795 463.228 106.412 462.64 110.138C462.381 111.838 462.592 113.199 463.274 114.221C463.955 115.243 465.221 115.719 467.071 115.651C469.483 115.563 471.586 114.721 473.379 113.125C475.172 111.529 476.751 109.579 478.116 107.274C479.481 104.969 480.601 102.593 481.477 100.145C482.434 97.694 483.24 95.5306 483.896 93.6545C484.915 90.7182 485.935 87.782 486.954 84.8457C487.973 81.9095 488.993 78.9732 490.012 76.037C490.882 73.4283 491.791 70.7779 492.739 68.0859C493.767 65.3909 494.312 62.6734 494.372 59.9334ZM592.35 42.3205C592.519 42.5558 592.613 42.9147 592.631 43.3972C592.66 44.2013 592.531 45.0515 592.241 45.9479C592.03 46.7609 591.776 47.5352 591.481 48.2707C591.043 49.4946 590.604 50.6784 590.163 51.8219C589.802 52.9624 589.362 54.1462 588.844 55.373C587.801 57.666 586.884 60.1153 586.094 62.7211C584.583 67.6079 582.828 72.4232 580.828 77.167C578.825 81.8303 576.988 86.6084 575.316 91.5011C574.076 95.0091 572.916 98.5142 571.837 102.016C570.839 105.515 569.8 109.016 568.721 112.518C567.934 115.204 566.864 117.861 565.511 120.487C564.236 123.03 562.293 124.953 559.684 126.257L557.634 126.333C556.91 126.359 555.942 126.314 554.73 126.198C553.598 126.078 552.817 125.624 552.385 124.835C551.861 123.727 551.769 122.321 552.109 120.617C552.449 118.914 552.719 117.495 552.919 116.36C553.614 113.355 554.676 110.498 556.106 107.788C557.385 105.326 558.455 102.669 559.316 99.8194C560.175 96.8891 561.119 94.1166 562.151 91.502C562.511 90.3615 563.103 88.9306 563.925 87.2094C564.825 85.4049 565.529 83.7283 566.035 82.1798C566.181 81.7718 566.049 81.4546 565.638 81.2281C565.307 80.9987 564.987 81.0507 564.677 81.3842C563.986 82.2954 563.256 83.2482 562.488 84.2427C561.719 85.2372 561.064 86.0263 560.521 86.6099C558.424 88.7 556.209 90.875 553.877 93.1348C551.625 95.3917 549.154 97.1735 546.464 98.4802C544.564 99.3553 543.124 99.6096 542.144 99.243C541.161 98.796 540.39 97.536 539.831 95.463C539.459 94.1078 539.208 92.7482 539.077 91.3841C538.943 89.9396 538.771 88.5369 538.56 87.1757C538.447 86.2942 538.295 85.4543 538.105 84.6561C537.992 83.7745 537.758 82.8973 537.404 82.0246C537.315 81.7863 537.141 81.4304 536.882 80.9568C536.62 80.4028 536.325 80.0512 535.998 79.9022C535.59 79.7562 535.234 79.9303 534.93 80.4246C534.626 80.9189 534.361 81.3716 534.134 81.7825C533.151 83.5096 532.415 85.3886 531.926 87.4197C531.434 89.3703 530.9 91.2821 530.325 93.1553C529.085 96.6633 527.926 100.168 526.847 103.67C525.848 107.17 524.809 110.67 523.73 114.172C522.943 116.858 521.873 119.515 520.52 122.141C519.245 124.684 517.303 126.608 514.693 127.911L512.643 127.987C511.919 128.013 510.951 127.968 509.739 127.852C508.607 127.732 507.826 127.278 507.394 126.489C506.87 125.381 506.778 123.975 507.118 122.272C507.378 120.571 507.648 119.152 507.928 118.014C508.623 115.01 509.645 112.154 510.995 109.447C512.354 106.981 513.464 104.323 514.325 101.474C515.184 98.5432 516.088 95.7723 517.039 93.1606C518.139 90.2214 519.24 87.3224 520.343 84.4636C521.523 81.5215 522.745 78.618 524.008 75.7533C524.3 74.9374 524.512 74.1244 524.643 73.3143C524.855 72.5013 525.147 71.6854 525.52 70.8665C526.029 69.3983 526.612 67.7262 527.268 65.8501C527.769 64.1408 528.271 62.4716 528.775 60.8427C529.275 59.1333 529.818 57.4627 530.402 55.8308C530.697 55.0952 530.985 54.1587 531.265 53.021C531.626 51.8805 532.027 50.7384 532.468 49.5949C532.989 48.4485 533.555 47.4211 534.166 46.5129C534.854 45.5214 535.595 44.85 536.387 44.4988C537.26 44.1446 538.177 43.9096 539.139 43.7937C540.101 43.6778 541.064 43.6021 542.029 43.5666C542.673 43.543 543.314 43.4791 543.955 43.375C544.673 43.1876 545.395 43.1208 546.122 43.1746C546.771 43.3118 547.152 43.8212 547.265 44.7027C547.458 45.5814 547.535 46.585 547.496 47.7138C547.457 48.8425 547.338 49.9742 547.138 51.1089C547.016 52.1601 547.003 52.9255 547.102 53.4051C547.193 55.8978 547.243 58.3519 547.251 60.7673C547.26 63.1826 547.268 65.5979 547.276 68.0133C547.324 69.2999 547.371 70.5865 547.418 71.8731C547.463 73.0793 547.547 74.284 547.672 75.4872C547.684 75.8089 547.7 76.2511 547.721 76.814C547.738 77.2965 547.796 77.7775 547.895 78.257C547.993 78.7365 548.167 79.0925 548.417 79.3249C548.667 79.5572 549.109 79.541 549.744 79.2761C550.456 78.9278 551.159 78.3383 551.853 77.5076C552.547 76.6768 553.17 76.0903 553.721 75.748C554.507 75.2359 555.209 74.6062 555.825 73.8588C557.526 71.9443 559.23 70.1102 560.937 68.3565C562.722 66.5194 564.424 64.6451 566.045 62.7335C567.591 60.9857 568.893 59.1664 569.951 57.2755C571.086 55.3012 572.262 53.3255 573.477 51.3483C574.383 49.7046 575.451 48.0951 576.682 46.52C577.99 44.8615 579.555 43.6363 581.378 42.8446C582.251 42.4905 583.168 42.2554 584.13 42.1395C585.092 42.0237 586.055 41.948 587.02 41.9125C587.744 41.8859 588.426 41.8205 589.066 41.7165C589.784 41.529 590.466 41.4637 591.112 41.5205C591.681 41.6606 592.094 41.9273 592.35 42.3205ZM652.613 43.7283C652.726 44.6099 652.52 45.5837 651.996 46.6497C651.469 47.6354 650.935 48.4602 650.396 49.1242C649.55 50.2021 648.524 50.7632 647.318 50.8076C646.111 50.8519 644.905 50.8962 643.699 50.9406C642.252 50.9938 640.807 51.1274 639.366 51.3415C637.924 51.5555 636.439 51.6906 634.911 51.7468C634.027 51.7793 633.181 51.7702 632.374 51.7193C631.567 51.6685 630.803 51.6966 630.082 51.8036C629.439 51.8272 628.843 52.0504 628.295 52.4732C627.747 52.8959 627.251 53.6389 626.807 54.702C626.074 56.6615 625.342 58.6611 624.612 60.701C623.879 62.6605 623.022 64.544 622.042 66.3515C621.89 66.5986 621.623 67.011 621.242 67.5887C620.941 68.1634 620.641 68.7784 620.343 69.4335C620.123 70.0052 619.983 70.574 619.923 71.1399C619.863 71.7057 620.04 72.1421 620.454 72.449C620.534 72.446 620.697 72.4803 620.941 72.5518C622.796 72.6447 624.652 72.7375 626.507 72.8303C628.363 72.9231 630.257 72.9743 632.19 72.9838C633.64 73.0109 634.471 73.7051 634.682 75.0662C634.893 76.4273 634.696 77.6424 634.091 78.7114C633.492 79.9412 632.607 81.0608 631.437 82.0701C630.266 83.0794 628.954 83.5302 627.501 83.4226C626.291 83.3866 625.124 83.3892 623.998 83.4306C622.872 83.472 621.708 83.5551 620.505 83.6798C619.298 83.7242 618.252 83.7224 617.364 83.6745C616.557 83.6237 615.814 84.2146 615.134 85.4474C614.679 86.1889 614.348 87.0465 614.142 88.0204C613.933 88.9138 613.684 89.8087 613.395 90.705C612.155 94.213 610.996 97.7181 609.917 101.22C608.918 104.719 607.879 108.22 606.8 111.722C606.508 112.538 606.328 113.108 606.259 113.433C606.188 113.677 606.6 113.944 607.496 114.233C608.312 114.525 609.204 114.693 610.172 114.738C611.137 114.703 612.062 114.669 612.946 114.636C614.638 114.655 616.328 114.633 618.017 114.571C619.783 114.425 621.47 114.323 623.078 114.264C623.719 114.16 624.523 114.13 625.491 114.175C626.456 114.14 627.305 114.229 628.037 114.444C628.77 114.659 629.267 115.043 629.529 115.597C629.791 116.151 629.579 116.964 628.894 118.036C628.206 119.027 627.48 120.101 626.717 121.256C626.035 122.409 625.141 123.287 624.036 123.891C622.773 124.582 621.421 125.034 619.98 125.248C618.619 125.459 617.256 125.63 615.892 125.761C614.209 125.984 612.525 126.166 610.839 126.309C609.153 126.451 607.459 126.353 605.755 126.013C604.216 125.747 602.719 125.561 601.266 125.453C599.896 125.423 598.408 125.478 596.803 125.617C595.919 125.65 594.751 125.652 593.301 125.625C591.934 125.675 590.988 125.147 590.464 124.038C589.94 122.93 589.849 121.525 590.189 119.821C590.448 118.121 590.718 116.702 590.998 115.564C591.693 112.559 592.715 109.703 594.065 106.997C595.424 104.531 596.534 101.873 597.395 99.0233C598.254 96.093 599.159 93.322 600.109 90.7104C601.209 87.7712 602.31 84.8722 603.413 82.0134C604.593 79.0712 605.815 76.1678 607.079 73.3031C607.371 72.4871 607.582 71.6741 607.714 70.8641C607.925 70.0511 608.217 69.2351 608.59 68.4162C609.1 66.9481 609.682 65.276 610.338 63.3999C610.839 61.6905 611.341 60.0214 611.845 58.3924C612.346 56.6831 612.888 55.0124 613.472 53.3805C613.767 52.645 614.055 51.7084 614.335 50.5708C614.696 49.4302 615.097 48.2882 615.538 47.1447C616.059 45.9982 616.626 44.9709 617.236 44.0627C617.925 43.0711 618.665 42.3997 619.457 42.0485C621.122 41.3431 622.876 40.876 624.72 40.6472C626.644 40.4154 628.532 40.3057 630.385 40.3182C632.318 40.3276 634.253 40.4175 636.192 40.5878C638.131 40.758 639.946 40.8524 641.638 40.8707C643.008 40.9008 644.338 40.9325 645.627 40.9656C646.914 40.9183 648.203 40.9514 649.496 41.0649C650.547 41.1873 651.28 41.4019 651.693 41.7088C652.104 41.9352 652.411 42.6084 652.613 43.7283Z" fill="#C9694F"></path>
<defs>
<filter id="filter0_n_294_53" x="0" y="0" width="843.649" height="176.184" filterUnits="userSpaceOnUse" color-interpolation-filters="sRGB">
<feFlood flood-opacity="0" result="BackgroundImageFix"></feFlood>
<feBlend mode="normal" in="SourceGraphic" in2="BackgroundImageFix" result="shape"></feBlend>
<feTurbulence type="fractalNoise" baseFrequency="0.39232584834098816 0.39232584834098816" stitchTiles="stitch" numOctaves="3" result="noise" seed="540"></feTurbulence>
<feColorMatrix in="noise" type="luminanceToAlpha" result="alphaNoise"></feColorMatrix>
<feComponentTransfer in="alphaNoise" result="coloredNoise1">
<feFuncA type="discrete" tableValues="1 1 1 1 1 1 1 1 1 1 1 1 1 1 1 1 1 1 1 1 1 1 1 1 1 1 1 1 1 1 1 1 1 1 1 1 1 1 1 1 1 1 1 1 1 1 1 1 1 1 1 0 0 0 0 0 0 0 0 0 0 0 0 0 0 0 0 0 0 0 0 0 0 0 0 0 0 0 0 0 0 0 0 0 0 0 0 0 0 0 0 0 0 0 0 0 0 0 0 0 "></feFuncA>
</feComponentTransfer>
<feComposite operator="in" in2="shape" in="coloredNoise1" result="noise1Clipped"></feComposite>
<feFlood flood-color="rgba(102, 64, 26, 0.14)" result="color1Flood"></feFlood>
<feComposite operator="in" in2="noise1Clipped" in="color1Flood" result="color1"></feComposite>
<feMerge result="effect1_noise_294_53">
<feMergeNode in="shape"></feMergeNode>
<feMergeNode in="color1"></feMergeNode>
</feMerge>
</filter>
</defs>
</svg>