<svg width="318" height="145" viewBox="0 0 318 145" fill="none" xmlns="http://www.w3.org/2000/svg">
<path d="M288.202 0C289.408 0.999115 290.534 1.67851 291.298 2.5977C291.7 3.07727 291.902 4.19628 291.62 4.79575C289.247 9.99115 286.593 15.1066 284.341 20.342C281.205 27.6555 276.58 34.0898 272.639 40.9237C270.83 44.041 269.623 47.5978 268.538 51.0747C267.532 54.3518 269.905 56.7098 273.283 56.1902C274.328 56.0304 275.414 56.0304 276.419 55.7506C276.942 55.5907 277.666 55.1112 277.787 54.6316C279.476 48.2373 282.894 42.9619 287.76 38.5259C292.022 34.6893 296.888 32.2914 302.799 33.0907C306.7 33.6102 310.44 36.128 307.625 41.2035C306.177 43.8012 304.77 46.3989 303.724 49.1564C303.121 50.755 302.92 52.6733 303.081 54.3518C303.362 57.1494 306.217 58.3483 309.595 57.589C312.33 56.9895 315.145 56.6698 318 56.5499C316.03 59.4673 313.134 60.8261 310.078 61.8252C308.791 62.2648 307.384 62.5046 306.016 62.6245C300.789 63.0641 297.934 60.7462 297.049 55.3909C294.717 57.5091 292.585 59.867 290.052 61.6654C287.116 63.7835 283.859 65.3421 280.079 63.5037C279.838 63.3838 279.516 63.3039 279.395 63.1041C278.229 61.2258 276.54 61.1458 274.529 61.4256C269.583 62.065 264.235 58.1884 262.988 53.5126C262.908 53.1529 262.626 52.8332 262.305 52.2337C259.248 54.8714 256.112 57.3092 253.257 60.0268C250.08 63.0641 246.541 65.0224 242.037 65.0624C239.705 65.0624 237.935 64.1831 236.97 62.9043C233.472 63.3838 230.295 63.9034 227.118 64.2231C222.172 64.7426 220.322 61.1858 220.563 57.7089C220.724 54.9113 221.93 52.1538 222.815 49.4362C223.539 47.1982 224.786 45.0801 225.188 42.8021C225.67 39.8847 224.263 39.1253 221.488 40.2443C217.306 41.9228 214.974 45.3998 213.003 49.0365C210.59 53.5126 208.539 58.1485 206.247 62.7044C205.363 64.5029 204.357 66.5011 201.824 65.7417C200.537 65.3421 199.451 64.2631 198.566 63.7435C193.218 64.4629 187.95 65.3421 182.642 65.7417C179.787 65.9416 176.851 65.422 174.318 63.6236C173.795 63.2639 172.589 63.3039 172.026 63.6636C168.929 65.6618 165.551 66.4611 161.892 66.7009C159.359 66.8608 156.905 66.9007 154.654 65.5419C154.372 65.3821 153.93 65.2622 153.809 65.0224C152.764 62.8243 151.477 63.3039 149.506 64.0632C145.766 65.502 141.866 66.621 137.965 67.3004C133.743 68.0197 130.043 66.3412 127.188 63.7835C123.931 64.7826 120.955 65.9016 117.899 66.541C113.234 67.5002 109.695 64.5428 108.81 58.9478C108.167 59.6671 107.644 60.1467 107.162 60.7062C104.226 64.0233 101.13 66.9407 96.5453 67.9798C91.8806 69.0189 88.0603 65.6219 88.9852 60.946C90.2721 54.3918 93.2479 48.6369 97.9126 43.8811C101.612 40.0845 106.116 37.3669 111.505 36.6475C114.199 36.2878 116.773 37.0472 118.944 38.8456C120.432 40.0845 120.955 41.6431 120.11 43.4415C118.743 46.279 117.054 48.9966 115.968 51.954C115.204 53.9122 114.923 56.1502 114.963 58.2684C115.043 60.6263 117.738 62.1849 120.472 61.7053C122.161 61.3856 123.77 60.8661 124.896 60.5863C125.7 56.5499 125.981 52.7133 127.228 49.2763C130.485 40.2443 136.517 33.6102 145.726 30.1733C149.144 28.8944 150.994 30.3331 150.994 33.9299C150.994 34.5294 150.994 35.1289 150.994 35.7283C150.914 38.6058 150.029 39.5649 146.812 40.0845V34.8092C143.957 35.1289 142.147 36.9273 140.579 38.6458C136.357 43.2417 132.898 48.2772 131.571 54.5916C130.526 59.5872 132.979 62.4646 137.925 61.3456C142.67 60.2666 147.375 58.9478 152.08 57.7089C152.442 57.6289 152.844 57.2293 153.045 56.9096C156.865 50.9948 160.645 45.0401 164.466 39.1253C165.431 37.6466 168.688 36.6076 170.015 37.5667C170.457 37.8864 170.578 39.3252 170.256 39.9246C168.406 42.9619 166.396 45.8793 164.425 48.8367C162.254 52.1138 159.6 55.1511 158.876 59.1476C158.755 59.9069 158.715 60.6662 158.635 61.5055C163.259 62.3847 167.482 61.2657 171.744 59.827C170.9 56.0703 170.98 52.3536 172.589 48.7968C175.484 42.4424 180.31 38.0863 186.945 35.9681C188.513 35.4886 190.805 35.8482 192.213 36.7275C194.585 38.1662 193.821 40.9237 193.379 43.1218C192.695 46.5188 190.323 48.8767 187.749 51.0747C185.377 53.073 182.924 54.9913 180.631 57.1094C179.063 58.5481 179.425 59.4274 181.436 60.1867C184.854 61.4256 188.191 60.8261 191.569 60.1067C193.5 59.7071 195.51 59.5073 197.36 58.9478C198.325 58.668 199.371 57.9087 199.894 57.0694C203.915 50.6751 207.856 44.1609 211.797 37.7266C212.279 36.9273 212.681 36.0081 213.365 35.4886C214.612 34.5294 215.738 35.0889 216.622 36.2079C217.748 37.6466 218.914 37.8065 220.322 36.5676C221.005 35.9681 221.85 35.5285 222.614 35.009C224.584 33.6902 226.595 33.4104 228.525 34.9291C230.456 36.4477 231.823 38.2861 231.019 41.0436C229.973 44.6005 229.008 48.1973 228.123 51.8341C227.802 53.2728 227.721 54.8314 227.802 56.3501C227.842 57.589 228.525 58.4682 230.013 58.3083C230.134 58.3083 230.295 58.3083 230.415 58.3083C234.638 58.1085 234.96 58.9078 235.563 54.3518C236.488 47.1183 240.871 42.1626 246.38 38.0063C250.884 34.5694 255.951 32.3314 261.661 32.0116C263.31 31.9317 265.079 32.4113 266.688 32.9308C268.296 33.4104 269.141 33.0108 269.824 31.5321C274.771 21.1812 280.199 11.0702 287.036 1.75844C287.398 1.2389 287.8 0.719358 288.242 0.119889L288.202 0ZM241.032 55.3909C241.514 56.5499 241.715 58.3883 242.52 58.708C243.565 59.1076 245.335 58.668 246.34 57.9487C249.195 55.9504 252.01 53.8323 254.543 51.4744C258.082 48.1573 261.339 44.5605 264.677 41.0436C265.16 40.5241 265.361 39.7248 265.642 39.0854C264.838 38.7257 264.074 38.1262 263.27 38.0463C257.519 37.5667 252.573 39.7648 248.23 43.1618C244.369 46.1991 241.353 49.9557 240.992 55.4309L241.032 55.3909ZM112.068 43.8012C109.574 43.3616 107.564 43.6014 104.105 45.7195C98.7168 49.0366 94.5749 53.3128 95.0172 60.3465C95.0977 61.9052 95.5802 62.4247 97.0681 61.7853C97.7517 61.5055 98.4354 61.2657 99.0386 60.906C103.341 58.3483 107.202 55.1911 109.896 50.9549C111.263 48.8367 112.51 46.5587 112.068 43.8412V43.8012ZM300.306 39.8047C297.853 39.4051 295.883 39.7248 291.821 42.1626C286.553 45.3198 282.974 49.676 283.256 56.2302C283.336 58.1485 283.819 58.5082 285.548 57.7488C290.454 55.5508 294.435 52.2337 297.491 47.8776C299.14 45.5596 300.789 43.0419 300.346 39.8047H300.306ZM187.87 41.3234C184.331 40.8038 179.264 46.7985 178.822 50.7151C181.878 51.3145 187.267 45.7994 187.87 41.3234Z" fill="#F5EDD8"></path>
<path d="M246.822 114.059C246.822 103.788 249.879 95.955 255.911 89.4008C260.133 84.8448 265.843 82.5669 271.835 81.4878C281.325 79.7693 290.575 81.1681 298.738 86.5233C306.499 91.5988 310.922 98.9124 312.209 108.144C313.375 116.497 312.008 124.37 307.223 131.324C302.116 138.717 295.36 143.673 285.95 144.672C275.615 145.791 266.085 144.192 257.841 137.638C253.578 134.241 250.804 129.605 248.914 124.53C247.506 120.733 246.461 116.856 246.782 114.059H246.822ZM256.715 112.021C256.072 128.806 268.538 135.92 280.24 136.199C291.499 136.479 302.679 124.969 302.799 112.181C302.92 101.15 292.143 90.9994 281.446 90.0802C269.06 89.0011 255.187 101.031 256.715 112.021Z" fill="#F5EDD8"></path>
<path d="M186.744 143.833C183.245 144.272 181.838 141.674 180.31 139.357C176.932 134.201 173.554 129.006 170.176 123.81C169.412 122.651 168.768 121.412 167.884 120.373C166.235 118.455 163.983 118.735 163.299 121.093C162.696 123.171 162.455 125.449 162.616 127.567C162.938 131.603 163.702 135.6 164.184 139.636C164.667 143.393 161.892 144.032 159.037 143.713C158.313 143.633 157.589 143.353 156.906 143.393C152.241 143.593 152.16 141.834 152.482 137.958C152.884 132.842 153.769 127.767 153.97 122.651C154.211 115.538 154.211 108.384 153.97 101.23C153.809 96.2348 152.924 91.3191 152.522 86.3235C152.402 84.9248 152.603 83.4061 152.965 82.0473C153.085 81.5677 154.05 81.0082 154.613 80.9683C156.262 80.9683 157.911 81.2081 159.56 81.288C163.943 81.5677 168.326 81.8075 172.669 82.0873C178.339 82.4869 183.647 83.8457 187.669 88.2818C189.84 90.7196 191.127 93.4372 191.127 96.6744C191.127 99.312 191.127 102.03 190.765 104.627C190.162 109.103 187.267 112.021 183.406 114.059C181.958 114.818 180.511 115.658 179.143 116.577C177.253 117.816 176.932 119.094 178.299 120.853C181.275 124.65 184.452 128.286 187.468 132.043C189.559 134.681 191.61 137.358 193.54 140.076C193.982 140.715 194.264 141.874 194.022 142.554C193.821 143.033 192.575 143.153 191.77 143.273C190.122 143.473 188.473 143.593 186.824 143.713L186.744 143.833ZM181.476 99.9914C181.074 94.9559 179.908 92.598 176.087 91.479C173.514 90.7596 170.779 90.5997 168.165 90.0802C164.305 89.2809 161.088 92.0784 161.45 95.915C161.771 99.2321 162.013 102.589 162.214 105.946C162.375 108.464 163.943 110.262 166.516 110.502C168.004 110.622 169.573 110.662 171.02 110.502C173.674 110.142 176.771 110.382 178.299 107.665C179.827 104.907 180.752 101.87 181.516 100.031L181.476 99.9914Z" fill="#F5EDD8"></path>
<path d="M69.2807 71.2167C73.7042 65.7815 76.6398 59.7868 76.8811 52.5133C73.4629 53.1927 70.2459 53.7922 67.069 54.5115C64.3345 55.151 61.6402 56.1101 58.9057 56.6696C55.0854 57.4289 52.552 60.0266 49.8175 62.4245C46.1581 65.6217 42.6595 68.9787 38.8795 72.016C33.9333 75.9725 28.1425 78.3304 21.7888 78.6901C17.5664 78.9299 13.2636 79.0898 9.08143 78.6501C3.04944 78.0107 -0.569758 73.0151 0.0736546 67.0204C0.314934 64.7425 2.92881 62.9041 5.3014 63.2238C5.06012 64.4227 4.69818 65.6217 4.65797 66.8606C4.57754 70.7372 5.98502 72.6155 9.72486 73.8544C13.0223 74.9334 16.4405 74.5737 19.738 74.1341C26.5742 73.175 32.7671 70.4974 38.3567 66.421C43.7453 62.4645 47.8068 57.389 51.4663 51.9538C56.4527 44.5603 60.0719 36.4475 63.6107 28.2548C65.5409 23.7388 67.9537 19.4226 70.2459 15.0665C71.0903 13.5078 72.2967 13.4679 73.3021 14.9066C74.5085 16.5851 74.9508 18.3835 74.0259 20.4617C69.8035 29.8134 65.6213 39.1651 61.4793 48.5568C61.2381 49.1163 61.1174 49.7557 60.9566 50.3952C66.8679 49.1163 72.6586 47.9973 78.3689 46.5985C79.3341 46.3587 80.3394 45.1998 80.822 44.2406C85.8486 34.0896 90.7546 23.8587 95.7009 13.6677C95.8617 13.3879 95.9019 12.9883 96.1432 12.7885C96.7464 12.229 97.43 11.7894 98.1137 11.2698C98.4354 11.9892 98.9984 12.6686 99.0788 13.4279C99.5211 17.3444 97.7517 20.7414 96.2638 24.1784C91.8404 34.4893 87.3767 44.8001 82.9131 55.111C80.822 59.9467 78.7711 64.7824 76.5996 69.5782C75.1921 72.7753 71.2914 73.6546 69.3209 71.2967L69.2807 71.2167Z" fill="#F5EDD8"></path>
<path d="M221.126 143.393C220.402 143.393 219.638 143.433 218.914 143.393C217.145 143.273 216.1 142.274 215.979 140.515C215.898 139.077 215.898 137.598 215.979 136.119C216.059 133.562 216.301 130.964 216.341 128.406C216.502 116.856 216.662 105.307 216.703 93.7569C216.703 90.9594 216.22 88.1219 215.939 85.3244C215.697 83.0863 217.105 81.6476 220.241 82.0073C221.609 82.1672 223.016 82.1672 224.424 82.1672C226.072 82.1672 227.037 82.7267 226.957 84.605C226.756 89.6405 226.676 94.6761 226.515 99.7116C226.273 106.705 225.791 113.739 225.791 120.733C225.791 126.888 226.314 133.002 226.515 139.157C226.635 142.953 226.072 143.393 222.131 143.433C221.81 143.433 221.448 143.433 221.126 143.433V143.393Z" fill="#F5EDD8"></path>
<path d="M40.6891 98.5527C44.3485 99.0722 48.0481 99.4319 51.6673 100.231C56.3321 101.23 60.9164 107.425 61.3185 112.261C61.6804 116.537 60.5947 120.373 58.7448 124.13C56.6538 128.366 52.8737 130.165 48.6111 130.924C45.1527 131.523 41.614 131.643 38.1154 131.763C35.3407 131.883 34.5766 131.004 34.6169 128.206C34.6169 125.888 34.9788 123.61 34.9788 121.293C34.9788 117.776 34.6571 114.299 34.6169 110.782C34.6169 108.544 34.8582 106.306 34.9788 104.068C34.9788 103.748 34.9788 103.388 34.9788 103.069C34.8179 100.298 36.1718 98.9124 39.0403 98.9124C39.5631 98.9124 40.1261 98.9124 40.6489 98.9124C40.6489 98.7925 40.6489 98.6726 40.6891 98.5527ZM44.63 104.667C44.1474 104.667 43.7051 104.667 43.2225 104.667C40.6891 104.667 40.2065 105.187 40.3674 107.745C40.488 109.263 40.7293 110.742 40.7293 112.261C40.7293 114.299 40.4478 116.337 40.3674 118.375C40.2869 120.134 40.2467 121.892 40.3674 123.61C40.488 125.009 41.1716 126.248 42.8606 126.048C44.4691 125.849 46.1179 125.529 47.6862 125.089C52.9541 123.571 55.8495 119.614 55.8093 114.139C55.8093 113.619 55.6484 113.1 55.5278 112.62C54.7637 108.464 49.1339 104.068 44.5496 104.667H44.63Z" fill="#F5EDD8"></path>
<path d="M84.2803 104.267C83.0739 104.267 81.8675 104.267 80.6611 104.267C78.3689 104.267 77.7657 105.107 77.7657 108.104C77.7657 110.502 78.4896 111.341 80.7415 111.301C82.712 111.261 84.7226 111.141 86.6931 110.902C89.9906 110.542 91.6393 112.3 91.0361 115.577C90.7546 117.016 89.7091 116.656 88.8244 116.616C86.1703 116.537 83.5162 116.457 80.8622 116.217C78.8917 116.057 77.9266 116.936 77.8462 118.695C77.7657 120.653 77.9266 122.651 78.2081 124.569C78.2885 125.129 79.2134 125.968 79.7764 126.008C81.7468 126.088 83.7575 125.888 85.7682 125.808C86.291 125.808 86.8137 125.728 87.3767 125.688C90.9155 125.688 92.3229 127.966 90.5938 131.084C90.2721 131.603 89.1461 131.923 88.382 131.923C83.8782 131.923 79.3743 131.723 74.9106 131.803C72.6184 131.843 71.0099 130.484 71.7337 128.286C72.6989 125.369 72.4978 122.491 72.0957 119.494C71.8946 117.775 72.4174 115.937 72.3772 114.179C72.3369 109.663 72.1761 105.187 71.975 100.671C71.9348 99.2718 72.4174 98.7923 73.8248 98.8322C75.9963 98.9122 78.1679 98.8322 80.2992 98.8322C83.1141 98.8322 85.929 98.9122 88.744 98.8322C90.634 98.7923 91.0361 99.8313 90.9959 101.35C90.9557 102.829 90.5938 104.148 88.7037 104.187C87.2159 104.187 85.7682 104.187 84.2803 104.187V104.267Z" fill="#F5EDD8"></path>
<path d="M110.057 98.9124C109.896 102.629 109.735 106.026 109.534 109.463C109.534 109.783 109.494 110.142 109.494 110.462C109.494 115.018 109.494 119.534 109.494 124.09C109.494 125.928 110.499 126.608 112.309 126.408C114.199 126.168 116.169 126.088 118.059 126.128C119.306 126.128 119.949 127.047 119.869 128.286C119.789 129.485 120.472 131.124 118.462 131.404C117.135 131.603 115.727 131.523 114.36 131.563C111.786 131.603 109.132 131.404 106.599 131.723C104.025 132.043 103.221 131.204 103.462 128.606C103.784 125.329 103.663 121.972 103.623 118.655C103.542 114.419 103.382 110.182 103.221 105.946C103.181 104.428 103.02 102.949 102.859 101.43C102.698 99.8715 103.462 98.9523 105.071 98.9124C106.518 98.9124 108.006 98.9124 109.977 98.9124H110.057Z" fill="#F5EDD8"></path>
<path d="M173.071 18.1839C177.977 17.2647 180.149 19.4628 178.983 23.8589C178.862 24.3784 178.098 25.1377 177.696 25.0978C176.731 24.9779 175.323 24.6981 175.001 24.0187C174.117 22.2203 173.674 20.1422 173.071 18.1839Z" fill="#F5EDD8"></path>
</svg>