<svg xmlns="http://www.w3.org/2000/svg" width="266.357" height="121.071" viewBox="0 0 266.357 121.071" fill="none">
  <path d="M 241.398 0 C 242.409 0.834 243.352 1.402 243.992 2.169 C 244.329 2.569 244.497 3.504 244.261 4.004 C 242.274 8.342 240.051 12.614 238.165 16.985 C 235.537 23.092 231.664 28.464 228.363 34.17 C 226.847 36.773 225.837 39.743 224.927 42.646 C 224.085 45.382 226.073 47.351 228.902 46.917 C 229.778 46.784 230.687 46.784 231.529 46.55 C 231.967 46.417 232.573 46.016 232.674 45.616 C 234.089 40.277 236.952 35.872 241.028 32.168 C 244.598 28.965 248.674 26.963 253.625 27.63 C 256.892 28.064 260.025 30.166 257.667 34.404 C 256.454 36.573 255.276 38.742 254.4 41.044 C 253.895 42.379 253.726 43.981 253.861 45.382 C 254.097 47.718 256.488 48.719 259.317 48.085 C 261.608 47.585 263.966 47.318 266.357 47.218 C 264.707 49.654 262.282 50.788 259.722 51.623 C 258.644 51.99 257.465 52.19 256.32 52.29 C 251.941 52.657 249.549 50.722 248.808 46.25 C 246.855 48.019 245.07 49.987 242.948 51.489 C 240.489 53.258 237.761 54.559 234.594 53.024 C 234.392 52.924 234.123 52.857 234.022 52.69 C 233.045 51.122 231.63 51.055 229.946 51.289 C 225.803 51.823 221.323 48.586 220.279 44.682 C 220.212 44.381 219.976 44.114 219.707 43.614 C 217.147 45.816 214.519 47.852 212.128 50.121 C 209.467 52.657 206.503 54.292 202.731 54.325 C 200.777 54.325 199.295 53.591 198.486 52.524 C 195.556 52.924 192.895 53.358 190.234 53.625 C 186.091 54.059 184.542 51.089 184.744 48.185 C 184.879 45.85 185.889 43.547 186.63 41.278 C 187.236 39.409 188.281 37.641 188.617 35.739 C 189.022 33.303 187.843 32.669 185.519 33.603 C 182.016 35.005 180.062 37.908 178.412 40.944 C 176.391 44.682 174.673 48.553 172.753 52.357 C 172.012 53.858 171.17 55.527 169.048 54.893 C 167.97 54.559 167.061 53.658 166.32 53.224 C 161.84 53.825 157.427 54.559 152.981 54.893 C 150.59 55.06 148.131 54.626 146.009 53.124 C 145.571 52.824 144.56 52.857 144.089 53.158 C 141.495 54.826 138.666 55.493 135.601 55.694 C 133.479 55.827 131.424 55.86 129.538 54.726 C 129.302 54.592 128.932 54.492 128.831 54.292 C 127.955 52.457 126.877 52.857 125.227 53.491 C 122.094 54.693 118.827 55.627 115.56 56.194 C 112.023 56.795 108.924 55.393 106.533 53.258 C 103.804 54.092 101.312 55.026 98.752 55.56 C 94.845 56.361 91.881 53.892 91.14 49.22 C 90.601 49.821 90.163 50.221 89.759 50.688 C 87.3 53.458 84.706 55.894 80.866 56.761 C 76.959 57.629 73.759 54.793 74.534 50.888 C 75.612 45.416 78.105 40.611 82.012 36.64 C 85.111 33.47 88.883 31.2 93.396 30.6 C 95.653 30.299 97.809 30.933 99.628 32.435 C 100.874 33.47 101.312 34.771 100.605 36.273 C 99.459 38.642 98.045 40.911 97.135 43.38 C 96.495 45.015 96.259 46.884 96.293 48.653 C 96.361 50.621 98.617 51.923 100.908 51.522 C 102.322 51.255 103.67 50.822 104.613 50.588 C 105.286 47.218 105.522 44.014 106.566 41.145 C 109.295 33.603 114.347 28.064 122.06 25.194 C 124.923 24.126 126.473 25.327 126.473 28.331 C 126.473 28.831 126.473 29.332 126.473 29.832 C 126.406 32.235 125.664 33.036 122.97 33.47 L 122.97 29.065 C 120.578 29.332 119.063 30.833 117.749 32.268 C 114.212 36.106 111.316 40.31 110.204 45.583 C 109.328 49.754 111.383 52.156 115.526 51.222 C 119.501 50.321 123.441 49.22 127.382 48.185 C 127.685 48.119 128.022 47.785 128.191 47.518 C 131.391 42.579 134.557 37.607 137.757 32.669 C 138.565 31.434 141.293 30.566 142.405 31.367 C 142.775 31.634 142.876 32.836 142.607 33.336 C 141.057 35.872 139.373 38.308 137.723 40.777 C 135.904 43.514 133.681 46.05 133.075 49.387 C 132.974 50.021 132.94 50.655 132.873 51.356 C 136.746 52.09 140.283 51.155 143.853 49.954 C 143.146 46.817 143.213 43.714 144.56 40.744 C 146.986 35.438 151.028 31.801 156.585 30.033 C 157.899 29.632 159.819 29.932 160.998 30.667 C 162.985 31.868 162.345 34.17 161.974 36.006 C 161.402 38.842 159.415 40.811 157.259 42.646 C 155.272 44.315 153.217 45.916 151.297 47.685 C 149.983 48.886 150.287 49.62 151.971 50.254 C 154.834 51.289 157.629 50.788 160.459 50.188 C 162.075 49.854 163.76 49.687 165.309 49.22 C 166.117 48.986 166.993 48.352 167.431 47.652 C 170.799 42.312 174.1 36.873 177.401 31.501 C 177.805 30.833 178.142 30.066 178.715 29.632 C 179.759 28.831 180.702 29.298 181.443 30.233 C 182.386 31.434 183.363 31.567 184.542 30.533 C 185.114 30.033 185.822 29.665 186.462 29.232 C 188.112 28.13 189.796 27.897 191.413 29.165 C 193.03 30.433 194.175 31.968 193.501 34.27 C 192.626 37.24 191.817 40.244 191.076 43.28 C 190.807 44.481 190.739 45.783 190.807 47.051 C 190.84 48.085 191.413 48.819 192.659 48.686 C 192.76 48.686 192.895 48.686 192.996 48.686 C 196.533 48.519 196.802 49.187 197.308 45.382 C 198.082 39.343 201.754 35.205 206.368 31.734 C 210.141 28.865 214.385 26.996 219.168 26.729 C 220.549 26.662 222.031 27.063 223.378 27.496 C 224.725 27.897 225.433 27.563 226.005 26.328 C 230.148 17.686 234.695 9.243 240.421 1.468 C 240.725 1.034 241.061 0.601 241.432 0.1 L 241.398 0 Z M 201.888 46.25 C 202.293 47.218 202.461 48.753 203.135 49.02 C 204.01 49.353 205.493 48.986 206.335 48.386 C 208.726 46.717 211.084 44.949 213.206 42.98 C 216.17 40.21 218.898 37.207 221.694 34.27 C 222.098 33.837 222.266 33.169 222.502 32.635 C 221.829 32.335 221.189 31.834 220.515 31.768 C 215.698 31.367 211.555 33.203 207.918 36.039 C 204.684 38.575 202.158 41.712 201.855 46.283 L 201.888 46.25 Z M 93.868 36.573 C 91.78 36.206 90.096 36.406 87.199 38.175 C 82.685 40.944 79.216 44.515 79.587 50.388 C 79.654 51.689 80.058 52.123 81.304 51.589 C 81.877 51.356 82.45 51.155 82.955 50.855 C 86.559 48.719 89.792 46.083 92.049 42.546 C 93.194 40.777 94.239 38.875 93.868 36.606 L 93.868 36.573 Z M 251.537 33.236 C 249.482 32.902 247.832 33.169 244.43 35.205 C 240.017 37.841 237.019 41.478 237.255 46.951 C 237.323 48.553 237.727 48.853 239.175 48.219 C 243.285 46.384 246.619 43.614 249.179 39.977 C 250.56 38.041 251.941 35.939 251.57 33.236 L 251.537 33.236 Z M 157.36 34.504 C 154.396 34.07 150.152 39.076 149.781 42.346 C 152.341 42.846 156.855 38.241 157.36 34.504 Z" fill="currentColor" fill-rule="nonzero"></path>
  <path d="M 206.739 95.236 C 206.739 86.66 209.299 80.12 214.351 74.647 C 217.888 70.843 222.671 68.941 227.689 68.04 C 235.639 66.605 243.386 67.773 250.223 72.245 C 256.724 76.483 260.429 82.589 261.507 90.298 C 262.484 97.272 261.338 103.846 257.33 109.652 C 253.052 115.825 247.394 119.963 239.512 120.797 C 230.856 121.732 222.873 120.397 215.968 114.924 C 212.397 112.088 210.073 108.217 208.49 103.979 C 207.311 100.809 206.436 97.572 206.705 95.236 L 206.739 95.236 Z M 215.025 93.535 C 214.486 107.55 224.927 113.49 234.729 113.723 C 244.16 113.957 253.524 104.346 253.625 93.668 C 253.726 84.458 244.699 75.982 235.74 75.215 C 225.365 74.314 213.745 84.358 215.025 93.535 Z" fill="currentColor" fill-rule="nonzero"></path>
  <path d="M 156.417 120.097 C 153.486 120.464 152.308 118.295 151.028 116.359 C 148.198 112.055 145.369 107.717 142.54 103.379 C 141.9 102.411 141.361 101.376 140.62 100.509 C 139.239 98.907 137.352 99.141 136.78 101.109 C 136.275 102.845 136.072 104.747 136.207 106.515 C 136.477 109.886 137.117 113.223 137.521 116.593 C 137.925 119.73 135.601 120.264 133.209 119.997 C 132.603 119.93 131.997 119.696 131.424 119.73 C 127.517 119.896 127.45 118.428 127.719 115.191 C 128.056 110.92 128.797 106.682 128.965 102.411 C 129.167 96.471 129.167 90.498 128.965 84.525 C 128.831 80.354 128.09 76.249 127.753 72.078 C 127.652 70.91 127.82 69.642 128.123 68.507 C 128.224 68.107 129.033 67.64 129.504 67.607 C 130.885 67.607 132.266 67.807 133.647 67.873 C 137.319 68.107 140.99 68.307 144.628 68.541 C 149.377 68.875 153.823 70.009 157.192 73.713 C 159.01 75.749 160.088 78.018 160.088 80.721 C 160.088 82.923 160.088 85.192 159.785 87.361 C 159.28 91.099 156.855 93.535 153.621 95.236 C 152.409 95.87 151.196 96.571 150.051 97.339 C 148.468 98.373 148.198 99.441 149.343 100.909 C 151.836 104.079 154.497 107.116 157.023 110.253 C 158.775 112.455 160.492 114.691 162.109 116.96 C 162.48 117.494 162.715 118.462 162.513 119.029 C 162.345 119.429 161.301 119.529 160.627 119.629 C 159.246 119.796 157.865 119.896 156.484 119.997 L 156.417 120.097 Z M 152.004 83.49 C 151.668 79.286 150.691 77.317 147.491 76.383 C 145.335 75.782 143.045 75.649 140.855 75.215 C 137.622 74.547 134.927 76.883 135.23 80.087 C 135.5 82.856 135.702 85.659 135.87 88.462 C 136.005 90.565 137.319 92.066 139.474 92.267 C 140.721 92.367 142.034 92.4 143.247 92.267 C 145.47 91.966 148.063 92.166 149.343 89.897 C 150.623 87.595 151.398 85.059 152.038 83.524 L 152.004 83.49 Z" fill="currentColor" fill-rule="nonzero"></path>
  <path d="M 58.03 59.464 C 61.735 54.926 64.194 49.921 64.396 43.847 C 61.533 44.415 58.838 44.915 56.177 45.516 C 53.887 46.05 51.63 46.851 49.339 47.318 C 46.14 47.952 44.018 50.121 41.727 52.123 C 38.662 54.792 35.732 57.596 32.566 60.132 C 28.423 63.435 23.572 65.404 18.25 65.704 C 14.714 65.905 11.11 66.038 7.607 65.671 C 2.554 65.137 -0.477 60.966 0.062 55.96 C 0.264 54.058 2.453 52.523 4.44 52.79 C 4.238 53.791 3.935 54.792 3.902 55.827 C 3.834 59.064 5.013 60.632 8.146 61.667 C 10.908 62.568 13.771 62.267 16.533 61.9 C 22.259 61.099 27.446 58.864 32.128 55.46 C 36.641 52.156 40.043 47.918 43.108 43.38 C 47.285 37.207 50.316 30.433 53.28 23.592 C 54.897 19.821 56.918 16.217 58.838 12.58 C 59.545 11.279 60.556 11.245 61.398 12.447 C 62.408 13.848 62.779 15.35 62.004 17.085 C 58.467 24.893 54.964 32.702 51.495 40.544 C 51.293 41.011 51.192 41.545 51.057 42.079 C 56.009 41.011 60.859 40.077 65.642 38.909 C 66.45 38.708 67.292 37.741 67.697 36.94 C 71.907 28.464 76.016 19.921 80.159 11.412 C 80.294 11.179 80.328 10.845 80.53 10.678 C 81.035 10.211 81.608 9.844 82.18 9.41 C 82.45 10.011 82.921 10.578 82.989 11.212 C 83.359 14.482 81.877 17.319 80.631 20.188 C 76.926 28.798 73.187 37.407 69.448 46.016 C 67.697 50.054 65.979 54.092 64.16 58.096 C 62.981 60.766 59.714 61.5 58.063 59.531 L 58.03 59.464 Z" fill="currentColor" fill-rule="nonzero"></path>
  <path d="M 185.215 119.73 C 184.609 119.73 183.969 119.763 183.363 119.73 C 181.881 119.629 181.005 118.795 180.904 117.327 C 180.837 116.126 180.837 114.891 180.904 113.656 C 180.972 111.521 181.174 109.352 181.207 107.216 C 181.342 97.572 181.477 87.928 181.51 78.285 C 181.51 75.949 181.106 73.58 180.87 71.244 C 180.668 69.375 181.847 68.174 184.475 68.474 C 185.62 68.608 186.799 68.608 187.978 68.608 C 189.359 68.608 190.167 69.075 190.099 70.643 C 189.931 74.848 189.864 79.052 189.729 83.257 C 189.527 89.096 189.123 94.969 189.123 100.809 C 189.123 105.948 189.561 111.053 189.729 116.192 C 189.83 119.362 189.358 119.73 186.058 119.763 C 185.788 119.763 185.485 119.763 185.215 119.763 L 185.215 119.73 Z" fill="currentColor" fill-rule="nonzero"></path>
  <path d="M 34.081 82.289 C 37.146 82.723 40.245 83.023 43.277 83.691 C 47.184 84.525 51.024 89.697 51.36 93.735 C 51.664 97.305 50.754 100.509 49.205 103.646 C 47.453 107.183 44.287 108.684 40.717 109.318 C 37.82 109.819 34.856 109.919 31.926 110.019 C 29.601 110.119 28.961 109.385 28.995 107.049 C 28.995 105.114 29.298 103.212 29.298 101.276 C 29.298 98.34 29.029 95.437 28.995 92.5 C 28.995 90.631 29.197 88.763 29.298 86.894 C 29.298 86.627 29.298 86.327 29.298 86.06 C 29.164 83.746 30.298 82.589 32.7 82.589 C 33.138 82.589 33.61 82.589 34.048 82.589 C 34.048 82.489 34.048 82.389 34.081 82.289 Z M 37.382 87.395 C 36.978 87.395 36.607 87.395 36.203 87.395 C 34.081 87.395 33.677 87.828 33.812 89.964 C 33.913 91.232 34.115 92.467 34.115 93.735 C 34.115 95.437 33.879 97.138 33.812 98.84 C 33.744 100.309 33.711 101.777 33.812 103.212 C 33.913 104.38 34.485 105.414 35.9 105.247 C 37.247 105.08 38.628 104.813 39.942 104.446 C 44.354 103.178 46.78 99.875 46.746 95.303 C 46.746 94.869 46.611 94.436 46.51 94.035 C 45.87 90.565 41.155 86.894 37.315 87.395 L 37.382 87.395 Z" fill="currentColor" fill-rule="nonzero"></path>
  <path d="M 70.593 87.061 C 69.583 87.061 68.572 87.061 67.562 87.061 C 65.642 87.061 65.137 87.761 65.137 90.264 C 65.137 92.266 65.743 92.967 67.629 92.934 C 69.28 92.9 70.964 92.8 72.614 92.6 C 75.376 92.3 76.757 93.768 76.252 96.504 C 76.016 97.706 75.14 97.405 74.399 97.372 C 72.176 97.305 69.953 97.238 67.73 97.038 C 66.08 96.905 65.271 97.639 65.204 99.107 C 65.137 100.742 65.271 102.411 65.507 104.012 C 65.575 104.48 66.349 105.18 66.821 105.214 C 68.471 105.28 70.155 105.114 71.84 105.047 C 72.277 105.047 72.715 104.98 73.187 104.947 C 76.151 104.947 77.33 106.849 75.881 109.452 C 75.612 109.885 74.669 110.152 74.029 110.152 C 70.256 110.152 66.484 109.986 62.745 110.052 C 60.825 110.086 59.478 108.951 60.084 107.116 C 60.893 104.68 60.724 102.277 60.387 99.774 C 60.219 98.34 60.657 96.805 60.623 95.336 C 60.59 91.566 60.455 87.828 60.286 84.057 C 60.253 82.89 60.657 82.489 61.836 82.522 C 63.655 82.589 65.474 82.522 67.259 82.522 C 69.616 82.522 71.974 82.589 74.332 82.522 C 75.915 82.489 76.252 83.357 76.218 84.625 C 76.185 85.859 75.881 86.961 74.298 86.994 C 73.052 86.994 71.84 86.994 70.593 86.994 L 70.593 87.061 Z" fill="currentColor" fill-rule="nonzero"></path>
  <path d="M 92.184 82.589 C 92.049 85.693 91.914 88.529 91.746 91.399 C 91.746 91.666 91.712 91.966 91.712 92.233 C 91.712 96.037 91.712 99.808 91.712 103.612 C 91.712 105.147 92.554 105.714 94.07 105.548 C 95.653 105.347 97.304 105.281 98.887 105.314 C 99.931 105.314 100.47 106.081 100.402 107.116 C 100.335 108.117 100.908 109.485 99.224 109.719 C 98.112 109.886 96.933 109.819 95.788 109.852 C 93.632 109.886 91.409 109.719 89.287 109.986 C 87.131 110.253 86.458 109.552 86.66 107.383 C 86.929 104.647 86.828 101.844 86.795 99.074 C 86.727 95.537 86.593 92 86.458 88.462 C 86.424 87.194 86.289 85.96 86.155 84.692 C 86.02 83.39 86.66 82.623 88.007 82.589 C 89.22 82.589 90.466 82.589 92.117 82.589 L 92.184 82.589 Z" fill="currentColor" fill-rule="nonzero"></path>
  <path d="M 144.965 15.183 C 149.074 14.416 150.893 16.251 149.916 19.922 C 149.815 20.355 149.175 20.989 148.838 20.956 C 148.03 20.856 146.851 20.622 146.581 20.055 C 145.84 18.553 145.47 16.818 144.965 15.183 Z" fill="currentColor" fill-rule="nonzero"></path>
</svg>