<svg xmlns="http://www.w3.org/2000/svg" width="1857" height="855.084" viewBox="0 0 1857 855.084" fill="none">
  <path d="M 1682.99 0 C 1690.035 5.892 1696.611 9.898 1701.072 15.319 C 1703.421 18.147 1704.595 24.746 1702.951 28.281 C 1689.096 58.919 1673.597 89.086 1660.447 119.959 C 1642.13 163.088 1615.124 201.032 1592.111 241.333 C 1581.543 259.715 1574.499 280.691 1568.158 301.194 C 1562.288 320.52 1576.143 334.425 1595.868 331.361 C 1601.974 330.418 1608.314 330.418 1614.185 328.769 C 1617.238 327.826 1621.465 324.998 1622.169 322.17 C 1632.032 284.461 1651.993 253.352 1680.407 227.192 C 1705.3 204.567 1733.714 190.426 1768.234 195.14 C 1791.012 198.204 1812.852 213.051 1796.414 242.982 C 1787.96 258.301 1779.741 273.62 1773.635 289.882 C 1770.113 299.309 1768.939 310.621 1769.878 320.52 C 1771.522 337.017 1788.194 344.087 1807.92 339.61 C 1823.889 336.075 1840.327 334.189 1857 333.482 C 1845.493 350.686 1828.586 358.699 1810.738 364.591 C 1803.224 367.184 1795.005 368.598 1787.02 369.305 C 1756.492 371.897 1739.82 358.228 1734.653 326.647 C 1721.033 339.138 1708.587 353.043 1693.793 363.649 C 1676.65 376.14 1657.629 385.331 1635.555 374.49 C 1634.146 373.783 1632.267 373.311 1631.563 372.133 C 1624.752 361.056 1614.89 360.585 1603.148 362.235 C 1574.264 366.005 1543.031 343.145 1535.752 315.571 C 1535.282 313.45 1533.638 311.564 1531.76 308.029 C 1513.913 323.584 1495.596 337.96 1478.923 353.986 C 1460.371 371.897 1439.706 383.445 1413.405 383.681 C 1399.785 383.681 1389.452 378.496 1383.816 370.955 C 1363.386 373.783 1344.835 376.846 1326.283 378.732 C 1297.399 381.796 1286.597 360.821 1288.005 340.317 C 1288.945 323.819 1295.99 307.558 1301.156 291.532 C 1305.383 278.334 1312.663 265.843 1315.011 252.409 C 1317.829 235.205 1309.61 230.727 1293.407 237.326 C 1268.984 247.224 1255.364 267.728 1243.858 289.175 C 1229.768 315.571 1217.791 342.909 1204.406 369.776 C 1199.24 380.382 1193.369 392.165 1178.575 387.688 C 1171.06 385.331 1164.72 378.968 1159.553 375.904 C 1128.321 380.146 1097.558 385.331 1066.56 387.688 C 1049.887 388.866 1032.745 385.802 1017.951 375.197 C 1014.898 373.076 1007.853 373.311 1004.565 375.432 C 986.483 387.216 966.757 391.93 945.388 393.344 C 930.594 394.287 916.269 394.522 903.118 386.509 C 901.475 385.566 898.891 384.859 898.187 383.445 C 892.081 370.483 884.567 373.311 873.06 377.789 C 851.221 386.274 828.442 392.872 805.664 396.879 C 781.007 401.121 759.402 391.223 742.729 376.139 C 723.708 382.031 706.331 388.63 688.483 392.401 C 661.243 398.057 640.578 380.617 635.412 347.623 C 631.654 351.865 628.602 354.693 625.784 357.992 C 608.641 377.554 590.559 394.758 563.788 400.885 C 536.548 407.013 514.239 386.981 519.64 359.406 C 527.155 320.756 544.532 286.818 571.773 258.773 C 593.377 236.383 619.678 220.357 651.145 216.115 C 666.879 213.994 681.908 218.472 694.589 229.077 C 703.278 236.383 706.331 245.575 701.399 256.18 C 693.415 272.913 683.552 288.939 677.211 306.379 C 672.75 317.927 671.106 331.125 671.341 343.616 C 671.81 357.521 687.544 366.712 703.512 363.884 C 713.375 361.999 722.769 358.935 729.344 357.285 C 734.04 333.482 735.684 310.857 742.964 290.589 C 761.985 237.326 797.21 198.204 850.986 177.936 C 870.947 170.394 881.749 178.878 881.749 200.089 C 881.749 203.624 881.749 207.16 881.749 210.695 C 881.279 227.663 876.113 233.32 857.326 236.383 L 857.326 205.274 C 840.653 207.16 830.086 217.765 820.928 227.899 C 796.271 255.002 776.075 284.697 768.326 321.934 C 762.22 351.393 776.545 368.362 805.429 361.763 C 833.139 355.4 860.614 347.623 888.089 340.317 C 890.203 339.845 892.551 337.489 893.725 335.603 C 916.034 300.723 938.108 265.607 960.417 230.727 C 966.053 222.007 985.074 215.88 992.824 221.536 C 995.407 223.421 996.111 231.906 994.233 235.441 C 983.43 253.352 971.689 270.556 960.182 287.996 C 947.501 307.322 932.003 325.233 927.776 348.801 C 927.071 353.279 926.836 357.757 926.367 362.706 C 953.372 367.891 978.029 361.292 1002.921 352.807 C 997.99 330.654 998.46 308.736 1007.853 287.761 C 1024.761 250.288 1052.94 224.6 1091.687 212.109 C 1100.846 209.281 1114.231 211.402 1122.45 216.587 C 1136.305 225.071 1131.843 241.333 1129.26 254.295 C 1125.268 274.327 1111.413 288.232 1096.384 301.194 C 1082.529 312.978 1068.204 324.291 1054.819 336.782 C 1045.661 345.266 1047.774 350.451 1059.516 354.929 C 1079.476 362.235 1098.967 358.699 1118.693 354.457 C 1129.965 352.1 1141.706 350.922 1152.508 347.623 C 1158.144 345.973 1164.25 341.495 1167.303 336.546 C 1190.786 298.838 1213.799 260.422 1236.813 222.478 C 1239.631 217.765 1241.979 212.344 1245.971 209.281 C 1253.251 203.624 1259.826 206.924 1264.992 213.523 C 1271.568 222.007 1278.377 222.95 1286.597 215.644 C 1290.589 212.109 1295.52 209.516 1299.982 206.452 C 1311.489 198.675 1323.23 197.025 1334.502 205.981 C 1345.774 214.937 1353.758 225.778 1349.061 242.04 C 1342.956 263.015 1337.32 284.226 1332.154 305.672 C 1330.275 314.157 1329.805 323.348 1330.275 332.304 C 1330.51 339.61 1334.502 344.794 1343.191 343.852 C 1343.895 343.852 1344.834 343.852 1345.539 343.852 C 1370.196 342.673 1372.075 347.387 1375.597 320.52 C 1380.999 277.862 1406.595 248.639 1438.767 224.128 C 1465.068 203.86 1494.656 190.662 1528.002 188.777 C 1537.63 188.305 1547.963 191.134 1557.356 194.197 C 1566.749 197.025 1571.681 194.669 1575.673 185.949 C 1604.557 124.908 1636.259 65.282 1676.18 10.37 C 1678.294 7.306 1680.642 4.242 1683.225 0.707 L 1682.99 0 Z M 1407.534 326.647 C 1410.352 333.482 1411.527 344.323 1416.223 346.209 C 1422.329 348.565 1432.661 345.973 1438.532 341.731 C 1455.205 329.947 1471.643 317.456 1486.437 303.551 C 1507.102 283.99 1526.124 262.779 1545.615 242.04 C 1548.433 238.976 1549.607 234.262 1551.251 230.491 C 1546.554 228.37 1542.092 224.835 1537.396 224.364 C 1503.815 221.536 1474.931 234.498 1449.569 254.53 C 1427.025 272.442 1409.413 294.595 1407.299 326.883 L 1407.534 326.647 Z M 654.433 258.301 C 639.874 255.709 628.132 257.123 607.936 269.614 C 576.469 289.175 552.282 314.392 554.865 355.871 C 555.334 365.063 558.152 368.126 566.841 364.356 C 570.833 362.706 574.825 361.292 578.348 359.171 C 603.475 344.087 626.018 325.469 641.752 300.487 C 649.736 287.997 657.016 274.563 654.433 258.537 L 654.433 258.301 Z M 1753.675 234.734 C 1739.35 232.377 1727.843 234.262 1704.125 248.639 C 1673.362 267.257 1652.462 292.946 1654.106 331.597 C 1654.576 342.909 1657.394 345.03 1667.492 340.552 C 1696.141 327.59 1719.389 308.029 1737.236 282.34 C 1746.865 268.671 1756.492 253.823 1753.909 234.734 L 1753.675 234.734 Z M 1097.088 243.689 C 1076.423 240.626 1046.835 275.977 1044.252 299.073 C 1062.099 302.608 1093.566 270.085 1097.088 243.689 Z" fill="currentColor" fill-rule="nonzero"></path>
  <path d="M 1441.35 672.62 C 1441.35 612.052 1459.197 565.859 1494.422 527.208 C 1519.079 500.341 1552.425 486.907 1587.414 480.544 C 1642.834 470.41 1696.845 478.659 1744.516 510.239 C 1789.838 540.17 1815.67 583.299 1823.184 637.74 C 1829.994 686.997 1822.01 733.425 1794.065 774.433 C 1764.242 818.033 1724.791 847.257 1669.84 853.148 C 1609.489 859.747 1553.834 850.32 1505.693 811.669 C 1480.802 791.637 1464.598 764.299 1453.561 734.368 C 1445.342 711.978 1439.237 689.118 1441.115 672.62 L 1441.35 672.62 Z M 1499.118 660.601 C 1495.361 759.585 1568.158 801.535 1636.494 803.185 C 1702.247 804.835 1767.529 736.96 1768.234 661.544 C 1768.938 596.497 1706.004 536.635 1643.539 531.215 C 1571.211 524.851 1490.195 595.79 1499.118 660.601 Z" fill="currentColor" fill-rule="nonzero"></path>
  <path d="M 1090.513 848.199 C 1070.083 850.792 1061.864 835.473 1052.94 821.804 C 1033.214 791.401 1013.489 760.763 993.763 730.125 C 989.301 723.291 985.544 715.985 980.378 709.857 C 970.75 698.545 957.599 700.195 953.607 714.099 C 950.085 726.355 948.676 739.788 949.615 752.279 C 951.494 776.082 955.955 799.65 958.773 823.453 C 961.591 845.607 945.388 849.378 928.715 847.492 C 924.488 847.021 920.261 845.371 916.269 845.607 C 889.029 846.785 888.559 836.415 890.438 813.555 C 892.786 783.388 897.952 753.457 899.126 723.291 C 900.535 681.34 900.535 639.154 899.126 596.968 C 898.187 567.509 893.021 538.52 890.673 509.061 C 889.968 500.812 891.142 491.857 893.256 483.844 C 893.96 481.016 899.596 477.716 902.884 477.48 C 912.512 477.48 922.14 478.894 931.768 479.366 C 957.364 481.016 982.961 482.43 1008.323 484.079 C 1041.434 486.436 1072.431 494.449 1095.914 520.609 C 1108.595 534.985 1116.11 551.011 1116.11 570.101 C 1116.11 585.656 1116.11 601.682 1113.996 617.001 C 1110.474 643.397 1093.566 660.601 1071.022 672.62 C 1062.568 677.098 1054.115 682.047 1046.13 687.468 C 1035.093 694.774 1033.214 702.316 1041.199 712.685 C 1058.576 735.075 1077.128 756.521 1094.74 778.675 C 1106.951 794.229 1118.928 810.02 1130.2 826.046 C 1132.783 829.816 1134.427 836.651 1133.018 840.658 C 1131.843 843.486 1124.564 844.193 1119.867 844.9 C 1110.239 846.078 1100.611 846.785 1090.983 847.492 L 1090.513 848.199 Z M 1059.75 589.662 C 1057.402 559.967 1050.592 546.062 1028.283 539.463 C 1013.254 535.221 997.286 534.278 982.022 531.215 C 959.478 526.501 940.691 542.998 942.805 565.623 C 944.684 585.184 946.092 604.981 947.267 624.778 C 948.206 639.626 957.364 650.231 972.393 651.645 C 981.082 652.352 990.241 652.588 998.694 651.645 C 1014.193 649.524 1032.275 650.938 1041.199 634.912 C 1050.122 618.651 1055.523 600.739 1059.985 589.898 L 1059.75 589.662 Z" fill="currentColor" fill-rule="nonzero"></path>
  <path d="M 404.573 419.974 C 430.405 387.922 447.547 352.571 448.956 309.678 C 428.996 313.684 410.209 317.219 391.658 321.461 C 375.689 325.232 359.956 330.889 343.987 334.188 C 321.678 338.666 306.884 353.985 290.915 368.125 C 269.546 386.979 249.116 406.776 227.042 424.688 C 198.157 448.02 164.342 461.925 127.239 464.046 C 102.581 465.46 77.454 466.402 53.032 463.81 C 17.808 460.039 -3.327 430.58 0.43 395.228 C 1.839 381.795 17.103 370.953 30.958 372.839 C 29.549 379.909 27.436 386.98 27.201 394.286 C 26.731 417.146 34.95 428.223 56.79 435.529 C 76.046 441.892 96.006 439.771 115.262 437.179 C 155.183 431.522 191.347 415.732 223.989 391.693 C 255.456 368.361 279.174 338.43 300.543 306.378 C 329.662 262.778 350.797 214.936 371.462 166.622 C 382.734 139.991 396.824 114.538 410.209 88.849 C 415.141 79.657 422.186 79.422 428.056 87.906 C 435.101 97.805 437.684 108.41 432.283 120.665 C 407.626 175.813 383.204 230.962 359.016 286.346 C 357.607 289.645 356.903 293.416 355.963 297.187 C 390.484 289.645 424.299 283.046 457.645 274.798 C 463.281 273.384 469.152 266.549 471.97 260.893 C 501.324 201.031 529.973 140.698 558.857 80.6 C 559.796 78.95 560.031 76.594 561.44 75.415 C 564.963 72.116 568.955 69.523 572.947 66.46 C 574.825 70.702 578.113 74.708 578.583 79.186 C 581.166 102.282 570.833 122.315 562.145 142.583 C 536.313 203.388 510.247 264.192 484.181 324.997 C 471.97 353.513 459.993 382.03 447.313 410.311 C 439.093 429.166 416.315 434.35 404.808 420.446 L 404.573 419.974 Z" fill="currentColor" fill-rule="nonzero"></path>
  <path d="M 1291.293 845.607 C 1287.066 845.607 1282.604 845.842 1278.377 845.607 C 1268.045 844.9 1261.94 839.008 1261.235 828.638 C 1260.765 820.154 1260.765 811.434 1261.235 802.714 C 1261.705 787.63 1263.113 772.311 1263.348 757.228 C 1264.288 689.118 1265.227 621.007 1265.462 552.897 C 1265.462 536.399 1262.644 519.666 1261 503.169 C 1259.591 489.971 1267.81 481.487 1286.127 483.608 C 1294.111 484.55 1302.33 484.55 1310.549 484.55 C 1320.177 484.55 1325.813 487.85 1325.344 498.927 C 1324.169 528.622 1323.7 558.317 1322.76 588.012 C 1321.352 629.256 1318.533 670.735 1318.533 711.978 C 1318.533 748.272 1321.586 784.331 1322.76 820.625 C 1323.465 843.014 1320.177 845.607 1297.164 845.842 C 1295.285 845.842 1293.172 845.842 1291.293 845.842 L 1291.293 845.607 Z" fill="currentColor" fill-rule="nonzero"></path>
  <path d="M 237.609 581.178 C 258.978 584.242 280.583 586.363 301.718 591.076 C 328.958 596.968 355.729 633.498 358.077 662.015 C 360.19 687.232 353.85 709.857 343.048 732.011 C 330.837 756.993 308.762 767.598 283.87 772.076 C 263.675 775.611 243.01 776.318 222.58 777.025 C 206.376 777.732 201.915 772.547 202.149 756.05 C 202.149 742.381 204.263 728.947 204.263 715.278 C 204.263 694.538 202.384 674.034 202.149 653.295 C 202.149 640.097 203.558 626.899 204.263 613.701 C 204.263 611.816 204.263 609.695 204.263 607.809 C 203.324 591.469 211.23 583.299 227.981 583.299 C 231.034 583.299 234.321 583.299 237.374 583.299 C 237.374 582.592 237.374 581.885 237.609 581.178 Z M 260.622 617.236 C 257.804 617.236 255.221 617.236 252.403 617.236 C 237.609 617.236 234.791 620.3 235.73 635.384 C 236.435 644.339 237.844 653.059 237.844 662.015 C 237.844 674.034 236.2 686.054 235.73 698.073 C 235.26 708.443 235.026 718.813 235.73 728.947 C 236.435 737.196 240.427 744.502 250.29 743.323 C 259.683 742.145 269.311 740.259 278.469 737.667 C 309.232 728.711 326.14 705.379 325.905 673.092 C 325.905 670.028 324.966 666.964 324.261 664.136 C 319.799 639.626 286.923 613.701 260.153 617.236 L 260.622 617.236 Z" fill="currentColor" fill-rule="nonzero"></path>
  <path d="M 492.165 614.878 C 485.12 614.878 478.075 614.878 471.03 614.878 C 457.645 614.878 454.122 619.828 454.122 637.503 C 454.122 651.644 458.349 656.593 471.5 656.357 C 483.007 656.122 494.748 655.415 506.255 654.001 C 525.511 651.88 535.139 662.249 531.617 681.575 C 529.973 690.059 523.867 687.938 518.701 687.702 C 503.202 687.231 487.703 686.76 472.204 685.346 C 460.698 684.403 455.062 689.588 454.592 699.958 C 454.122 711.506 455.062 723.289 456.706 734.602 C 457.175 737.901 462.576 742.851 465.864 743.086 C 477.371 743.558 489.112 742.379 500.854 741.908 C 503.907 741.908 506.959 741.437 510.247 741.201 C 530.912 741.201 539.131 754.634 529.033 773.017 C 527.155 776.081 520.58 777.966 516.118 777.966 C 489.817 777.966 463.516 776.788 437.45 777.26 C 424.064 777.495 414.671 769.482 418.898 756.52 C 424.534 739.315 423.36 722.347 421.011 704.671 C 419.837 694.537 422.89 683.696 422.655 673.326 C 422.42 646.695 421.481 620.299 420.307 593.668 C 420.072 585.419 422.89 582.591 431.109 582.826 C 443.79 583.298 456.471 582.826 468.917 582.826 C 485.355 582.826 501.793 583.298 518.231 582.826 C 529.268 582.591 531.617 588.718 531.382 597.674 C 531.147 606.394 529.033 614.171 517.996 614.407 C 509.308 614.407 500.854 614.407 492.165 614.407 L 492.165 614.878 Z" fill="currentColor" fill-rule="nonzero"></path>
  <path d="M 642.692 583.299 C 641.752 605.217 640.813 625.25 639.639 645.518 C 639.639 647.403 639.404 649.524 639.404 651.41 C 639.404 678.277 639.404 704.908 639.404 731.775 C 639.404 742.616 645.275 746.623 655.842 745.444 C 666.879 744.03 678.386 743.559 689.423 743.795 C 696.703 743.795 700.46 749.215 699.99 756.521 C 699.52 763.591 703.513 773.254 691.771 774.904 C 684.022 776.082 675.803 775.611 667.818 775.847 C 652.789 776.082 637.29 774.904 622.496 776.789 C 607.467 778.675 602.77 773.726 604.179 758.407 C 606.058 739.081 605.354 719.284 605.119 699.723 C 604.649 674.742 603.71 649.76 602.77 624.778 C 602.536 615.822 601.596 607.102 600.657 598.147 C 599.718 588.955 604.179 583.535 613.573 583.299 C 622.026 583.299 630.715 583.299 642.222 583.299 L 642.692 583.299 Z" fill="currentColor" fill-rule="nonzero"></path>
  <path d="M 1010.671 107.233 C 1039.32 101.812 1052.001 114.774 1045.191 140.699 C 1044.486 143.763 1040.025 148.241 1037.676 148.005 C 1032.04 147.298 1023.821 145.648 1021.943 141.642 C 1016.776 131.036 1014.193 118.781 1010.671 107.233 Z" fill="currentColor" fill-rule="nonzero"></path>
</svg>