<svg width="707" height="244" viewBox="0 0 707 244" fill="none" xmlns="http://www.w3.org/2000/svg">
<path d="M685.267 228.682C687.264 228.682 689.192 228.445 690.952 228.005C692.746 227.769 694.404 227.329 695.994 226.686C697.788 226.009 699.108 224.926 700.022 223.369C701.375 220.73 702.018 217.616 702.018 214.097C702.018 211.017 701.68 208.141 701.003 205.501C700.563 202.625 699.886 200.222 699.006 198.225C698.566 197.549 697.01 197.007 694.302 196.567C691.629 195.89 688.617 195.45 685.233 195.247C682.086 195.01 678.972 194.909 675.825 194.909C672.915 194.672 671.02 194.571 670.14 194.571C666.35 194.571 662.661 195.01 659.074 195.89C655.724 196.567 652.374 196.872 649.023 196.872C646.35 196.872 643.778 196.432 641.307 195.552C638.397 194.232 636.604 191.897 635.927 188.615C635.25 185.298 634.912 181.88 634.912 178.361V169.427C634.675 166.99 634.573 164.587 634.573 162.151V154.537C634.573 146.144 634.81 137.887 635.25 129.697C635.69 121.305 636.13 112.912 636.604 104.554C636.84 100.594 636.942 96.601 636.942 92.6416C637.179 88.4453 637.28 84.3506 637.28 80.3912V59.8836C637.28 55.0443 637.517 50.0697 637.957 44.9935C638.194 43.2338 638.533 41.3387 638.972 39.3759C639.412 37.3793 639.649 35.5181 639.649 33.7584C639.649 31.1188 638.871 28.9191 637.314 27.1255C636.197 26.2457 634.979 25.7042 633.626 25.4673C632.272 25.2304 630.952 25.1289 629.598 25.1289C627.602 25.1289 625.571 25.3658 623.575 25.8057C621.781 26.0426 620.123 26.1441 618.533 26.1441C616.062 26.1441 613.964 26.0426 612.17 25.8057C610.614 25.5688 608.922 25.4673 607.128 25.4673C605.335 25.4673 603.676 25.7042 602.086 26.1441C600.732 26.5841 599.615 27.4639 598.736 28.7837L597.044 31.7617C596.604 33.9614 596.367 35.7211 596.367 37.0748C596.367 40.3912 596.705 43.8091 597.382 47.3286C598.262 50.645 598.736 53.623 598.736 56.2626C598.736 62.6585 598.634 69.0545 598.397 75.4504C598.16 81.6433 598.059 87.8024 598.059 93.9952V110.543C598.296 115.823 598.499 121.136 598.736 126.449L600.089 153.589C600.326 155.349 600.428 157.007 600.428 158.564V175.45C600.428 177.887 600.529 180.29 600.766 182.726C601.003 184.283 601.104 185.806 601.104 187.362V191.66C601.104 193.86 601.003 195.958 600.766 197.955V204.249C600.529 206.449 600.089 208.648 599.412 210.882C598.972 213.082 598.736 215.417 598.736 217.819V220.12C599.175 223.877 600.428 226.313 602.424 227.396C604.658 228.716 607.331 229.393 610.478 229.393C612.949 229.393 615.724 229.054 618.871 228.412C626.248 227.092 633.862 226.415 641.68 226.415C647.263 226.415 653.084 226.753 659.108 227.396C661.578 227.633 664.252 227.938 667.162 228.378C670.275 228.818 673.321 229.055 676.231 229.055H680.597C681.95 228.818 683.507 228.716 685.301 228.716H685.267V228.682Z" fill="#F3B495"></path>
<path d="M576.059 148.242C576.533 144.858 575.89 143.301 571.965 142.624C557.142 140.018 542.455 136.837 527.667 134.096C524.824 133.589 523.707 132.743 524.147 129.765C524.553 127.226 524.215 124.587 524.215 121.846C526.313 121.338 528.107 120.797 529.968 120.458C543.775 117.751 557.582 114.942 571.457 112.438C575.653 111.693 576.939 109.866 575.789 105.941C574.537 101.71 573.454 97.4126 572.202 92.8441C557.684 96.2282 543.809 99.4769 529.934 102.692C523.098 104.282 518.259 101.981 515.416 95.8221C515.349 95.6529 515.416 95.4498 515.416 94.2992C529.393 84.0454 543.843 73.487 558.834 62.4887C554.3 57.2095 550.205 52.438 545.907 47.4295C531.66 59.1046 518.124 70.2383 504.553 81.3381C501.135 78.7662 498.157 76.5327 495.213 74.3669C503.538 58.597 511.694 43.1656 520.053 27.2941C513.927 24.35 508.174 21.6089 501.982 18.6647C496.127 31.8965 490.374 44.7222 484.756 57.5818C481.666 64.6658 476.274 67.0573 468.581 64.7561V11.1182H449.934V64.9253C446.313 65.7713 442.827 66.5496 438.868 67.4634C431.119 51.0843 423.437 34.8407 415.552 18.0894C409.257 21.0674 403.606 23.7747 397.718 26.5835C406.652 43.1656 415.146 58.8678 423.741 74.773C420.729 76.9388 417.548 79.2062 414.401 81.4735C400.222 70.1368 386.381 59.037 372.1 47.5987C367.971 52.8441 364.181 57.6495 360.053 62.9287C374.841 73.8931 389.088 84.4854 403.572 95.2468C401.643 98.7662 399.883 101.981 397.988 105.433C380.357 101.169 363.098 97.0065 345.569 92.7764C344.384 97.548 343.64 101.609 342.32 105.467C340.729 110.069 342.252 111.693 346.956 112.573C362.624 115.484 378.191 118.8 393.995 122.015C393.995 123.842 393.826 125.331 393.995 126.787C394.57 131.389 393.454 133.995 387.904 134.333C382.252 134.671 376.668 136.262 371.051 137.379C361.237 139.342 351.457 141.372 341.102 143.47C342.557 148.986 343.843 153.859 345.129 158.699C345.907 161.609 347.599 162.252 350.679 161.474C362.624 158.36 374.706 155.585 386.685 152.607C394.04 150.757 399.376 153.16 402.692 159.815C402.828 160.086 402.692 160.492 402.624 160.864C388.411 171.186 374.164 181.541 359.24 192.37C363.741 197.446 368.039 202.286 372.404 207.227C386.651 195.856 400.222 185.027 413.995 174.062C417.278 176.499 420.222 178.732 423.335 181.034C414.638 196.668 406.178 211.93 397.379 227.734C402.185 230.001 406.516 231.829 410.611 234.062C414.13 235.991 415.856 235.281 417.514 231.626C422.726 220.188 428.31 208.885 433.724 197.514C436.838 190.949 442.083 188.851 449.427 191.186V243.166H468.242V199.951C468.242 193.589 471.355 189.866 477.616 188.817C478.157 188.715 478.699 188.851 479.443 188.919C480.729 191.423 482.117 193.893 483.301 196.397C488.919 208.073 494.401 219.849 500.188 231.423C500.966 232.979 503.741 235.145 504.723 234.773C509.799 232.844 514.604 230.205 519.883 227.599C511.457 211.558 503.369 196.194 495.213 180.628C498.496 178.292 501.44 176.262 504.621 174.029C518.259 185.095 531.694 196.059 545.535 207.294C549.765 202.218 553.691 197.48 557.988 192.303C543.234 181.304 529.02 170.678 514.672 159.985C515.315 158.631 515.992 157.683 516.229 156.634C517.582 150.678 520.865 149.9 526.618 151.558C537.582 154.739 548.784 157.007 559.883 159.612C573.318 162.759 573.961 162.252 575.924 148.309L576.059 148.242Z" fill="#F3B495"></path>
<path d="M685.367 229.221C687.364 229.221 689.293 228.984 691.052 228.544C692.846 228.308 694.504 227.868 696.095 227.225C697.888 226.548 699.208 225.465 700.122 223.908C701.475 221.269 702.118 218.155 702.118 214.636C702.118 211.556 701.78 208.68 701.103 206.04C700.663 203.164 699.986 200.761 699.106 198.764C698.666 198.088 697.11 197.546 694.402 197.106C691.729 196.429 688.717 195.989 685.333 195.786C682.186 195.55 679.073 195.448 675.925 195.448C673.015 195.211 671.12 195.11 670.24 195.11C666.45 195.11 662.761 195.55 659.174 196.429C655.824 197.106 652.474 197.411 649.123 197.411C646.45 197.411 643.878 196.971 641.408 196.091C638.497 194.771 636.704 192.436 636.027 189.154C635.35 185.837 635.012 182.419 635.012 178.9V169.966C634.775 167.529 634.673 165.127 634.673 162.69V155.076C634.673 146.683 634.91 138.426 635.35 130.237C635.79 121.844 636.23 113.451 636.704 105.093C636.941 101.133 637.042 97.1401 637.042 93.1807C637.279 88.9844 637.381 84.8896 637.381 80.9302V60.4226C637.381 55.5834 637.617 50.6087 638.057 45.5326C638.294 43.7729 638.633 41.8778 639.073 39.915C639.513 37.9184 639.749 36.0571 639.749 34.2974C639.749 31.6578 638.971 29.4582 637.414 27.6646C636.298 26.7847 635.079 26.2433 633.726 26.0064C632.372 25.7695 631.052 25.668 629.699 25.668C627.702 25.668 625.672 25.9049 623.675 26.3448C621.881 26.5817 620.223 26.6832 618.633 26.6832C616.162 26.6832 614.064 26.5817 612.271 26.3448C610.714 26.1079 609.022 26.0064 607.228 26.0064C605.435 26.0064 603.776 26.2433 602.186 26.6832C600.832 27.1231 599.716 28.003 598.836 29.3228L597.144 32.3008C596.704 34.5005 596.467 36.2602 596.467 37.6138C596.467 40.9302 596.805 44.3482 597.482 47.8676C598.362 51.184 598.836 54.162 598.836 56.8016C598.836 63.1976 598.734 69.5935 598.497 75.9895C598.26 82.1824 598.159 88.3414 598.159 94.5343V111.083C598.396 116.362 598.599 121.675 598.836 126.988L600.189 154.128C600.426 155.888 600.528 157.546 600.528 159.103V175.989C600.528 178.426 600.629 180.829 600.866 183.265C601.103 184.822 601.205 186.345 601.205 187.902V192.199C601.205 194.399 601.103 196.497 600.866 198.494V204.788C600.629 206.988 600.189 209.187 599.512 211.421C599.073 213.621 598.836 215.956 598.836 218.358V220.66C599.276 224.416 600.528 226.852 602.524 227.935C604.758 229.255 607.431 229.932 610.578 229.932C613.049 229.932 615.824 229.594 618.971 228.951C626.348 227.631 633.963 226.954 641.78 226.954C647.364 226.954 653.184 227.292 659.208 227.935C661.678 228.172 664.352 228.477 667.262 228.917C670.375 229.357 673.421 229.594 676.331 229.594H680.697C682.051 229.357 683.607 229.255 685.401 229.255H685.367V229.221Z" fill="#F3B495"></path>
<path d="M576.123 148.782C576.597 145.398 575.954 143.841 572.028 143.164C557.206 140.558 542.519 137.377 527.73 134.636C524.888 134.129 523.771 133.283 524.211 130.305C524.617 127.767 524.278 125.127 524.278 122.386C526.377 121.878 528.17 121.337 530.031 120.998C543.839 118.291 557.646 115.482 571.52 112.978C575.717 112.234 577.003 110.406 575.852 106.481C574.6 102.25 573.517 97.9526 572.265 93.3841C557.747 96.7682 543.872 100.017 529.998 103.232C523.162 104.822 518.322 102.521 515.48 96.3621C515.412 96.1929 515.48 95.9899 515.48 94.8393C529.456 84.5855 543.906 74.0271 558.898 63.0288C554.363 57.7496 550.268 52.978 545.971 47.9696C531.723 59.6447 518.187 70.7784 504.617 81.8782C501.199 79.3063 498.221 77.0728 495.277 74.907C503.602 59.1371 511.757 43.7056 520.116 27.8342C513.991 24.89 508.238 22.1489 502.045 19.2047C496.191 32.4366 490.437 45.2623 484.82 58.1218C481.729 65.2059 476.337 67.5973 468.644 65.2961V11.6582H449.998V65.4653C446.377 66.3113 442.891 67.0897 438.932 68.0034C431.182 51.6244 423.5 35.3807 415.615 18.6294C409.321 21.6074 403.669 24.3147 397.781 27.1235C406.715 43.7056 415.209 59.4078 423.805 75.313C420.793 77.4789 417.612 79.7462 414.465 82.0136C400.285 70.6768 386.444 59.577 372.163 48.1388C368.035 53.3841 364.245 58.1895 360.116 63.4687C374.904 74.4332 389.152 85.0254 403.635 95.7868C401.707 99.3063 399.947 102.521 398.052 105.973C380.421 101.709 363.162 97.5466 345.632 93.3164C344.448 98.088 343.703 102.149 342.383 106.007C340.793 110.609 342.316 112.234 347.02 113.113C362.688 116.024 378.255 119.34 394.058 122.555C394.058 124.382 393.889 125.871 394.058 127.327C394.634 131.929 393.517 134.535 387.967 134.873C382.316 135.212 376.732 136.802 371.114 137.919C361.3 139.882 351.52 141.912 341.165 144.01C342.62 149.526 343.906 154.399 345.192 159.239C345.97 162.149 347.663 162.792 350.742 162.014C362.688 158.9 374.769 156.125 386.749 153.147C394.104 151.297 399.439 153.7 402.756 160.355C402.891 160.626 402.756 161.032 402.688 161.404C388.475 171.726 374.228 182.081 359.304 192.91C363.805 197.987 368.102 202.826 372.468 207.767C386.715 196.396 400.285 185.567 414.058 174.602C417.341 177.039 420.285 179.272 423.399 181.574C414.701 197.208 406.241 212.47 397.443 228.274C402.248 230.541 406.58 232.369 410.674 234.602C414.194 236.531 415.92 235.821 417.578 232.166C422.789 220.728 428.373 209.425 433.788 198.054C436.901 191.489 442.146 189.391 449.49 191.726V243.706H468.306V200.491C468.306 194.129 471.419 190.406 477.679 189.357C478.221 189.256 478.762 189.391 479.507 189.459C480.793 191.963 482.18 194.433 483.365 196.937C488.982 208.613 494.465 220.389 500.251 231.963C501.03 233.52 503.805 235.685 504.786 235.313C509.862 233.384 514.668 230.745 519.947 228.139C511.52 212.098 503.432 196.734 495.277 181.168C498.559 178.833 501.504 176.802 504.685 174.569C518.322 185.635 531.757 196.599 545.598 207.834C549.828 202.758 553.754 198.02 558.052 192.843C543.297 181.844 529.084 171.218 514.735 160.525C515.378 159.171 516.055 158.223 516.292 157.174C517.646 151.218 520.928 150.44 526.681 152.098C537.646 155.279 548.847 157.547 559.947 160.152C573.382 163.3 574.025 162.792 575.987 148.849L576.123 148.782Z" fill="#F3B495"></path>
<path d="M311.765 128.714C307.738 124.755 303.372 121.337 298.669 118.461C293.965 115.381 289.058 112.606 283.914 110.169C278.77 107.733 273.525 105.432 268.144 103.232L262.459 100.592C258.432 98.8328 254.202 96.9377 249.701 94.9749C245.234 92.7752 241.748 89.8987 239.312 86.3793C237.078 83.5028 235.961 80.1864 235.961 76.4639C235.961 72.7414 236.977 69.1881 238.973 65.8717C240.97 62.5552 243.677 60.0172 247.027 58.2574C249.701 56.7008 252.713 55.4825 256.097 54.6026C259.447 53.7228 262.797 53.2828 266.147 53.2828C267.264 53.2828 268.381 53.3843 269.498 53.6212C270.851 53.6212 272.07 53.7228 273.186 53.9596C276.334 54.8395 279.21 56.2608 281.917 58.2574C284.591 60.2541 287.061 62.4537 289.295 64.8903C291.088 66.8869 292.408 68.985 293.322 71.1847C294.438 73.1813 296.435 74.1627 299.345 74.1627H300.699C304.286 73.7228 307.84 71.963 311.427 68.8497C315.217 65.5332 318.026 62.4537 319.819 59.5772C320.936 57.5806 321.511 55.4825 321.511 53.2828C321.511 50.2033 320.394 47.4283 318.161 44.9918C316.164 42.3522 313.897 39.9156 311.46 37.716C307.197 33.9596 303.406 31.2185 300.056 29.4249C296.706 27.6652 292.577 25.9055 287.636 24.1119C284.963 23.232 282.391 22.5552 279.921 22.1153C277.687 21.6754 275.217 21.4385 272.543 21.4385H268.516C263.136 21.8784 257.552 22.3183 251.731 22.7583C245.911 22.9952 240.428 24.0781 235.285 26.0747C230.141 28.0713 225.437 30.9139 221.207 34.6703C216.943 38.4266 213.254 42.6229 210.141 47.2591C207.23 51.8953 204.895 56.9715 203.102 62.4876C201.545 67.8006 200.767 73.0798 200.767 78.3928V79.3742C201.207 90.8463 204.354 100.017 210.141 106.853C215.961 113.486 223 119.205 231.257 124.078C239.752 128.714 248.584 133.012 257.755 137.005C266.926 140.965 275.081 145.736 282.222 151.252C286.689 154.569 290.276 158.867 292.949 164.18C295.623 169.256 296.977 174.332 296.977 179.408C296.977 183.164 296.097 186.684 294.303 190C292.51 193.317 289.599 195.956 285.572 197.953C277.755 202.149 269.362 204.247 260.428 204.247C255.284 204.247 250.378 203.367 245.674 201.608C240.97 199.848 236.943 197.073 233.592 193.317C231.596 190.88 229.802 187.801 228.212 184.044C226.858 180.288 224.963 177.547 222.526 175.753C221.173 174.637 218.939 173.994 215.826 173.757C212.713 173.317 209.565 173.08 206.452 173.08C205.098 173.08 203.88 173.181 202.763 173.418H199.752C192.814 174.298 189.362 177.378 189.362 182.691C189.362 186.007 190.716 189.966 193.389 194.603C196.063 199.002 199.21 203.435 202.763 207.834C206.35 212.031 209.904 215.787 213.491 219.104C217.281 222.42 220.191 224.518 222.222 225.398C228.043 228.274 235.081 230.373 243.339 231.692C251.596 233.249 259.65 233.994 267.501 233.994C270.851 233.994 273.999 233.892 276.875 233.655C279.988 233.418 282.899 232.978 285.606 232.335C290.75 231.219 295.792 229.459 300.699 227.056C305.606 224.62 310.073 221.642 314.1 218.122C318.127 214.366 321.477 210.271 324.151 205.872C327.061 201.235 329.058 196.261 330.175 190.982C330.851 188.545 331.291 186.142 331.528 183.706C331.765 181.066 331.867 178.528 331.867 176.092C331.867 164.823 328.753 153.587 322.493 142.318C319.379 137.039 315.792 132.505 311.765 128.748V128.714Z" fill="#F3B495"></path>
<path d="M153.322 176.601C162.121 173.149 168.178 162.151 170.682 157.413C173.39 149.867 178.297 136.906 177.755 129.021C177.924 124.588 177.349 123.505 177.045 122.828C176.3 121 175.082 120.019 171.393 121.474C167.772 122.253 163.914 135.451 162.662 139.681C161.207 144.621 155.86 158.564 151.224 160.899C146.046 162.286 142.188 156.838 142.087 154.131V152.98C142.594 148.073 143.102 131.83 143.305 130.781C153.491 121.88 162.493 102.286 165.234 87.9379C167.197 77.7517 169.024 54.6722 164.862 43.1663C162.459 36.8042 161.478 33.9616 157.315 29.7653C154.845 28.1409 148.618 24.926 144.93 26.3812C132.611 31.2543 128.99 59.2746 128.381 75.5521C126.723 93.5893 127.704 127.058 128.618 147.769C123.779 152.879 118.635 166.72 112.747 174.3C107.028 182.083 101.884 184.418 96.4016 186.246C91.2239 186.821 86.7569 180.324 87.2645 177.041L91.5285 175.349C103.576 170.611 115.386 152.303 117.552 144.655C120.056 136.195 120.293 129.934 118.229 122.016C117.18 117.413 110.243 107.16 102.391 110.104C91.4947 114.063 81.5454 122.693 77.2138 132.676C70.6486 149.055 69.4304 161.339 72.1715 174.943C70.8517 177.786 69.7349 180.493 68.9227 181.813C66.2155 185.637 64.7942 192.676 60.2595 194.469C54.5742 196.229 52.6452 184.182 51.3931 181.102C51.1224 180.053 53.2882 170.781 53.2544 169.833C53.1867 157.853 54.5065 146.144 56.6385 133.962C58.8381 121.914 61.6131 97.1426 64.4896 85.1291C65.8432 79.5792 71.1901 72.4387 68.6182 66.9565C66.6892 62.9971 63.6774 59.6468 59.3119 61.3727C53.8297 63.7077 52.7806 67.5318 52.0361 72.2018C51.7315 74.2661 50.5471 75.3829 50.3779 77.0749C49.7687 81.6773 48.6858 86.6519 48.3136 91.0174C47.806 94.6384 47.163 99.5792 46.5539 103.708L43.4067 123.911C42.0869 133.995 42.3914 136.804 41.0378 144.452C40.3271 143.911 37.8229 143.775 36.943 143.302C35.0141 142.591 32.6791 144.182 31.2916 144.723C8.58431 153.995 -6.61028 191.119 2.86518 217.718C4.59107 221.576 10.4794 226.381 12.6791 226.517C13.4574 226.381 18.0598 226.821 18.5336 226.787L19.8195 226.28C29.5319 222.286 33.7281 216.398 36.6385 210.239C37.6875 207.566 42.1884 198.801 43.3728 196.06L44.0835 195.789C45.2679 202.794 49.0919 206.956 52.1376 209.156C55.0479 210.273 59.7518 210.544 62.4591 209.461C67.9752 207.87 73.6943 199.647 77.7891 190.781C83.3728 198.124 94.0666 200.594 98.2967 199.038C104.659 196.533 113.187 192.371 119.82 184.385C124.219 179.105 128.077 173.048 130.852 167.329C132.104 169.596 133.762 171.153 134.067 171.965C135.183 174.774 145.809 179.478 153.457 176.466L153.322 176.601ZM38.7704 171.322C38.3305 175.078 33.762 188.547 31.8331 193.183C30.5133 195.654 25.5386 205.231 22.1884 209.156C20.5979 212.54 14.7772 211.931 13.8297 209.224C10.3441 192.1 21.1055 163.877 34.8787 158.124C35.454 157.887 40.1918 159.918 40.8686 160.324C39.8872 163.132 39.1427 168.615 38.7704 171.356V171.322ZM85.1326 165.028C83.6436 158.496 85.2002 150.577 86.6892 144.148C88.3136 136.364 95.5556 125.907 101.952 125.467C106.215 127.024 106.723 134.435 105.336 138.733C104.151 146.347 94.3711 159.918 85.2341 164.994L85.0987 165.061L85.1326 165.028ZM140.97 105.907C141.072 105.704 140.53 103.64 140.496 103.505C140.09 95.5521 140.801 86.3473 141.41 78.1578C141.41 78.1578 142.053 56.9734 144.625 50.7805C144.997 45.6028 146.283 42.6587 148.584 41.9142L149.43 41.5758C151.528 41.8803 152.51 42.3203 153.864 46.0089C156.435 53.5893 154.777 73.86 152.916 82.2187C150.006 96.1612 146.114 105.163 140.835 110.814C140.767 106.144 141.038 110.104 140.97 105.907Z" fill="#F3B495"></path>
<path d="M685.367 228.987C687.364 228.987 689.293 228.75 691.053 228.31C692.846 228.073 694.504 227.633 696.095 226.99C697.889 226.314 699.208 225.231 700.122 223.674C701.476 221.034 702.119 217.921 702.119 214.401C702.119 211.322 701.78 208.445 701.104 205.806C700.664 202.929 699.987 200.527 699.107 198.53C698.667 197.853 697.11 197.312 694.403 196.872C691.73 196.195 688.718 195.755 685.334 195.552C682.186 195.315 679.073 195.214 675.926 195.214C673.016 194.977 671.12 194.875 670.241 194.875C666.45 194.875 662.762 195.315 659.175 196.195C655.824 196.872 652.474 197.176 649.124 197.176C646.45 197.176 643.879 196.737 641.408 195.857C638.498 194.537 636.704 192.202 636.027 188.919C635.35 185.603 635.012 182.185 635.012 178.665V169.731C634.775 167.295 634.674 164.892 634.674 162.456V154.841C634.674 146.449 634.911 138.192 635.351 130.002C635.79 121.61 636.23 113.217 636.704 104.858C636.941 100.899 637.043 96.9057 637.043 92.9463C637.279 88.75 637.381 84.6553 637.381 80.6959V60.1883C637.381 55.349 637.618 50.3744 638.058 45.2982C638.295 43.5385 638.633 41.6434 639.073 39.6806C639.513 37.684 639.75 35.8228 639.75 34.063C639.75 31.4234 638.971 29.2238 637.415 27.4302C636.298 26.5503 635.08 26.0089 633.726 25.772C632.373 25.5351 631.053 25.4336 629.699 25.4336C627.702 25.4336 625.672 25.6705 623.675 26.1104C621.882 26.3473 620.224 26.4488 618.633 26.4488C616.163 26.4488 614.065 26.3473 612.271 26.1104C610.714 25.8735 609.022 25.772 607.229 25.772C605.435 25.772 603.777 26.0089 602.186 26.4488C600.833 26.8888 599.716 27.7686 598.836 29.0884L597.144 32.0664C596.704 34.2661 596.467 36.0258 596.467 37.3795C596.467 40.6959 596.806 44.1138 597.483 47.6333C598.362 50.9497 598.836 53.9277 598.836 56.5673C598.836 62.9632 598.735 69.3592 598.498 75.7551C598.261 81.948 598.159 88.107 598.159 94.2999V110.848C598.396 116.127 598.599 121.44 598.836 126.753L600.19 153.894C600.427 155.654 600.528 157.312 600.528 158.868V175.755C600.528 178.192 600.63 180.594 600.867 183.031C601.104 184.588 601.205 186.11 601.205 187.667V191.965C601.205 194.165 601.104 196.263 600.867 198.259V204.554C600.63 206.753 600.19 208.953 599.513 211.187C599.073 213.386 598.836 215.721 598.836 218.124V220.425C599.276 224.182 600.528 226.618 602.525 227.701C604.758 229.021 607.432 229.698 610.579 229.698C613.049 229.698 615.824 229.359 618.971 228.716C626.349 227.396 633.963 226.72 641.78 226.72C647.364 226.72 653.185 227.058 659.208 227.701C661.679 227.938 664.352 228.242 667.263 228.682C670.376 229.122 673.422 229.359 676.332 229.359H680.697C682.051 229.122 683.608 229.021 685.401 229.021H685.367V228.987Z" fill="#F3B495"></path>
<path d="M576.123 148.544C576.597 145.16 575.954 143.603 572.029 142.926C557.206 140.32 542.519 137.139 527.731 134.398C524.888 133.891 523.771 133.045 524.211 130.067C524.617 127.529 524.279 124.889 524.279 122.148C526.377 121.64 528.171 121.099 530.032 120.76C543.839 118.053 557.646 115.244 571.521 112.74C575.717 111.996 577.003 110.168 575.853 106.243C574.6 102.013 573.518 97.7147 572.265 93.1462C557.748 96.5303 543.873 99.779 529.998 102.994C523.162 104.584 518.323 102.283 515.48 96.1242C515.413 95.955 515.48 95.7519 515.48 94.6013C529.457 84.3475 543.907 73.7891 558.898 62.7908C554.364 57.5116 550.269 52.7401 545.971 47.7316C531.724 59.4067 518.188 70.5404 504.617 81.6402C501.199 79.0683 498.221 76.8348 495.277 74.669C503.602 58.8991 511.758 43.4676 520.117 27.5962C513.991 24.6521 508.238 21.911 502.045 18.9668C496.191 32.1986 490.438 45.0243 484.82 57.8839C481.73 64.9679 476.338 67.3594 468.644 65.0582V11.4541H449.998V65.2612C446.377 66.1072 442.891 66.8856 438.932 67.7993C431.182 51.4203 423.501 35.1766 415.616 18.4253C409.321 21.4033 403.67 24.1106 397.781 26.9194C406.715 43.5015 415.21 59.2037 423.805 75.1089C420.793 77.2748 417.612 79.5421 414.465 81.8094C400.286 70.4727 386.445 59.3729 372.164 47.9347C368.035 53.18 364.245 57.9854 360.116 63.2646C374.905 74.2291 389.152 84.8213 403.636 95.5827C401.707 99.1022 399.947 102.317 398.052 105.769C380.421 101.505 363.162 97.3424 345.633 93.1123C344.448 97.8839 343.704 101.945 342.384 105.803C340.793 110.405 342.316 112.029 347.02 112.909C362.688 115.82 378.255 119.136 394.059 122.351C394.059 124.178 393.89 125.667 394.059 127.122C394.634 131.725 393.517 134.331 387.968 134.669C382.316 135.007 376.732 136.598 371.115 137.715C361.301 139.677 351.521 141.708 341.166 143.806C342.621 149.322 343.907 154.195 345.193 159.035C345.971 161.945 347.663 162.588 350.743 161.809C362.688 158.696 374.77 155.921 386.749 152.943C394.104 151.093 399.44 153.496 402.756 160.151C402.891 160.422 402.756 160.828 402.688 161.2C388.475 171.522 374.228 181.877 359.304 192.706C363.805 197.782 368.103 202.622 372.468 207.562C386.715 196.192 400.286 185.363 414.059 174.398C417.342 176.835 420.286 179.068 423.399 181.37C414.702 197.004 406.242 212.266 397.443 228.07C402.248 230.337 406.58 232.165 410.675 234.398C414.194 236.327 415.92 235.617 417.578 231.962C422.79 220.524 428.374 209.221 433.788 197.85C436.902 191.285 442.147 189.187 449.49 191.522V243.502H468.306V200.287C468.306 193.925 471.419 190.202 477.68 189.153C478.221 189.051 478.763 189.153 479.507 189.254C480.793 191.759 482.181 194.229 483.365 196.733C488.983 208.408 494.465 220.185 500.252 231.759C501.03 233.315 503.805 235.481 504.787 235.109C509.863 233.18 514.668 230.54 519.947 227.935C511.521 211.894 503.433 196.53 495.277 180.963C498.56 178.628 501.504 176.598 504.685 174.364C518.323 185.43 531.758 196.395 545.599 207.63C549.829 202.554 553.754 197.816 558.052 192.639C543.298 181.64 529.084 171.014 514.736 160.32C515.379 158.967 516.056 158.019 516.292 156.97C517.646 151.014 520.929 150.236 526.682 151.894C537.646 155.075 548.848 157.342 559.947 159.948C573.382 163.095 574.025 162.588 575.988 148.645L576.123 148.544Z" fill="#F3B495"></path>
<path d="M689.352 217.565C691.348 217.565 693.277 217.328 695.037 216.888C696.831 216.651 698.489 216.211 700.079 215.568C701.873 214.892 703.193 213.809 704.106 212.252C705.46 209.612 706.103 206.499 706.103 202.98C706.103 199.9 705.765 197.024 705.088 194.384C704.648 191.508 703.971 189.105 703.091 187.108C702.651 186.431 701.095 185.89 698.387 185.45C695.714 184.773 692.702 184.333 689.318 184.13C686.171 183.893 683.057 183.792 679.91 183.792C677 183.555 675.105 183.453 674.225 183.453C670.435 183.453 666.746 183.893 663.159 184.773C659.809 185.45 656.458 185.755 653.108 185.755C650.435 185.755 647.863 185.315 645.392 184.435C642.482 183.115 640.689 180.78 640.012 177.497C639.335 174.181 638.997 170.763 638.997 167.244V158.31C638.76 155.873 638.658 153.47 638.658 151.034V143.42C638.658 135.027 638.895 126.77 639.335 118.58C639.775 110.188 640.215 101.795 640.689 93.4364C640.925 89.4771 641.027 85.4838 641.027 81.5244C641.264 77.3281 641.365 73.2334 641.365 69.274V48.7664C641.365 43.9271 641.602 38.9525 642.042 33.8764C642.279 32.1166 642.618 30.2215 643.057 28.2588C643.497 26.2621 643.734 24.4009 643.734 22.6412C643.734 20.0016 642.956 17.8019 641.399 16.0083C640.282 15.1285 639.064 14.587 637.711 14.3501C636.357 14.1132 635.037 14.0117 633.683 14.0117C631.687 14.0117 629.656 14.2486 627.66 14.6885C625.866 14.9254 624.208 15.0269 622.617 15.0269C620.147 15.0269 618.049 14.9254 616.255 14.6885C614.699 14.4517 613.007 14.3501 611.213 14.3501C609.419 14.3501 607.761 14.587 606.171 15.0269C604.817 15.4669 603.7 16.3467 602.821 17.6665L601.128 20.6445C600.689 22.8442 600.452 24.6039 600.452 25.9576C600.452 29.274 600.79 32.6919 601.467 36.2114C602.347 39.5278 602.821 42.5058 602.821 45.1454C602.821 51.5413 602.719 57.9373 602.482 64.3332C602.245 70.5261 602.144 76.6852 602.144 82.8781V99.4263C602.381 104.705 602.584 110.019 602.821 115.332L604.174 142.472C604.411 144.232 604.513 145.89 604.513 147.447V164.333C604.513 166.77 604.614 169.172 604.851 171.609C605.088 173.166 605.189 174.689 605.189 176.245V180.543C605.189 182.743 605.088 184.841 604.851 186.837V193.132C604.614 195.332 604.174 197.531 603.497 199.765C603.057 201.964 602.821 204.299 602.821 206.702V209.003C603.26 212.76 604.513 215.196 606.509 216.279C608.743 217.599 611.416 218.276 614.563 218.276C617.034 218.276 619.809 217.937 622.956 217.294C630.333 215.975 637.947 215.298 645.765 215.298C651.348 215.298 657.169 215.636 663.193 216.279C665.663 216.516 668.337 216.821 671.247 217.26C674.36 217.7 677.406 217.937 680.316 217.937H684.682C686.035 217.7 687.592 217.599 689.386 217.599H689.352V217.565Z" fill="#C9694F"></path>
<path d="M580.146 137.124C580.62 133.739 579.977 132.183 576.052 131.506C561.229 128.9 546.542 125.719 531.754 122.978C528.911 122.47 527.794 121.624 528.234 118.646C528.64 116.108 528.302 113.469 528.302 110.728C530.4 110.22 532.194 109.679 534.055 109.34C547.862 106.633 561.669 103.824 575.544 101.32C579.74 100.575 581.026 98.7479 579.876 94.8224C578.623 90.5922 577.541 86.2944 576.288 81.7259C561.771 85.11 547.896 88.3587 534.021 91.5736C527.185 93.1642 522.346 90.863 519.503 84.7039C519.436 84.5347 519.503 84.3317 519.503 83.1811C533.48 72.9273 547.93 62.3689 562.921 51.3706C558.387 46.0914 554.292 41.3198 549.994 36.3113C535.747 47.9865 522.211 59.1202 508.64 70.22C505.222 67.6481 502.244 65.4146 499.3 63.2487C507.625 47.4789 515.781 32.0474 524.139 16.176C518.014 13.2318 512.261 10.4907 506.068 7.54653C500.214 20.7783 494.461 33.6041 488.843 46.4636C485.753 53.5477 480.361 55.9391 472.667 53.6379V0H454.021V53.8071C450.4 54.6531 446.914 55.4315 442.955 56.3452C435.205 39.9662 427.524 23.7225 419.639 6.97124C413.344 9.94924 407.693 12.6565 401.804 15.4653C410.738 32.0474 419.233 47.7496 427.828 63.6548C424.816 65.8207 421.635 68.088 418.488 70.3554C404.309 59.0186 390.468 47.9188 376.187 36.4806C372.058 41.7259 368.268 46.5313 364.139 51.8105C378.928 62.775 393.175 73.3672 407.659 84.1286C405.73 87.6481 403.97 90.863 402.075 94.3147C384.444 90.0508 367.185 85.8883 349.656 81.6582C348.471 86.4298 347.727 90.4907 346.407 94.3486C344.816 98.951 346.339 100.575 351.043 101.455C366.711 104.366 382.278 107.682 398.082 110.897C398.082 112.724 397.913 114.213 398.082 115.668C398.657 120.271 397.54 122.877 391.991 123.215C386.339 123.553 380.755 125.144 375.138 126.261C365.324 128.223 355.544 130.254 345.188 132.352C346.644 137.868 347.93 142.741 349.216 147.58C349.994 150.491 351.686 151.134 354.765 150.355C366.711 147.242 378.793 144.467 390.772 141.489C398.127 139.639 403.463 142.042 406.779 148.697C406.914 148.968 406.779 149.374 406.711 149.746C392.498 160.068 378.251 170.423 363.327 181.252C367.828 186.328 372.126 191.168 376.491 196.108C390.738 184.738 404.309 173.909 418.082 162.944C421.365 165.381 424.309 167.614 427.422 169.915C418.725 185.55 410.265 200.812 401.466 216.616C406.271 218.883 410.603 220.711 414.698 222.944C418.217 224.873 419.943 224.163 421.601 220.508C426.813 209.069 432.397 197.767 437.811 186.396C440.925 179.831 446.17 177.733 453.513 180.068V232.047H472.329V188.833C472.329 182.47 475.442 178.748 481.703 177.699C482.244 177.597 482.786 177.733 483.53 177.8C484.816 180.305 486.204 182.775 487.388 185.279C493.006 196.954 498.488 208.731 504.275 220.305C505.053 221.861 507.828 224.027 508.81 223.655C513.886 221.726 518.691 219.086 523.97 216.481C515.544 200.44 507.456 185.076 499.3 169.509C502.583 167.174 505.527 165.144 508.708 162.91C522.346 173.976 535.781 184.941 549.622 196.176C553.852 191.1 557.777 186.362 562.075 181.184C547.321 170.186 533.107 159.56 518.759 148.866C519.402 147.513 520.079 146.565 520.315 145.516C521.669 139.56 524.952 138.782 530.705 140.44C541.669 143.621 552.87 145.888 563.97 148.494C577.405 151.641 578.048 151.134 580.011 137.191L580.146 137.124Z" fill="#C9694F"></path>
<path d="M689.454 218.104C691.451 218.104 693.379 217.867 695.139 217.427C696.933 217.19 698.591 216.75 700.181 216.107C701.975 215.431 703.295 214.348 704.209 212.791C705.562 210.151 706.205 207.038 706.205 203.519C706.205 200.439 705.867 197.563 705.19 194.923C704.75 192.047 704.073 189.644 703.193 187.647C702.753 186.97 701.197 186.429 698.489 185.989C695.816 185.312 692.804 184.872 689.42 184.669C686.273 184.432 683.159 184.331 680.012 184.331C677.102 184.094 675.207 183.992 674.327 183.992C670.537 183.992 666.848 184.432 663.261 185.312C659.911 185.989 656.561 186.294 653.21 186.294C650.537 186.294 647.965 185.854 645.495 184.974C642.584 183.654 640.791 181.319 640.114 178.036C639.437 174.72 639.099 171.302 639.099 167.783V158.849C638.862 156.412 638.76 154.009 638.76 151.573V143.959C638.76 135.566 638.997 127.309 639.437 119.119C639.877 110.727 640.317 102.334 640.791 93.9755C641.027 90.0161 641.129 86.0229 641.129 82.0635C641.366 77.8672 641.467 73.7724 641.467 69.813V49.3054C641.467 44.4662 641.704 39.4916 642.144 34.4154C642.381 32.6557 642.72 30.7606 643.16 28.7978C643.599 26.8012 643.836 24.94 643.836 23.1802C643.836 20.5406 643.058 18.341 641.501 16.5474C640.384 15.6675 639.166 15.1261 637.813 14.8892C636.459 14.6523 635.139 14.5508 633.786 14.5508C631.789 14.5508 629.758 14.7877 627.762 15.2276C625.968 15.4645 624.31 15.566 622.72 15.566C620.249 15.566 618.151 15.4645 616.357 15.2276C614.801 14.9907 613.109 14.8892 611.315 14.8892C609.522 14.8892 607.863 15.1261 606.273 15.566C604.919 16.0059 603.802 16.8858 602.923 18.2056L601.231 21.1836C600.791 23.3833 600.554 25.143 600.554 26.4966C600.554 29.813 600.892 33.231 601.569 36.7504C602.449 40.0669 602.923 43.0449 602.923 45.6845C602.923 52.0804 602.821 58.4763 602.584 64.8723C602.347 71.0652 602.246 77.2242 602.246 83.4171V99.9653C602.483 105.245 602.686 110.558 602.923 115.871L604.276 143.011C604.513 144.771 604.615 146.429 604.615 147.986V164.872C604.615 167.309 604.716 169.712 604.953 172.148C605.19 173.705 605.291 175.228 605.291 176.784V181.082C605.291 183.282 605.19 185.38 604.953 187.377V193.671C604.716 195.871 604.276 198.07 603.599 200.304C603.159 202.503 602.923 204.838 602.923 207.241V209.542C603.362 213.299 604.615 215.735 606.611 216.818C608.845 218.138 611.518 218.815 614.665 218.815C617.136 218.815 619.911 218.476 623.058 217.833C630.435 216.514 638.049 215.837 645.867 215.837C651.451 215.837 657.271 216.175 663.295 216.818C665.765 217.055 668.439 217.36 671.349 217.8C674.462 218.239 677.508 218.476 680.418 218.476H684.784C686.137 218.239 687.694 218.138 689.488 218.138H689.454V218.104Z" fill="#C9694F"></path>
<path d="M580.21 137.665C580.684 134.28 580.041 132.724 576.115 132.047C561.293 129.441 546.606 126.26 531.817 123.519C528.975 123.011 527.858 122.165 528.298 119.187C528.704 116.649 528.365 114.01 528.365 111.269C530.464 110.761 532.257 110.22 534.118 109.881C547.925 107.174 561.733 104.365 575.607 101.861C579.804 101.116 581.09 99.2889 579.939 95.3634C578.687 91.1333 577.604 86.8355 576.352 82.2669C561.834 85.651 547.959 88.8998 534.085 92.1146C527.249 93.7052 522.409 91.404 519.567 85.2449C519.499 85.0757 519.567 84.8727 519.567 83.7221C533.543 73.4683 547.993 62.9099 562.985 51.9116C558.45 46.6324 554.355 41.8608 550.057 36.8524C535.81 48.5275 522.274 59.6612 508.704 70.761C505.286 68.1891 502.308 65.9556 499.364 63.7898C507.689 48.0199 515.844 32.5884 524.203 16.717C518.078 13.7728 512.325 11.0317 506.132 8.08755C500.277 21.3194 494.524 34.1451 488.907 47.0047C485.816 54.0887 480.424 56.4801 472.731 54.1789V0.541016H454.084V54.3481C450.464 55.1942 446.978 55.9725 443.018 56.8862C435.269 40.5072 427.587 24.2635 419.702 7.51225C413.408 10.4903 407.756 13.1975 401.868 16.0063C410.802 32.5884 419.296 48.2906 427.892 64.1959C424.88 66.3617 421.699 68.629 418.551 70.8964C404.372 59.5596 390.531 48.4598 376.25 37.0216C372.122 42.2669 368.332 47.0723 364.203 52.3515C378.991 63.316 393.238 73.9082 407.722 84.6696C405.793 88.1891 404.034 91.404 402.139 94.8558C384.507 90.5918 367.249 86.4294 349.719 82.1992C348.535 86.9708 347.79 91.0317 346.47 94.8896C344.88 99.492 346.403 101.116 351.106 101.996C366.775 104.907 382.342 108.223 398.145 111.438C398.145 113.265 397.976 114.754 398.145 116.209C398.721 120.812 397.604 123.418 392.054 123.756C386.403 124.094 380.819 125.685 375.201 126.802C365.387 128.764 355.607 130.795 345.252 132.893C346.707 138.409 347.993 143.282 349.279 148.121C350.057 151.032 351.749 151.675 354.829 150.896C366.775 147.783 378.856 145.008 390.836 142.03C398.19 140.18 403.526 142.583 406.842 149.238C406.978 149.509 406.843 149.915 406.775 150.287C392.562 160.609 378.315 170.964 363.391 181.793C367.892 186.869 372.189 191.709 376.555 196.649C390.802 185.279 404.372 174.45 418.145 163.485C421.428 165.922 424.372 168.155 427.485 170.456C418.788 186.091 410.328 201.353 401.529 217.157C406.335 219.424 410.667 221.252 414.761 223.485C418.281 225.414 420.007 224.703 421.665 221.049C426.876 209.61 432.46 198.308 437.875 186.937C440.988 180.372 446.233 178.274 453.577 180.609V232.588H472.392V189.374C472.392 183.011 475.506 179.289 481.766 178.24C482.308 178.138 482.849 178.274 483.594 178.341C484.88 180.846 486.267 183.316 487.452 185.82C493.069 197.495 498.551 209.272 504.338 220.846C505.117 222.402 507.892 224.568 508.873 224.196C513.949 222.267 518.755 219.627 524.034 217.022C515.607 200.981 507.519 185.617 499.364 170.05C502.646 167.715 505.59 165.685 508.771 163.451C522.409 174.517 535.844 185.482 549.685 196.717C553.915 191.641 557.841 186.903 562.139 181.726C547.384 170.727 533.171 160.101 518.822 149.407C519.465 148.054 520.142 147.106 520.379 146.057C521.733 140.101 525.015 139.323 530.768 140.981C541.733 144.162 552.934 146.429 564.034 149.035C577.469 152.182 578.112 151.675 580.074 137.732L580.21 137.665Z" fill="#C9694F"></path>
<path d="M315.851 117.597C311.824 113.638 307.459 110.22 302.755 107.343C298.051 104.264 293.144 101.489 288 99.0523C282.857 96.6157 277.611 94.3145 272.23 92.1149L266.545 89.4753C262.518 87.7156 258.288 85.8205 253.787 83.8577C249.32 81.658 245.835 78.7816 243.398 75.2621C241.165 72.3856 240.048 69.0692 240.048 65.3467C240.048 61.6242 241.063 58.0709 243.06 54.7545C245.056 51.4381 247.763 48.9 251.114 47.1403C253.787 45.5836 256.799 44.3653 260.183 43.4854C263.533 42.6056 266.884 42.1656 270.234 42.1656C271.351 42.1656 272.467 42.2672 273.584 42.504C274.938 42.504 276.156 42.6056 277.273 42.8424C280.42 43.7223 283.296 45.1436 286.004 47.1403C288.677 49.1369 291.148 51.3365 293.381 53.7731C295.175 55.7697 296.494 57.8678 297.408 60.0675C298.525 62.0641 300.522 63.0455 303.432 63.0455H304.786C308.373 62.6056 311.926 60.8458 315.513 57.7325C319.303 54.4161 322.112 51.3365 323.906 48.46C325.022 46.4634 325.598 44.3653 325.598 42.1656C325.598 39.0861 324.481 36.3111 322.247 33.8746C320.251 31.235 317.983 28.7985 315.547 26.5988C311.283 22.8424 307.493 20.1013 304.143 18.3078C300.792 16.548 296.664 14.7883 291.723 12.9947C289.049 12.1149 286.478 11.438 284.007 10.9981C281.774 10.5582 279.303 10.3213 276.63 10.3213H272.603C267.222 10.7612 261.638 11.2012 255.818 11.6411C249.997 11.878 244.515 12.9609 239.371 14.9575C234.227 16.9541 229.523 19.7968 225.293 23.5531C221.029 27.3095 217.34 31.5057 214.227 36.1419C211.317 40.7782 208.982 45.8543 207.188 51.3704C205.631 56.6834 204.853 61.9626 204.853 67.2756V68.257C205.293 79.7291 208.44 88.9 214.227 95.7359C220.048 102.369 227.087 108.088 235.344 112.961C243.838 117.597 252.67 121.895 261.841 125.888C271.012 129.848 279.168 134.619 286.308 140.135C290.775 143.452 294.362 147.749 297.036 153.062C299.709 158.139 301.063 163.215 301.063 168.291C301.063 172.047 300.183 175.567 298.39 178.883C296.596 182.2 293.686 184.839 289.659 186.836C281.841 191.032 273.449 193.13 264.515 193.13C259.371 193.13 254.464 192.25 249.76 190.491C245.056 188.731 241.029 185.956 237.679 182.2C235.682 179.763 233.889 176.683 232.298 172.927C230.944 169.171 229.049 166.43 226.613 164.636C225.259 163.519 223.026 162.876 219.912 162.639C216.799 162.2 213.652 161.963 210.538 161.963C209.185 161.963 207.967 162.064 206.85 162.301H203.838C196.901 163.181 193.449 166.26 193.449 171.573C193.449 174.89 194.802 178.849 197.476 183.485C200.149 187.885 203.296 192.318 206.85 196.717C210.437 200.914 213.99 204.67 217.577 207.986C221.368 211.303 224.278 213.401 226.308 214.281C232.129 217.157 239.168 219.255 247.425 220.575C255.682 222.132 263.736 222.876 271.587 222.876C274.938 222.876 278.085 222.775 280.961 222.538C284.075 222.301 286.985 221.861 289.692 221.218C294.836 220.101 299.879 218.342 304.786 215.939C309.692 213.502 314.159 210.524 318.186 207.005C322.214 203.249 325.564 199.154 328.237 194.755C331.148 190.118 333.144 185.144 334.261 179.865C334.938 177.428 335.378 175.025 335.615 172.589C335.851 169.949 335.953 167.411 335.953 164.974C335.953 153.705 332.84 142.47 326.579 131.201C323.466 125.922 319.879 121.387 315.851 117.631V117.597Z" fill="#C9694F"></path>
<path d="M157.406 165.484C166.205 162.032 172.262 151.034 174.766 146.296C177.474 138.75 182.381 125.789 181.839 117.904C182.008 113.47 181.433 112.388 181.129 111.711C180.384 109.883 179.166 108.902 175.477 110.357C171.856 111.135 167.998 124.333 166.746 128.564C165.291 133.504 159.944 147.447 155.308 149.782C150.13 151.169 146.272 145.721 146.171 143.014V141.863C146.678 136.956 147.186 120.712 147.389 119.663C157.575 110.763 166.577 91.1692 169.318 76.8207C171.281 66.6346 173.108 43.555 168.946 32.0491C166.543 25.687 165.562 22.8444 161.399 18.6481C158.929 17.0237 152.702 13.8088 149.013 15.264C136.695 20.1371 133.074 48.1574 132.465 64.4349C130.807 82.4721 131.788 115.941 132.702 136.651C127.863 141.761 122.719 155.602 116.831 163.183C111.112 170.966 105.968 173.301 100.486 175.129C95.3079 175.704 90.8409 169.206 91.3485 165.924L95.6125 164.232C107.66 159.494 119.47 141.186 121.636 133.538C124.14 125.078 124.377 118.817 122.313 110.899C121.264 106.296 114.327 96.0423 106.475 98.9865C95.5786 102.946 85.6294 111.575 81.2977 121.558C74.7326 137.937 73.5143 150.222 76.2555 163.826C74.9357 166.668 73.8189 169.376 73.0067 170.695C70.2994 174.52 68.8781 181.558 64.3434 183.352C58.6582 185.112 56.7292 173.064 55.4771 169.985C55.2064 168.936 57.3722 159.663 57.3383 158.716C57.2707 146.736 58.5905 135.027 60.7224 122.844C62.9221 110.797 65.6971 86.0254 68.5736 74.0119C69.9272 68.462 75.2741 61.3215 72.7021 55.8393C70.7732 51.8799 67.7614 48.5296 63.3959 50.2555C57.9136 52.5906 56.8646 56.4146 56.1201 61.0846C55.8155 63.1489 54.6311 64.2657 54.4619 65.9577C53.8527 70.5601 52.7698 75.5347 52.3976 79.9002C51.89 83.5212 51.247 88.462 50.6378 92.5906L47.4906 112.794C46.1708 122.878 46.4754 125.687 45.1218 133.335C44.4111 132.794 41.9069 132.658 41.027 132.184C39.0981 131.474 36.7631 133.064 35.3756 133.606C12.6683 142.878 -2.5263 180.002 6.94917 206.601C8.67506 210.459 14.5634 215.264 16.763 215.399C17.5414 215.264 22.1438 215.704 22.6175 215.67L23.9035 215.162C33.6158 211.169 37.8121 205.281 40.7224 199.122C41.7715 196.448 46.2724 187.684 47.4568 184.943L48.1674 184.672C49.3519 191.677 53.1759 195.839 56.2216 198.039C59.1319 199.156 63.8358 199.426 66.5431 198.344C72.0592 196.753 77.7783 188.53 81.873 179.663C87.4568 187.007 98.1506 189.477 102.381 187.921C108.743 185.416 117.271 181.254 123.904 173.267C128.303 167.988 132.161 161.931 134.936 156.212C136.188 158.479 137.846 160.036 138.151 160.848C139.267 163.657 149.893 168.36 157.541 165.349L157.406 165.484ZM42.8544 160.205C42.4145 163.961 37.846 177.43 35.917 182.066C34.5972 184.536 29.6226 194.113 26.2724 198.039C24.6819 201.423 18.8612 200.814 17.9137 198.107C14.428 180.983 25.1895 152.76 38.9627 147.007C39.538 146.77 44.2757 148.8 44.9526 149.206C43.9712 152.015 43.2267 157.498 42.8544 160.239V160.205ZM89.2165 153.91C87.7275 147.379 89.2842 139.46 90.7732 133.031C92.3976 125.247 99.6396 114.79 106.035 114.35C110.299 115.907 110.807 123.318 109.42 127.616C108.235 135.23 98.4551 148.8 89.3181 153.877L89.1827 153.944L89.2165 153.91ZM145.054 94.7902C145.156 94.5872 144.614 92.5229 144.58 92.3875C144.174 84.4349 144.885 75.2302 145.494 67.0406C145.494 67.0406 146.137 45.8562 148.709 39.6633C149.081 34.4857 150.367 31.5415 152.668 30.797L153.514 30.4586C155.612 30.7631 156.594 31.2031 157.948 34.8917C160.519 42.4721 158.861 62.7428 157 71.1016C154.09 85.044 150.198 94.0457 144.919 99.6972C144.851 95.0271 145.122 98.9865 145.054 94.7902Z" fill="#C9694F"></path>
<path d="M689.454 217.871C691.451 217.871 693.379 217.634 695.139 217.194C696.933 216.957 698.591 216.517 700.181 215.874C701.975 215.197 703.295 214.114 704.209 212.558C705.562 209.918 706.205 206.805 706.205 203.285C706.205 200.206 705.867 197.329 705.19 194.69C704.75 191.813 704.073 189.41 703.193 187.414C702.753 186.737 701.197 186.196 698.489 185.756C695.816 185.079 692.804 184.639 689.42 184.436C686.273 184.199 683.159 184.097 680.012 184.097C677.102 183.861 675.207 183.759 674.327 183.759C670.537 183.759 666.848 184.199 663.261 185.079C659.911 185.756 656.561 186.06 653.21 186.06C650.537 186.06 647.965 185.62 645.495 184.74C642.584 183.421 640.791 181.086 640.114 177.803C639.437 174.487 639.099 171.069 639.099 167.549V158.615C638.862 156.179 638.76 153.776 638.76 151.339V143.725C638.76 135.333 638.997 127.075 639.437 118.886C639.877 110.493 640.317 102.101 640.791 93.7421C641.027 89.7827 641.129 85.7895 641.129 81.8301C641.366 77.6338 641.467 73.5391 641.467 69.5797V49.072C641.467 44.2328 641.704 39.2582 642.144 34.182C642.381 32.4223 642.72 30.5272 643.16 28.5644C643.599 26.5678 643.836 24.7066 643.836 22.9468C643.836 20.3072 643.058 18.1076 641.501 16.314C640.384 15.4341 639.166 14.8927 637.813 14.6558C636.459 14.4189 635.139 14.3174 633.786 14.3174C631.789 14.3174 629.758 14.5543 627.762 14.9942C625.968 15.2311 624.31 15.3326 622.72 15.3326C620.249 15.3326 618.151 15.2311 616.357 14.9942C614.801 14.7573 613.109 14.6558 611.315 14.6558C609.522 14.6558 607.863 14.8927 606.273 15.3326C604.919 15.7725 603.802 16.6524 602.923 17.9722L601.231 20.9502C600.791 23.1499 600.554 24.9096 600.554 26.2632C600.554 29.5797 600.892 32.9976 601.569 36.5171C602.449 39.8335 602.923 42.8115 602.923 45.4511C602.923 51.847 602.821 58.2429 602.584 64.6389C602.347 70.8318 602.246 76.9908 602.246 83.1837V99.732C602.483 105.011 602.686 110.324 602.923 115.637L604.276 142.778C604.513 144.537 604.615 146.196 604.615 147.752V164.639C604.615 167.075 604.716 169.478 604.953 171.915C605.19 173.471 605.291 174.994 605.291 176.551V180.849C605.291 183.048 605.19 185.147 604.953 187.143V193.438C604.716 195.637 604.276 197.837 603.599 200.07C603.159 202.27 602.923 204.605 602.923 207.008V209.309C603.362 213.065 604.615 215.502 606.611 216.585C608.845 217.905 611.518 218.581 614.665 218.581C617.136 218.581 619.911 218.243 623.058 217.6C630.435 216.28 638.049 215.603 645.867 215.603C651.451 215.603 657.271 215.942 663.295 216.585C665.765 216.822 668.439 217.126 671.349 217.566C674.462 218.006 677.508 218.243 680.418 218.243H684.784C686.137 218.006 687.694 217.905 689.488 217.905H689.454V217.871Z" fill="#C9694F"></path>
<path d="M580.21 137.427C580.684 134.043 580.041 132.486 576.115 131.809C561.293 129.203 546.606 126.022 531.817 123.281C528.975 122.774 527.858 121.927 528.298 118.949C528.704 116.411 528.365 113.772 528.365 111.031C530.464 110.523 532.257 109.982 534.118 109.643C547.925 106.936 561.733 104.127 575.607 101.623C579.804 100.878 581.09 99.051 579.939 95.1254C578.687 90.8953 577.604 86.5975 576.352 82.029C561.834 85.4131 547.959 88.6618 534.085 91.8767C527.249 93.4672 522.409 91.166 519.567 85.007C519.499 84.8378 519.567 84.6347 519.567 83.4841C533.543 73.2303 547.993 62.672 562.985 51.6736C558.45 46.3945 554.355 41.6229 550.057 36.6144C535.81 48.2895 522.274 59.4232 508.704 70.5231C505.286 67.9511 502.308 65.7176 499.364 63.5518C507.689 47.7819 515.844 32.3505 524.203 16.4791C518.078 13.5349 512.325 10.7938 506.132 7.84961C500.277 21.0814 494.524 33.9071 488.907 46.7667C485.816 53.8507 480.424 56.2422 472.731 53.941V0.336914H454.084V54.144C450.464 54.9901 446.978 55.7684 443.018 56.6821C435.269 40.3031 427.587 24.0594 419.702 7.30815C413.408 10.2862 407.756 12.9934 401.868 15.8022C410.802 32.3843 419.296 48.0865 427.892 63.9918C424.88 66.1576 421.699 68.4249 418.551 70.6923C404.372 59.3555 390.531 48.2557 376.25 36.8175C372.122 42.0628 368.332 46.8682 364.203 52.1474C378.991 63.1119 393.238 73.7041 407.722 84.4655C405.793 87.985 404.034 91.1999 402.139 94.6517C384.507 90.3877 367.249 86.2253 349.719 81.9951C348.535 86.7667 347.79 90.8276 346.47 94.6855C344.88 99.2879 346.403 100.912 351.106 101.792C366.775 104.702 382.342 108.019 398.145 111.234C398.145 113.061 397.976 114.55 398.145 116.005C398.721 120.608 397.604 123.213 392.054 123.552C386.403 123.89 380.819 125.481 375.201 126.598C365.387 128.56 355.607 130.591 345.252 132.689C346.707 138.205 347.993 143.078 349.279 147.917C350.057 150.828 351.749 151.471 354.829 150.692C366.775 147.579 378.856 144.804 390.836 141.826C398.19 139.976 403.526 142.379 406.842 149.034C406.978 149.305 406.843 149.711 406.775 150.083C392.562 160.405 378.315 170.76 363.391 181.589C367.892 186.665 372.189 191.504 376.555 196.445C390.802 185.075 404.372 174.246 418.145 163.281C421.428 165.718 424.372 167.951 427.485 170.252C418.788 185.887 410.328 201.149 401.529 216.953C406.335 219.22 410.667 221.048 414.761 223.281C418.281 225.21 420.007 224.499 421.665 220.845C426.876 209.406 432.46 198.103 437.875 186.733C440.988 180.168 446.233 178.07 453.577 180.405V232.384H472.392V189.169C472.392 182.807 475.506 179.085 481.766 178.036C482.308 177.934 482.849 178.036 483.594 178.137C484.88 180.642 486.267 183.112 487.452 185.616C493.069 197.291 498.551 209.068 504.338 220.642C505.117 222.198 507.892 224.364 508.873 223.992C513.949 222.063 518.755 219.423 524.034 216.818C515.607 200.777 507.519 185.413 499.364 169.846C502.646 167.511 505.59 165.481 508.771 163.247C522.409 174.313 535.844 185.278 549.685 196.513C553.915 191.437 557.841 186.699 562.139 181.521C547.384 170.523 533.171 159.897 518.822 149.203C519.465 147.85 520.142 146.902 520.379 145.853C521.733 139.897 525.015 139.119 530.768 140.777C541.733 143.958 552.934 146.225 564.034 148.831C577.469 151.978 578.112 151.471 580.074 137.528L580.21 137.427Z" fill="#D69F56"></path>
</svg>